<svg width="161" height="133" viewBox="0 0 161 133" fill="none" xmlns="http://www.w3.org/2000/svg">
<path d="M155 69.5C155 61.1611 153.073 52.9038 149.329 45.1996C145.585 37.4954 140.097 30.4952 133.179 24.5987C126.262 18.7022 118.049 14.0248 109.01 10.8337C99.9712 7.64248 90.2835 6 80.5 6C70.7165 5.99999 61.0289 7.64247 51.9901 10.8336C42.9514 14.0248 34.7385 18.7022 27.8206 24.5987C20.9026 30.4952 15.415 37.4954 11.671 45.1996C7.92701 52.9037 6 61.161 6 69.5" stroke="#EAECF0" stroke-width="12" stroke-linecap="round" stroke-linejoin="round"/>
<path d="M6 69.5C6 56.0901 10.9807 43.0245 20.2282 32.1756C29.4758 21.3268 42.5154 13.2518 57.4783 9.10791C72.4411 4.96403 88.559 4.96403 103.522 9.10792C118.485 13.2518 131.524 21.3268 140.772 32.1757" stroke="#ACA0F8" stroke-width="12" stroke-linecap="round" stroke-linejoin="round"/>
<g style="mix-blend-mode:multiply">
<path d="M46 56.5V49.5M46 49.5L42.5 53M46 49.5L49.5 53" stroke="black" stroke-width="1.5" stroke-linecap="round" stroke-linejoin="round"/>
<path d="M57.0546 58V56.8864L60.4999 53.3168C60.8678 52.929 61.1711 52.5893 61.4097 52.2976C61.6517 52.0026 61.8323 51.7225 61.9516 51.4574C62.0709 51.1922 62.1306 50.9105 62.1306 50.6122C62.1306 50.2741 62.051 49.9825 61.892 49.7372C61.7329 49.4886 61.5158 49.2981 61.2407 49.1655C60.9656 49.0296 60.6557 48.9616 60.311 48.9616C59.9464 48.9616 59.6282 49.0362 59.3564 49.1854C59.0847 49.3345 58.8759 49.545 58.73 49.8168C58.5842 50.0885 58.5113 50.4067 58.5113 50.7713H57.0447C57.0447 50.1515 57.1872 49.6096 57.4722 49.1456C57.7573 48.6816 58.1483 48.322 58.6455 48.0668C59.1427 47.8082 59.7078 47.679 60.3408 47.679C60.9805 47.679 61.5439 47.8066 62.0312 48.0618C62.5217 48.3137 62.9045 48.6584 63.1796 49.0959C63.4547 49.5301 63.5922 50.0206 63.5922 50.5675C63.5922 50.9453 63.521 51.3149 63.3785 51.6761C63.2393 52.0374 62.9957 52.4401 62.6476 52.8842C62.2996 53.325 61.8157 53.8603 61.1959 54.4901L59.1725 56.608V56.6825H63.7563V58H57.0546ZM66.8337 50.3636L68.5191 53.3366L70.2194 50.3636H71.8451L69.4637 54.1818L71.865 58H70.2393L68.5191 55.1463L66.8039 58H65.1732L67.5496 54.1818L65.203 50.3636H66.8337ZM82.749 50.4929C82.696 50.0223 82.4772 49.6577 82.0928 49.3991C81.7083 49.1373 81.2244 49.0064 80.6411 49.0064C80.2235 49.0064 79.8622 49.0727 79.5573 49.2053C79.2523 49.3345 79.0154 49.5135 78.8463 49.7422C78.6806 49.9676 78.5977 50.2244 78.5977 50.5128C78.5977 50.7547 78.6541 50.9635 78.7668 51.1392C78.8828 51.3149 79.0336 51.4624 79.2192 51.5817C79.4081 51.6977 79.6103 51.7955 79.8257 51.875C80.0412 51.9512 80.2483 52.0142 80.4472 52.0639L81.4415 52.3224C81.7663 52.402 82.0994 52.5097 82.4408 52.6456C82.7822 52.7815 83.0987 52.9605 83.3904 53.1825C83.682 53.4046 83.9173 53.6797 84.0963 54.0078C84.2786 54.3359 84.3698 54.7287 84.3698 55.1861C84.3698 55.7628 84.2206 56.2749 83.9223 56.7223C83.6273 57.1697 83.1981 57.5227 82.6347 57.7812C82.0745 58.0398 81.3968 58.169 80.6013 58.169C79.839 58.169 79.1794 58.0481 78.6226 57.8061C78.0658 57.5642 77.6299 57.2211 77.3151 56.777C77.0002 56.3295 76.8262 55.7992 76.7931 55.1861H78.3343C78.3641 55.554 78.4834 55.8606 78.6922 56.1058C78.9043 56.3478 79.1744 56.5284 79.5026 56.6477C79.834 56.7637 80.1969 56.8217 80.5914 56.8217C81.0255 56.8217 81.4117 56.7538 81.7497 56.6179C82.0911 56.4787 82.3596 56.2865 82.5551 56.0412C82.7507 55.7926 82.8485 55.5026 82.8485 55.1712C82.8485 54.8696 82.7623 54.6226 82.5899 54.4304C82.4209 54.2382 82.1905 54.0791 81.8989 53.9531C81.6105 53.8272 81.2841 53.7161 80.9195 53.62L79.7164 53.2919C78.901 53.0698 78.2547 52.7434 77.7774 52.3125C77.3035 51.8816 77.0665 51.3116 77.0665 50.6023C77.0665 50.0156 77.2256 49.5036 77.5438 49.0661C77.8619 48.6286 78.2928 48.2888 78.8364 48.0469C79.3799 47.8016 79.9931 47.679 80.6759 47.679C81.3653 47.679 81.9735 47.8 82.5004 48.0419C83.0307 48.2839 83.4484 48.617 83.7533 49.0412C84.0582 49.4621 84.2173 49.946 84.2306 50.4929H82.749ZM86.0862 60.8636V50.3636H87.5379V51.6016H87.6622C87.7484 51.4425 87.8727 51.2585 88.0351 51.0497C88.1975 50.8409 88.4229 50.6586 88.7112 50.5028C88.9996 50.3438 89.3807 50.2642 89.8547 50.2642C90.4711 50.2642 91.0213 50.42 91.5052 50.7315C91.9891 51.0431 92.3686 51.4922 92.6437 52.0788C92.9221 52.6655 93.0613 53.3714 93.0613 54.1967C93.0613 55.022 92.9238 55.7296 92.6487 56.3196C92.3736 56.9062 91.9958 57.3587 91.5152 57.6768C91.0346 57.9917 90.4861 58.1491 89.8696 58.1491C89.4056 58.1491 89.0261 58.0713 88.7311 57.9155C88.4394 57.7597 88.2107 57.5774 88.045 57.3686C87.8793 57.1598 87.7517 56.9742 87.6622 56.8118H87.5727V60.8636H86.0862ZM87.5429 54.1818C87.5429 54.7187 87.6208 55.1894 87.7765 55.5938C87.9323 55.9981 88.1577 56.3146 88.4527 56.5433C88.7477 56.7687 89.1089 56.8814 89.5365 56.8814C89.9806 56.8814 90.3518 56.7637 90.6501 56.5284C90.9484 56.2898 91.1738 55.9666 91.3263 55.5589C91.482 55.1513 91.5599 54.6922 91.5599 54.1818C91.5599 53.678 91.4837 53.2256 91.3312 52.8246C91.1821 52.4235 90.9567 52.107 90.6551 51.875C90.3568 51.643 89.9839 51.527 89.5365 51.527C89.1056 51.527 88.741 51.638 88.4427 51.8601C88.1478 52.0821 87.924 52.392 87.7716 52.7898C87.6191 53.1875 87.5429 53.6515 87.5429 54.1818ZM98.018 58.1541C97.2657 58.1541 96.6177 57.9934 96.0741 57.6719C95.5339 57.3471 95.1163 56.8913 94.8213 56.3047C94.5296 55.7147 94.3838 55.0237 94.3838 54.2315C94.3838 53.4493 94.5296 52.7599 94.8213 52.1634C95.1163 51.5668 95.5273 51.1011 96.0542 50.7663C96.5845 50.4316 97.2043 50.2642 97.9136 50.2642C98.3445 50.2642 98.7621 50.3355 99.1665 50.478C99.5708 50.6205 99.9337 50.8442 100.255 51.1491C100.577 51.4541 100.83 51.8501 101.016 52.3374C101.201 52.8213 101.294 53.4096 101.294 54.1023V54.6293H95.224V53.5156H99.8376C99.8376 53.1245 99.7581 52.7782 99.599 52.4766C99.4399 52.1716 99.2162 51.9313 98.9278 51.7557C98.6428 51.58 98.308 51.4922 97.9236 51.4922C97.5059 51.4922 97.1414 51.5949 96.8298 51.8004C96.5216 52.0026 96.2829 52.2678 96.1139 52.5959C95.9482 52.9207 95.8653 53.2737 95.8653 53.6548V54.5249C95.8653 55.0353 95.9548 55.4695 96.1338 55.8274C96.3161 56.1854 96.5696 56.4588 96.8944 56.6477C97.2193 56.8333 97.5988 56.9261 98.0329 56.9261C98.3147 56.9261 98.5715 56.8864 98.8035 56.8068C99.0355 56.724 99.2361 56.6013 99.4051 56.4389C99.5741 56.2765 99.7034 56.076 99.7929 55.8374L101.2 56.0909C101.087 56.5052 100.885 56.8681 100.593 57.1797C100.305 57.4879 99.942 57.7282 99.5045 57.9006C99.0703 58.0696 98.5748 58.1541 98.018 58.1541ZM106.235 58.1541C105.482 58.1541 104.834 57.9934 104.291 57.6719C103.751 57.3471 103.333 56.8913 103.038 56.3047C102.746 55.7147 102.601 55.0237 102.601 54.2315C102.601 53.4493 102.746 52.7599 103.038 52.1634C103.333 51.5668 103.744 51.1011 104.271 50.7663C104.801 50.4316 105.421 50.2642 106.13 50.2642C106.561 50.2642 106.979 50.3355 107.383 50.478C107.788 50.6205 108.151 50.8442 108.472 51.1491C108.794 51.4541 109.047 51.8501 109.233 52.3374C109.418 52.8213 109.511 53.4096 109.511 54.1023V54.6293H103.441V53.5156H108.054C108.054 53.1245 107.975 52.7782 107.816 52.4766C107.657 52.1716 107.433 51.9313 107.145 51.7557C106.86 51.58 106.525 51.4922 106.14 51.4922C105.723 51.4922 105.358 51.5949 105.047 51.8004C104.738 52.0026 104.5 52.2678 104.331 52.5959C104.165 52.9207 104.082 53.2737 104.082 53.6548V54.5249C104.082 55.0353 104.172 55.4695 104.351 55.8274C104.533 56.1854 104.786 56.4588 105.111 56.6477C105.436 56.8333 105.816 56.9261 106.25 56.9261C106.531 56.9261 106.788 56.8864 107.02 56.8068C107.252 56.724 107.453 56.6013 107.622 56.4389C107.791 56.2765 107.92 56.076 108.01 55.8374L109.417 56.0909C109.304 56.5052 109.102 56.8681 108.81 57.1797C108.522 57.4879 108.159 57.7282 107.721 57.9006C107.287 58.0696 106.792 58.1541 106.235 58.1541ZM114.019 58.1491C113.403 58.1491 112.852 57.9917 112.369 57.6768C111.888 57.3587 111.51 56.9062 111.235 56.3196C110.963 55.7296 110.827 55.022 110.827 54.1967C110.827 53.3714 110.965 52.6655 111.24 52.0788C111.518 51.4922 111.9 51.0431 112.383 50.7315C112.867 50.42 113.416 50.2642 114.029 50.2642C114.503 50.2642 114.884 50.3438 115.172 50.5028C115.464 50.6586 115.69 50.8409 115.849 51.0497C116.011 51.2585 116.137 51.4425 116.226 51.6016H116.316V47.8182H117.802V58H116.351V56.8118H116.226C116.137 56.9742 116.008 57.1598 115.839 57.3686C115.673 57.5774 115.444 57.7597 115.153 57.9155C114.861 58.0713 114.483 58.1491 114.019 58.1491ZM114.347 56.8814C114.775 56.8814 115.136 56.7687 115.431 56.5433C115.729 56.3146 115.955 55.9981 116.107 55.5938C116.263 55.1894 116.341 54.7187 116.341 54.1818C116.341 53.6515 116.265 53.1875 116.112 52.7898C115.96 52.392 115.736 52.0821 115.441 51.8601C115.146 51.638 114.781 51.527 114.347 51.527C113.9 51.527 113.527 51.643 113.229 51.875C112.93 52.107 112.705 52.4235 112.552 52.8246C112.403 53.2256 112.329 53.678 112.329 54.1818C112.329 54.6922 112.405 55.1513 112.557 55.5589C112.71 55.9666 112.935 56.2898 113.234 56.5284C113.535 56.7637 113.906 56.8814 114.347 56.8814Z" fill="black"/>
</g>
</svg>
