<svg width="69" height="69" viewBox="0 0 69 69" fill="none" xmlns="http://www.w3.org/2000/svg">
<path d="M34.5 8C37.98 8 41.426 8.68544 44.6411 10.0172C47.8562 11.3489 50.7776 13.3009 53.2383 15.7617C55.6991 18.2224 57.6511 21.1438 58.9828 24.3589C60.3146 27.574 61 31.02 61 34.5C61 37.98 60.3146 41.426 58.9828 44.6411C57.6511 47.8562 55.6991 50.7776 53.2383 53.2383C50.7776 55.6991 47.8562 57.6511 44.6411 58.9828C41.426 60.3146 37.98 61 34.5 61C31.02 61 27.574 60.3146 24.3589 58.9828C21.1438 57.6511 18.2224 55.6991 15.7617 53.2383C13.3009 50.7776 11.3489 47.8562 10.0172 44.6411C8.68544 41.426 8 37.98 8 34.5C8 31.02 8.68545 27.574 10.0172 24.3589C11.3489 21.1437 13.3009 18.2224 15.7617 15.7617C18.2224 13.3009 21.1438 11.3489 24.3589 10.0172C27.574 8.68544 31.02 8 34.5 8L34.5 8Z" stroke="#EAECF0" stroke-width="5" stroke-linecap="round" stroke-linejoin="round"/>
<path d="M34.5 8C40.0963 8 45.5488 9.77166 50.0763 13.0611C54.6038 16.3504 57.9737 20.9887 59.703 26.3111C61.4323 31.6334 61.4323 37.3666 59.703 42.689C57.9737 48.0113 54.6038 52.6496 50.0763 55.939C45.5488 59.2283 40.0962 61 34.5 61C28.9037 61 23.4511 59.2283 18.9237 55.9389C14.3962 52.6496 11.0263 48.0113 9.297 42.6889C7.56767 37.3666 7.56767 31.6334 9.297 26.311" stroke="#222222" stroke-width="5" stroke-linecap="round" stroke-linejoin="round"/>
<path d="M25.9403 39.1193C25.3068 39.1193 24.7443 39.0128 24.2528 38.7997C23.7642 38.5866 23.3807 38.2955 23.1023 37.9261C22.8267 37.554 22.6903 37.1321 22.6932 36.6605C22.6903 36.294 22.7699 35.9574 22.9318 35.6506C23.0938 35.3438 23.3125 35.0881 23.5881 34.8835C23.8665 34.6761 24.1761 34.544 24.517 34.4872V34.4276C24.0682 34.3281 23.7045 34.0994 23.4261 33.7415C23.1506 33.3807 23.0142 32.9645 23.017 32.4929C23.0142 32.044 23.1392 31.6435 23.392 31.2912C23.6449 30.9389 23.9915 30.6619 24.4318 30.4602C24.8722 30.2557 25.375 30.1534 25.9403 30.1534C26.5 30.1534 26.9986 30.2557 27.4361 30.4602C27.8764 30.6619 28.223 30.9389 28.4759 31.2912C28.7315 31.6435 28.8594 32.044 28.8594 32.4929C28.8594 32.9645 28.7188 33.3807 28.4375 33.7415C28.1591 34.0994 27.7997 34.3281 27.3594 34.4276V34.4872C27.7003 34.544 28.0071 34.6761 28.2798 34.8835C28.5554 35.0881 28.7741 35.3438 28.9361 35.6506C29.1009 35.9574 29.1832 36.294 29.1832 36.6605C29.1832 37.1321 29.044 37.554 28.7656 37.9261C28.4872 38.2955 28.1037 38.5866 27.6151 38.7997C27.1293 39.0128 26.571 39.1193 25.9403 39.1193ZM25.9403 37.9006C26.267 37.9006 26.5511 37.8452 26.7926 37.7344C27.0341 37.6207 27.2216 37.4616 27.3551 37.2571C27.4886 37.0526 27.5568 36.8168 27.5597 36.5497C27.5568 36.2713 27.4844 36.0256 27.3423 35.8125C27.2031 35.5966 27.0114 35.4276 26.767 35.3054C26.5256 35.1832 26.25 35.1222 25.9403 35.1222C25.6278 35.1222 25.3494 35.1832 25.1051 35.3054C24.8608 35.4276 24.6676 35.5966 24.5256 35.8125C24.3864 36.0256 24.3182 36.2713 24.321 36.5497C24.3182 36.8168 24.3835 37.0526 24.517 37.2571C24.6506 37.4588 24.8381 37.6165 25.0795 37.7301C25.3239 37.8437 25.6108 37.9006 25.9403 37.9006ZM25.9403 33.9247C26.2074 33.9247 26.4432 33.8707 26.6477 33.7628C26.8551 33.6548 27.0185 33.5043 27.1378 33.3111C27.2571 33.1179 27.3182 32.8949 27.321 32.642C27.3182 32.392 27.2585 32.1733 27.142 31.9858C27.0256 31.7955 26.8636 31.6491 26.6562 31.5469C26.4489 31.4418 26.2102 31.3892 25.9403 31.3892C25.6648 31.3892 25.4219 31.4418 25.2116 31.5469C25.0043 31.6491 24.8423 31.7955 24.7259 31.9858C24.6122 32.1733 24.5568 32.392 24.5597 32.642C24.5568 32.8949 24.6136 33.1179 24.7301 33.3111C24.8494 33.5014 25.0128 33.652 25.2202 33.7628C25.4304 33.8707 25.6705 33.9247 25.9403 33.9247ZM33.81 39.1662C33.1083 39.1662 32.506 38.9886 32.0032 38.6335C31.5032 38.2756 31.1183 37.7599 30.8484 37.0866C30.5813 36.4105 30.4478 35.5966 30.4478 34.6449C30.4506 33.6932 30.5856 32.8835 30.8526 32.2159C31.1225 31.5455 31.5075 31.0341 32.0075 30.6818C32.5103 30.3295 33.1112 30.1534 33.81 30.1534C34.5089 30.1534 35.1097 30.3295 35.6126 30.6818C36.1154 31.0341 36.5004 31.5455 36.7674 32.2159C37.0373 32.8864 37.1722 33.696 37.1722 34.6449C37.1722 35.5994 37.0373 36.4148 36.7674 37.0909C36.5004 37.7642 36.1154 38.2784 35.6126 38.6335C35.1126 38.9886 34.5117 39.1662 33.81 39.1662ZM33.81 37.8324C34.3555 37.8324 34.7859 37.5639 35.1012 37.027C35.4194 36.4872 35.5785 35.6932 35.5785 34.6449C35.5785 33.9517 35.506 33.3693 35.3612 32.8977C35.2163 32.4261 35.0117 32.071 34.7475 31.8324C34.4833 31.5909 34.1708 31.4702 33.81 31.4702C33.2674 31.4702 32.8384 31.7401 32.5231 32.2798C32.2077 32.8168 32.0487 33.6051 32.0458 34.6449C32.043 35.3409 32.1126 35.9261 32.2546 36.4006C32.3995 36.875 32.604 37.233 32.8683 37.4744C33.1325 37.7131 33.4464 37.8324 33.81 37.8324ZM43.2543 37.3636V36.9034C43.2543 36.5653 43.3253 36.2543 43.4673 35.9702C43.6122 35.6861 43.8224 35.4574 44.098 35.2841C44.3736 35.1108 44.7074 35.0241 45.0994 35.0241C45.5028 35.0241 45.8409 35.1108 46.1136 35.2841C46.3864 35.4545 46.5923 35.6818 46.7315 35.9659C46.8736 36.25 46.9446 36.5625 46.9446 36.9034V37.3636C46.9446 37.7017 46.8736 38.0128 46.7315 38.2969C46.5895 38.581 46.3807 38.8097 46.1051 38.983C45.8324 39.1563 45.4972 39.2429 45.0994 39.2429C44.7017 39.2429 44.3651 39.1563 44.0895 38.983C43.8139 38.8097 43.6051 38.581 43.4631 38.2969C43.3239 38.0128 43.2543 37.7017 43.2543 37.3636ZM44.3665 36.9034V37.3636C44.3665 37.5881 44.4205 37.794 44.5284 37.9815C44.6364 38.169 44.8267 38.2628 45.0994 38.2628C45.375 38.2628 45.5639 38.1705 45.6662 37.9858C45.7713 37.7983 45.8239 37.5909 45.8239 37.3636V36.9034C45.8239 36.6761 45.7741 36.4688 45.6747 36.2812C45.5753 36.0909 45.3835 35.9957 45.0994 35.9957C44.8324 35.9957 44.6435 36.0909 44.5327 36.2812C44.4219 36.4688 44.3665 36.6761 44.3665 36.9034ZM38.8182 32.3693V31.9091C38.8182 31.5682 38.8906 31.2557 39.0355 30.9716C39.1804 30.6875 39.3906 30.4602 39.6662 30.2898C39.9418 30.1165 40.2756 30.0298 40.6676 30.0298C41.0682 30.0298 41.4048 30.1165 41.6776 30.2898C41.9531 30.4602 42.1605 30.6875 42.2997 30.9716C42.4389 31.2557 42.5085 31.5682 42.5085 31.9091V32.3693C42.5085 32.7102 42.4375 33.0227 42.2955 33.3068C42.1563 33.5881 41.9489 33.8139 41.6733 33.9844C41.3977 34.1548 41.0625 34.2401 40.6676 34.2401C40.267 34.2401 39.929 34.1548 39.6534 33.9844C39.3807 33.8139 39.1733 33.5866 39.0312 33.3026C38.8892 33.0185 38.8182 32.7074 38.8182 32.3693ZM39.9389 31.9091V32.3693C39.9389 32.5966 39.9915 32.804 40.0966 32.9915C40.2045 33.1761 40.3949 33.2685 40.6676 33.2685C40.9403 33.2685 41.1278 33.1761 41.2301 32.9915C41.3352 32.804 41.3878 32.5966 41.3878 32.3693V31.9091C41.3878 31.6818 41.3381 31.4744 41.2386 31.2869C41.1392 31.0966 40.9489 31.0014 40.6676 31.0014C40.3977 31.0014 40.2088 31.0966 40.1009 31.2869C39.9929 31.4773 39.9389 31.6847 39.9389 31.9091ZM39.304 39L45.304 30.2727H46.3693L40.3693 39H39.304Z" fill="#101828"/>
</svg>
