<svg width="146" height="20" viewBox="0 0 146 20" fill="none" xmlns="http://www.w3.org/2000/svg">
<g clip-path="url(#clip0_274_3577)">
<rect x="110" width="36" height="20" rx="10" fill="#ACA0F8"/>
<g filter="url(#filter0_dd_274_3577)">
<circle cx="136" cy="10" r="8" fill="white"/>
</g>
</g>
<path d="M6.73242 7.4929C6.67939 7.02225 6.46064 6.65767 6.07617 6.39915C5.6917 6.13731 5.2078 6.00639 4.62447 6.00639C4.20685 6.00639 3.84558 6.07268 3.54066 6.20526C3.23574 6.33452 2.99876 6.51349 2.82972 6.74219C2.664 6.96757 2.58114 7.22443 2.58114 7.51278C2.58114 7.75473 2.63749 7.96354 2.75018 8.1392C2.86618 8.31487 3.01699 8.46236 3.20259 8.58168C3.39151 8.69768 3.59369 8.79545 3.80913 8.875C4.02456 8.95123 4.23171 9.0142 4.43058 9.06392L5.42489 9.32244C5.7497 9.40199 6.0828 9.50971 6.42418 9.6456C6.76557 9.78149 7.08209 9.96046 7.37376 10.1825C7.66542 10.4046 7.90075 10.6797 8.07972 11.0078C8.26201 11.3359 8.35316 11.7287 8.35316 12.1861C8.35316 12.7628 8.20401 13.2749 7.90572 13.7223C7.61074 14.1697 7.18152 14.5227 6.61808 14.7812C6.05794 15.0398 5.38015 15.169 4.58469 15.169C3.82238 15.169 3.16282 15.0481 2.606 14.8061C2.04918 14.5642 1.61334 14.2211 1.29847 13.777C0.983606 13.3295 0.8096 12.7992 0.776456 12.1861H2.31765C2.34748 12.554 2.4668 12.8606 2.6756 13.1058C2.88772 13.3478 3.15785 13.5284 3.48597 13.6477C3.81741 13.7637 4.18034 13.8217 4.57475 13.8217C5.00894 13.8217 5.39506 13.7538 5.73313 13.6179C6.07451 13.4787 6.34298 13.2865 6.53853 13.0412C6.73408 12.7926 6.83185 12.5026 6.83185 12.1712C6.83185 11.8696 6.74568 11.6226 6.57333 11.4304C6.4043 11.2382 6.17395 11.0791 5.88228 10.9531C5.59393 10.8272 5.26746 10.7161 4.90288 10.62L3.69975 10.2919C2.88441 10.0698 2.2381 9.74337 1.76083 9.3125C1.28687 8.88163 1.04989 8.31155 1.04989 7.60227C1.04989 7.01562 1.20898 6.50355 1.52717 6.06605C1.84535 5.62855 2.27622 5.28883 2.81978 5.04688C3.36334 4.80161 3.9765 4.67898 4.65927 4.67898C5.34866 4.67898 5.95685 4.79995 6.48384 5.0419C7.01415 5.28385 7.43176 5.61695 7.73668 6.04119C8.04161 6.46212 8.2007 6.94602 8.21396 7.4929H6.73242ZM13.2862 15.1541C12.5703 15.1541 11.9455 14.9901 11.4119 14.6619C10.8783 14.3338 10.464 13.8748 10.169 13.2848C9.87405 12.6948 9.72656 12.0054 9.72656 11.2166C9.72656 10.4245 9.87405 9.73177 10.169 9.13849C10.464 8.54522 10.8783 8.08452 11.4119 7.75639C11.9455 7.42827 12.5703 7.2642 13.2862 7.2642C14.0021 7.2642 14.6269 7.42827 15.1605 7.75639C15.6941 8.08452 16.1084 8.54522 16.4034 9.13849C16.6984 9.73177 16.8459 10.4245 16.8459 11.2166C16.8459 12.0054 16.6984 12.6948 16.4034 13.2848C16.1084 13.8748 15.6941 14.3338 15.1605 14.6619C14.6269 14.9901 14.0021 15.1541 13.2862 15.1541ZM13.2912 13.9062C13.7552 13.9062 14.1397 13.7836 14.4446 13.5384C14.7495 13.2931 14.9749 12.9666 15.1207 12.5589C15.2699 12.1513 15.3445 11.7022 15.3445 11.2116C15.3445 10.7244 15.2699 10.277 15.1207 9.86932C14.9749 9.45833 14.7495 9.12855 14.4446 8.87997C14.1397 8.63139 13.7552 8.5071 13.2912 8.5071C12.8239 8.5071 12.4361 8.63139 12.1278 8.87997C11.8229 9.12855 11.5959 9.45833 11.4467 9.86932C11.3009 10.277 11.228 10.7244 11.228 11.2116C11.228 11.7022 11.3009 12.1513 11.4467 12.5589C11.5959 12.9666 11.8229 13.2931 12.1278 13.5384C12.4361 13.7836 12.8239 13.9062 13.2912 13.9062ZM22.1394 7.36364V8.55682H17.824V7.36364H22.1394ZM19.0073 15V6.47869C19.0073 6.00142 19.1117 5.60535 19.3205 5.29048C19.5293 4.9723 19.806 4.73532 20.1507 4.57955C20.4954 4.42045 20.87 4.34091 21.2743 4.34091C21.5726 4.34091 21.8278 4.36577 22.04 4.41548C22.2521 4.46188 22.4095 4.50497 22.5123 4.54474L22.1642 5.74787C22.0946 5.72798 22.0051 5.70478 21.8958 5.67827C21.7864 5.64844 21.6538 5.63352 21.498 5.63352C21.1368 5.63352 20.8783 5.72301 20.7225 5.90199C20.57 6.08097 20.4938 6.33949 20.4938 6.67756V15H19.0073ZM27.2377 7.36364V8.55682H23.0666V7.36364H27.2377ZM24.1852 5.53409H25.6717V12.7578C25.6717 13.0462 25.7148 13.2633 25.801 13.4091C25.8871 13.5516 25.9982 13.6494 26.1341 13.7024C26.2733 13.7521 26.4241 13.777 26.5865 13.777C26.7058 13.777 26.8102 13.7687 26.8997 13.7521C26.9892 13.7356 27.0588 13.7223 27.1085 13.7124L27.377 14.9403C27.2908 14.9735 27.1681 15.0066 27.0091 15.0398C26.85 15.0762 26.6511 15.0961 26.4125 15.0994C26.0214 15.1061 25.6568 15.0365 25.3187 14.8906C24.9806 14.7448 24.7072 14.5194 24.4984 14.2145C24.2896 13.9096 24.1852 13.5268 24.1852 13.0661V5.53409ZM32.745 11.6989H34.2564L35.3203 13.0859L35.8224 13.7024L37.5178 15.9148H35.9467L34.8132 14.4382L34.4254 13.9013L32.745 11.6989ZM37.8459 9.90909C37.8459 10.9962 37.647 11.9309 37.2493 12.7131C36.8516 13.492 36.3063 14.0919 35.6136 14.5128C34.9242 14.9304 34.1404 15.1392 33.2621 15.1392C32.3804 15.1392 31.5933 14.9304 30.9006 14.5128C30.2112 14.0919 29.6676 13.4903 29.2699 12.7081C28.8722 11.9259 28.6733 10.9929 28.6733 9.90909C28.6733 8.82197 28.8722 7.88897 29.2699 7.11008C29.6676 6.32789 30.2112 5.72798 30.9006 5.31037C31.5933 4.88944 32.3804 4.67898 33.2621 4.67898C34.1404 4.67898 34.9242 4.88944 35.6136 5.31037C36.3063 5.72798 36.8516 6.32789 37.2493 7.11008C37.647 7.88897 37.8459 8.82197 37.8459 9.90909ZM36.3246 9.90909C36.3246 9.08049 36.1903 8.38281 35.9219 7.81605C35.6567 7.24598 35.2921 6.8151 34.8281 6.52344C34.3674 6.22846 33.8454 6.08097 33.2621 6.08097C32.6754 6.08097 32.1518 6.22846 31.6911 6.52344C31.2304 6.8151 30.8658 7.24598 30.5973 7.81605C30.3321 8.38281 30.1996 9.08049 30.1996 9.90909C30.1996 10.7377 30.3321 11.437 30.5973 12.0071C30.8658 12.5739 31.2304 13.0047 31.6911 13.2997C32.1518 13.5914 32.6754 13.7372 33.2621 13.7372C33.8454 13.7372 34.3674 13.5914 34.8281 13.2997C35.2921 13.0047 35.6567 12.5739 35.9219 12.0071C36.1903 11.437 36.3246 10.7377 36.3246 9.90909ZM40.1154 15H38.4847L42.1488 4.81818H43.9237L47.5877 15H45.957L43.0785 6.66761H42.9989L40.1154 15ZM40.3888 11.0128H45.6786V12.3054H40.3888V11.0128Z" fill="#111111"/>
<defs>
<filter id="filter0_dd_274_3577" x="125" y="0" width="22" height="22" filterUnits="userSpaceOnUse" color-interpolation-filters="sRGB">
<feFlood flood-opacity="0" result="BackgroundImageFix"/>
<feColorMatrix in="SourceAlpha" type="matrix" values="0 0 0 0 0 0 0 0 0 0 0 0 0 0 0 0 0 0 127 0" result="hardAlpha"/>
<feOffset dy="1"/>
<feGaussianBlur stdDeviation="1"/>
<feColorMatrix type="matrix" values="0 0 0 0 0.0627451 0 0 0 0 0.0941176 0 0 0 0 0.156863 0 0 0 0.06 0"/>
<feBlend mode="normal" in2="BackgroundImageFix" result="effect1_dropShadow_274_3577"/>
<feColorMatrix in="SourceAlpha" type="matrix" values="0 0 0 0 0 0 0 0 0 0 0 0 0 0 0 0 0 0 127 0" result="hardAlpha"/>
<feOffset dy="1"/>
<feGaussianBlur stdDeviation="1.5"/>
<feColorMatrix type="matrix" values="0 0 0 0 0.0627451 0 0 0 0 0.0941176 0 0 0 0 0.156863 0 0 0 0.1 0"/>
<feBlend mode="normal" in2="effect1_dropShadow_274_3577" result="effect2_dropShadow_274_3577"/>
<feBlend mode="normal" in="SourceGraphic" in2="effect2_dropShadow_274_3577" result="shape"/>
</filter>
<clipPath id="clip0_274_3577">
<rect x="110" width="36" height="20" rx="10" fill="white"/>
</clipPath>
</defs>
</svg>
