<svg width="84" height="72" viewBox="0 0 84 72" fill="none" xmlns="http://www.w3.org/2000/svg">
<path d="M0.5 18C0.5 8.33502 8.33502 0.5 18 0.5H66C75.665 0.5 83.5 8.33502 83.5 18V54C83.5 63.665 75.665 71.5 66 71.5H18C8.33502 71.5 0.5 63.665 0.5 54V18Z" stroke="white"/>
<path d="M28.6669 52.3626C29.6712 52.6668 31.0276 52.6668 33.3335 52.6668H50.6668C52.9727 52.6668 54.3292 52.6668 55.3335 52.3626M28.6669 52.3626C28.4515 52.2973 28.2524 52.2181 28.0635 52.1219C27.1227 51.6425 26.3578 50.8776 25.8785 49.9368C25.3335 48.8672 25.3335 47.4671 25.3335 44.6668V27.3335C25.3335 24.5332 25.3335 23.1331 25.8785 22.0635C26.3578 21.1227 27.1227 20.3578 28.0635 19.8785C29.1331 19.3335 30.5332 19.3335 33.3335 19.3335H50.6668C53.4671 19.3335 54.8672 19.3335 55.9368 19.8785C56.8776 20.3578 57.6425 21.1227 58.1219 22.0635C58.6668 23.1331 58.6668 24.5332 58.6668 27.3335V44.6668C58.6668 47.4671 58.6668 48.8672 58.1219 49.9368C57.6425 50.8776 56.8776 51.6425 55.9368 52.1219C55.7479 52.2181 55.5488 52.2973 55.3335 52.3626M28.6669 52.3626C28.6674 51.0137 28.6755 50.2999 28.7949 49.6996C29.321 47.055 31.3883 44.9876 34.0329 44.4616C34.6769 44.3335 35.4513 44.3335 37.0002 44.3335H47.0002C48.549 44.3335 49.3234 44.3335 49.9674 44.4616C52.612 44.9876 54.6794 47.055 55.2054 49.6996C55.3248 50.2999 55.3329 51.0137 55.3335 52.3626M48.6668 31.8335C48.6668 35.5154 45.6821 38.5002 42.0002 38.5002C38.3183 38.5002 35.3335 35.5154 35.3335 31.8335C35.3335 28.1516 38.3183 25.1668 42.0002 25.1668C45.6821 25.1668 48.6668 28.1516 48.6668 31.8335Z" stroke="white" stroke-width="2" stroke-linecap="round" stroke-linejoin="round"/>
</svg>
