<svg width="84" height="72" viewBox="0 0 84 72" fill="none" xmlns="http://www.w3.org/2000/svg">
<path d="M0.5 18C0.5 8.33502 8.33502 0.5 18 0.5H66C75.665 0.5 83.5 8.33502 83.5 18V54C83.5 63.665 75.665 71.5 66 71.5H18C8.33502 71.5 0.5 63.665 0.5 54V18Z" stroke="black"/>
<path d="M40.3335 23.5002H52.5002C54.367 23.5002 55.3004 23.5002 56.0135 23.8635C56.6407 24.1831 57.1506 24.693 57.4702 25.3202C57.8335 26.0332 57.8335 26.9667 57.8335 28.8335V31.0002C57.8335 32.5533 57.8335 33.3299 57.5798 33.9424C57.2414 34.7592 56.5925 35.4081 55.7758 35.7464C55.1632 36.0002 54.3866 36.0002 52.8335 36.0002M43.6668 48.5002H31.5002C29.6333 48.5002 28.6999 48.5002 27.9869 48.1369C27.3597 47.8173 26.8497 47.3073 26.5301 46.6801C26.1668 45.9671 26.1668 45.0337 26.1668 43.1668V41.0002C26.1668 39.447 26.1668 38.6705 26.4206 38.0579C26.7589 37.2411 27.4078 36.5922 28.2246 36.2539C28.8371 36.0002 29.6137 36.0002 31.1668 36.0002M39.1668 40.1668H44.8335C45.3002 40.1668 45.5336 40.1668 45.7118 40.076C45.8686 39.9961 45.9961 39.8686 46.076 39.7118C46.1668 39.5336 46.1668 39.3002 46.1668 38.8335V33.1668C46.1668 32.7001 46.1668 32.4668 46.076 32.2885C45.9961 32.1317 45.8686 32.0042 45.7118 31.9243C45.5336 31.8335 45.3002 31.8335 44.8335 31.8335H39.1668C38.7001 31.8335 38.4668 31.8335 38.2885 31.9243C38.1317 32.0042 38.0042 32.1317 37.9243 32.2885C37.8335 32.4668 37.8335 32.7001 37.8335 33.1668V38.8335C37.8335 39.3002 37.8335 39.5336 37.9243 39.7118C38.0042 39.8686 38.1317 39.9961 38.2885 40.076C38.4668 40.1668 38.7001 40.1668 39.1668 40.1668ZM51.6668 52.6668H57.3335C57.8002 52.6668 58.0336 52.6668 58.2118 52.576C58.3686 52.4961 58.4961 52.3686 58.576 52.2118C58.6668 52.0336 58.6668 51.8002 58.6668 51.3335V45.6668C58.6668 45.2001 58.6668 44.9668 58.576 44.7885C58.4961 44.6317 58.3686 44.5042 58.2118 44.4243C58.0336 44.3335 57.8002 44.3335 57.3335 44.3335H51.6668C51.2001 44.3335 50.9668 44.3335 50.7885 44.4243C50.6317 44.5042 50.5042 44.6317 50.4243 44.7885C50.3335 44.9668 50.3335 45.2001 50.3335 45.6668V51.3335C50.3335 51.8002 50.3335 52.0336 50.4243 52.2118C50.5042 52.3686 50.6317 52.4961 50.7885 52.576C50.9668 52.6668 51.2001 52.6668 51.6668 52.6668ZM26.6668 27.6668H32.3335C32.8002 27.6668 33.0336 27.6668 33.2118 27.576C33.3686 27.4961 33.4961 27.3686 33.576 27.2118C33.6668 27.0336 33.6668 26.8002 33.6668 26.3335V20.6668C33.6668 20.2001 33.6668 19.9668 33.576 19.7885C33.4961 19.6317 33.3686 19.5042 33.2118 19.4243C33.0336 19.3335 32.8002 19.3335 32.3335 19.3335H26.6668C26.2001 19.3335 25.9668 19.3335 25.7885 19.4243C25.6317 19.5042 25.5042 19.6317 25.4243 19.7885C25.3335 19.9668 25.3335 20.2001 25.3335 20.6668V26.3335C25.3335 26.8002 25.3335 27.0336 25.4243 27.2118C25.5042 27.3686 25.6317 27.4961 25.7885 27.576C25.9668 27.6668 26.2001 27.6668 26.6668 27.6668Z" stroke="black" stroke-width="2" stroke-linecap="round" stroke-linejoin="round"/>
</svg>
