<svg width="84" height="72" viewBox="0 0 84 72" fill="none" xmlns="http://www.w3.org/2000/svg">
<path d="M0.5 18C0.5 8.33502 8.33502 0.5 18 0.5H66C75.665 0.5 83.5 8.33502 83.5 18V54C83.5 63.665 75.665 71.5 66 71.5H18C8.33502 71.5 0.5 63.665 0.5 54V18Z" stroke="black"/>
<path d="M56.1666 28.1296L41.9999 35.9999M41.9999 35.9999L27.8333 28.1296M41.9999 35.9999L42 51.8333M57 42.7642V29.2357C57 28.6646 57 28.3791 56.9159 28.1244C56.8414 27.8992 56.7197 27.6924 56.5589 27.5179C56.3772 27.3206 56.1276 27.182 55.6284 26.9046L43.2951 20.0528C42.8224 19.7902 42.586 19.6589 42.3358 19.6074C42.1142 19.5619 41.8858 19.5619 41.6643 19.6074C41.414 19.6589 41.1776 19.7902 40.705 20.0528L28.3716 26.9046C27.8724 27.182 27.6228 27.3206 27.4411 27.5179C27.2803 27.6924 27.1586 27.8992 27.0841 28.1245C27 28.3791 27 28.6647 27 29.2357V42.7642C27 43.3353 27 43.6208 27.0841 43.8755C27.1586 44.1008 27.2803 44.3076 27.4411 44.4821C27.6228 44.6793 27.8724 44.818 28.3716 45.0953L40.705 51.9472C41.1776 52.2098 41.414 52.3411 41.6643 52.3925C41.8858 52.4381 42.1142 52.4381 42.3358 52.3925C42.586 52.3411 42.8224 52.2098 43.2951 51.9472L55.6284 45.0953C56.1276 44.818 56.3772 44.6793 56.5589 44.4821C56.7197 44.3076 56.8414 44.1008 56.9159 43.8755C57 43.6208 57 43.3353 57 42.7642Z" stroke="black" stroke-width="2" stroke-linecap="round" stroke-linejoin="round"/>
</svg>
