<svg width="84" height="72" viewBox="0 0 84 72" fill="none" xmlns="http://www.w3.org/2000/svg">
<path d="M0.5 18C0.5 8.33502 8.33502 0.5 18 0.5H66C75.665 0.5 83.5 8.33502 83.5 18V54C83.5 63.665 75.665 71.5 66 71.5H18C8.33502 71.5 0.5 63.665 0.5 54V18Z" stroke="black"/>
<path d="M52.9515 49.3332C55.0548 49.3332 56.7615 47.6282 56.7615 45.5232V37.9048L58.6665 35.9998L56.7615 34.0948V26.4765C56.7615 24.3715 55.0565 22.6665 52.9515 22.6665M31.0485 22.6665C28.9435 22.6665 27.2385 24.3715 27.2385 26.4765V34.0948L25.3335 35.9998L27.2385 37.9048V45.5232C27.2385 47.6282 28.9435 49.3332 31.0485 49.3332M34.5002 35.9998H34.5168M42.0002 35.9998H42.0168M49.5002 35.9998H49.5168M35.3335 35.9998C35.3335 36.4601 34.9604 36.8332 34.5002 36.8332C34.0399 36.8332 33.6668 36.4601 33.6668 35.9998C33.6668 35.5396 34.0399 35.1665 34.5002 35.1665C34.9604 35.1665 35.3335 35.5396 35.3335 35.9998ZM42.8335 35.9998C42.8335 36.4601 42.4604 36.8332 42.0002 36.8332C41.5399 36.8332 41.1668 36.4601 41.1668 35.9998C41.1668 35.5396 41.5399 35.1665 42.0002 35.1665C42.4604 35.1665 42.8335 35.5396 42.8335 35.9998ZM50.3335 35.9998C50.3335 36.4601 49.9604 36.8332 49.5002 36.8332C49.0399 36.8332 48.6668 36.4601 48.6668 35.9998C48.6668 35.5396 49.0399 35.1665 49.5002 35.1665C49.9604 35.1665 50.3335 35.5396 50.3335 35.9998Z" stroke="black" stroke-width="2" stroke-linecap="round" stroke-linejoin="round"/>
</svg>
