<svg width="84" height="72" viewBox="0 0 84 72" fill="none" xmlns="http://www.w3.org/2000/svg">
<path d="M0.5 18C0.5 8.33502 8.33502 0.5 18 0.5H66C75.665 0.5 83.5 8.33502 83.5 18V54C83.5 63.665 75.665 71.5 66 71.5H18C8.33502 71.5 0.5 63.665 0.5 54V18Z" stroke="black"/>
<path d="M34.5002 23.5002C34.5002 21.199 36.3656 19.3335 38.6668 19.3335C40.968 19.3335 42.8335 21.199 42.8335 23.5002V26.0002H44.5002C46.8299 26.0002 47.9947 26.0002 48.9136 26.3808C50.1387 26.8882 51.1121 27.8616 51.6196 29.0867C52.0002 30.0056 52.0002 31.1705 52.0002 33.5002H54.5002C56.8013 33.5002 58.6668 35.3656 58.6668 37.6668C58.6668 39.968 56.8013 41.8335 54.5002 41.8335H52.0002V44.6668C52.0002 47.4671 52.0002 48.8672 51.4552 49.9368C50.9758 50.8776 50.2109 51.6425 49.2701 52.1219C48.2006 52.6668 46.8004 52.6668 44.0002 52.6668H42.8335V49.7502C42.8335 47.6791 41.1546 46.0002 39.0835 46.0002C37.0124 46.0002 35.3335 47.6791 35.3335 49.7502V52.6668H33.3335C30.5332 52.6668 29.1331 52.6668 28.0635 52.1219C27.1227 51.6425 26.3578 50.8776 25.8785 49.9368C25.3335 48.8672 25.3335 47.4671 25.3335 44.6668V41.8335H27.8335C30.1347 41.8335 32.0002 39.968 32.0002 37.6668C32.0002 35.3656 30.1347 33.5002 27.8335 33.5002H25.3335C25.3335 31.1705 25.3335 30.0056 25.7141 29.0867C26.2216 27.8616 27.1949 26.8882 28.4201 26.3808C29.3389 26.0002 30.5038 26.0002 32.8335 26.0002H34.5002V23.5002Z" stroke="black" stroke-width="2" stroke-linecap="round" stroke-linejoin="round"/>
</svg>
