<svg width="84" height="72" viewBox="0 0 84 72" fill="none" xmlns="http://www.w3.org/2000/svg">
<path d="M0.5 18C0.5 8.33502 8.33502 0.5 18 0.5H66C75.665 0.5 83.5 8.33502 83.5 18V54C83.5 63.665 75.665 71.5 66 71.5H18C8.33502 71.5 0.5 63.665 0.5 54V18Z" stroke="black"/>
<path d="M57.3335 52.6668C57.8002 52.6668 58.0336 52.6668 58.2118 52.576C58.3686 52.4961 58.4961 52.3686 58.576 52.2118C58.6668 52.0336 58.6668 51.8002 58.6668 51.3335V34.0002C58.6668 33.5335 58.6668 33.3001 58.576 33.1218C58.4961 32.965 58.3686 32.8376 58.2118 32.7577C58.0336 32.6668 57.8002 32.6668 57.3335 32.6668L53.3335 32.6668C52.8668 32.6668 52.6334 32.6668 52.4552 32.7577C52.2984 32.8376 52.1709 32.965 52.091 33.1218C52.0002 33.3001 52.0002 33.5335 52.0002 34.0002V38.0002C52.0002 38.4669 52.0002 38.7002 51.9093 38.8785C51.8294 39.0353 51.702 39.1628 51.5452 39.2427C51.3669 39.3335 51.1335 39.3335 50.6668 39.3335H46.6668C46.2001 39.3335 45.9668 39.3335 45.7885 39.4243C45.6317 39.5042 45.5042 39.6317 45.4243 39.7885C45.3335 39.9668 45.3335 40.2001 45.3335 40.6668V44.6668C45.3335 45.1335 45.3335 45.3669 45.2427 45.5452C45.1628 45.702 45.0353 45.8294 44.8785 45.9093C44.7002 46.0002 44.4669 46.0002 44.0002 46.0002H40.0002C39.5335 46.0002 39.3001 46.0002 39.1218 46.091C38.965 46.1709 38.8376 46.2984 38.7577 46.4552C38.6668 46.6334 38.6668 46.8668 38.6668 47.3335V51.3335C38.6668 51.8002 38.6668 52.0336 38.7577 52.2118C38.8376 52.3686 38.965 52.4961 39.1218 52.576C39.3001 52.6668 39.5335 52.6668 40.0002 52.6668L57.3335 52.6668Z" stroke="black" stroke-width="2" stroke-linecap="round" stroke-linejoin="round"/>
<path d="M38.6668 27.3335C38.6668 26.8668 38.6668 26.6334 38.7577 26.4552C38.8376 26.2984 38.965 26.1709 39.1218 26.091C39.3001 26.0002 39.5335 26.0002 40.0002 26.0002H44.0002C44.4669 26.0002 44.7002 26.0002 44.8785 26.091C45.0353 26.1709 45.1628 26.2984 45.2427 26.4552C45.3335 26.6334 45.3335 26.8668 45.3335 27.3335V31.3335C45.3335 31.8002 45.3335 32.0336 45.2427 32.2118C45.1628 32.3686 45.0353 32.4961 44.8785 32.576C44.7002 32.6668 44.4669 32.6668 44.0002 32.6668H40.0002C39.5335 32.6668 39.3001 32.6668 39.1218 32.576C38.965 32.4961 38.8376 32.3686 38.7577 32.2118C38.6668 32.0336 38.6668 31.8002 38.6668 31.3335V27.3335Z" stroke="black" stroke-width="2" stroke-linecap="round" stroke-linejoin="round"/>
<path d="M27.0002 37.3335C27.0002 36.8668 27.0002 36.6334 27.091 36.4552C27.1709 36.2984 27.2984 36.1709 27.4552 36.091C27.6334 36.0002 27.8668 36.0002 28.3335 36.0002H32.3335C32.8002 36.0002 33.0336 36.0002 33.2118 36.091C33.3686 36.1709 33.4961 36.2984 33.576 36.4552C33.6668 36.6334 33.6668 36.8668 33.6668 37.3335V41.3335C33.6668 41.8002 33.6668 42.0336 33.576 42.2118C33.4961 42.3686 33.3686 42.4961 33.2118 42.576C33.0336 42.6668 32.8002 42.6668 32.3335 42.6668H28.3335C27.8668 42.6668 27.6334 42.6668 27.4552 42.576C27.2984 42.4961 27.1709 42.3686 27.091 42.2118C27.0002 42.0336 27.0002 41.8002 27.0002 41.3335V37.3335Z" stroke="black" stroke-width="2" stroke-linecap="round" stroke-linejoin="round"/>
<path d="M25.3335 20.6668C25.3335 20.2001 25.3335 19.9668 25.4243 19.7885C25.5042 19.6317 25.6317 19.5042 25.7885 19.4243C25.9668 19.3335 26.2001 19.3335 26.6668 19.3335H30.6668C31.1335 19.3335 31.3669 19.3335 31.5452 19.4243C31.702 19.5042 31.8294 19.6317 31.9093 19.7885C32.0002 19.9668 32.0002 20.2001 32.0002 20.6668V24.6668C32.0002 25.1335 32.0002 25.3669 31.9093 25.5452C31.8294 25.702 31.702 25.8294 31.5452 25.9093C31.3669 26.0002 31.1335 26.0002 30.6668 26.0002H26.6668C26.2001 26.0002 25.9668 26.0002 25.7885 25.9093C25.6317 25.8294 25.5042 25.702 25.4243 25.5452C25.3335 25.3669 25.3335 25.1335 25.3335 24.6668V20.6668Z" stroke="black" stroke-width="2" stroke-linecap="round" stroke-linejoin="round"/>
</svg>
