<svg width="84" height="72" viewBox="0 0 84 72" fill="none" xmlns="http://www.w3.org/2000/svg">
<path d="M0.5 18C0.5 8.33502 8.33502 0.5 18 0.5H66C75.665 0.5 83.5 8.33502 83.5 18V54C83.5 63.665 75.665 71.5 66 71.5H18C8.33502 71.5 0.5 63.665 0.5 54V18Z" stroke="black"/>
<path d="M57 45.9999L55.3331 47.8233C54.4491 48.7902 53.2502 49.3333 52.0002 49.3333C50.7502 49.3333 49.5513 48.7902 48.6673 47.8233C47.782 46.8585 46.5833 46.3167 45.3336 46.3167C44.084 46.3167 42.8852 46.8585 42 47.8233M27 49.3333H29.7909C30.6062 49.3333 31.0139 49.3333 31.3975 49.2412C31.7376 49.1595 32.0628 49.0248 32.361 48.8421C32.6974 48.6359 32.9856 48.3477 33.5621 47.7712L54.5 26.8333C55.8808 25.4526 55.8808 23.214 54.5 21.8333C53.1193 20.4526 50.8808 20.4526 49.5 21.8333L28.5621 42.7712C27.9856 43.3477 27.6973 43.6359 27.4912 43.9723C27.3084 44.2706 27.1738 44.5957 27.0921 44.9358C27 45.3195 27 45.7271 27 46.5424V49.3333Z" stroke="#2E2F30" stroke-width="2" stroke-linecap="round" stroke-linejoin="round"/>
</svg>
