<svg width="84" height="72" viewBox="0 0 84 72" fill="none" xmlns="http://www.w3.org/2000/svg">
<path d="M0.5 18C0.5 8.33502 8.33502 0.5 18 0.5H66C75.665 0.5 83.5 8.33502 83.5 18V54C83.5 63.665 75.665 71.5 66 71.5H18C8.33502 71.5 0.5 63.665 0.5 54V18Z" stroke="black"/>
<path d="M57.833 46L46.7616 36M37.2378 36L26.1664 46M25.333 27.6666L38.9412 37.1924C40.0432 37.9637 40.5941 38.3494 41.1934 38.4988C41.7228 38.6308 42.2765 38.6308 42.8059 38.4988C43.4052 38.3494 43.9562 37.9637 45.0581 37.1924L58.6663 27.6666M33.333 49.3333H50.6663C53.4666 49.3333 54.8667 49.3333 55.9363 48.7883C56.8771 48.309 57.642 47.5441 58.1214 46.6032C58.6663 45.5337 58.6663 44.1336 58.6663 41.3333V30.6666C58.6663 27.8664 58.6663 26.4662 58.1214 25.3967C57.642 24.4559 56.8771 23.691 55.9363 23.2116C54.8667 22.6666 53.4666 22.6666 50.6663 22.6666H33.333C30.5327 22.6666 29.1326 22.6666 28.0631 23.2116C27.1222 23.691 26.3573 24.4559 25.878 25.3967C25.333 26.4662 25.333 27.8664 25.333 30.6666V41.3333C25.333 44.1336 25.333 45.5337 25.878 46.6032C26.3573 47.5441 27.1222 48.309 28.0631 48.7883C29.1326 49.3333 30.5327 49.3333 33.333 49.3333Z" stroke="#2E2F30" stroke-width="2" stroke-linecap="round" stroke-linejoin="round"/>
</svg>
