<svg width="84" height="72" viewBox="0 0 84 72" fill="none" xmlns="http://www.w3.org/2000/svg">
<path d="M0.5 18C0.5 8.33502 8.33502 0.5 18 0.5H66C75.665 0.5 83.5 8.33502 83.5 18V54C83.5 63.665 75.665 71.5 66 71.5H18C8.33502 71.5 0.5 63.665 0.5 54V18Z" stroke="black"/>
<path d="M38.6668 45.431V49.3334C38.6668 51.1743 40.1592 52.6667 42.0002 52.6667C43.8411 52.6667 45.3335 51.1743 45.3335 49.3334V45.431M42.0002 19.3334V21M27.0002 36H25.3335M31.1668 25.1667L30.1667 24.1665M52.8335 25.1667L53.8339 24.1665M58.6668 36H57.0002M52.0002 36C52.0002 41.5229 47.523 46 42.0002 46C36.4773 46 32.0002 41.5229 32.0002 36C32.0002 30.4772 36.4773 26 42.0002 26C47.523 26 52.0002 30.4772 52.0002 36Z" stroke="#2E2F30" stroke-width="2" stroke-linecap="round" stroke-linejoin="round"/>
</svg>
