<svg width="84" height="72" viewBox="0 0 84 72" fill="none" xmlns="http://www.w3.org/2000/svg">
<path d="M0.5 18C0.5 8.33502 8.33502 0.5 18 0.5H66C75.665 0.5 83.5 8.33502 83.5 18V54C83.5 63.665 75.665 71.5 66 71.5H18C8.33502 71.5 0.5 63.665 0.5 54V18Z" stroke="black"/>
<path d="M57 51L51.1668 45.1667M55.3333 35.1667C55.3333 42.9907 48.9907 49.3333 41.1667 49.3333C33.3426 49.3333 27 42.9907 27 35.1667C27 27.3426 33.3426 21 41.1667 21C48.9907 21 55.3333 27.3426 55.3333 35.1667Z" stroke="#2E2F30" stroke-width="2" stroke-linecap="round" stroke-linejoin="round"/>
</svg>
