<?xml version="1.0" encoding="UTF-8"?>
<svg id="Layer_1" data-name="Layer 1" xmlns="http://www.w3.org/2000/svg" viewBox="0 0 1920 1080">
  <defs>
    <style>
      .cls-1 {
        fill:rgb(236, 198, 149);
      }
    </style>
  </defs>
  <g>
    <g>
      <path d="M1165.92,537.04c0-1.7.6-3.13,1.8-4.3,1.2-1.17,2.87-1.76,5.02-1.76,1.15,0,2.32.24,3.51.72,1.19.48,2.38,1.03,3.57,1.67,1.19.63,2.37,1.19,3.53,1.67,1.16.48,2.29.72,3.38.72,1.4,0,2.5-.31,3.28-.94.78-.62,1.41-1.73,1.9-3.31.08-.18.17-.3.28-.37.11-.07.22-.09.34-.07.14.02.24.09.32.2.08.12.1.29.06.53-.33,1.99-.82,3.57-1.46,4.73-.64,1.16-1.43,1.99-2.37,2.49-.94.5-2.03.75-3.28.75-1.01,0-1.96-.16-2.84-.48-.88-.32-1.76-.84-2.63-1.55-.88-.71-1.83-1.65-2.87-2.82-1.11-1.01-2.01-1.73-2.71-2.15-.69-.42-1.33-.63-1.92-.63-.82,0-1.44.34-1.87,1.01-.43.67-.67,1.84-.73,3.5-.04.76-.16,1.37-.37,1.81-.2.45-.47.77-.8.97-.33.19-.72.29-1.17.29-.57,0-1.03-.23-1.4-.7-.37-.47-.56-1.12-.56-1.96ZM1168.94,533.06l-.7-.67,7.87-6.47c2.69-2.17,4.82-4.18,6.39-6.04,1.57-1.86,2.7-3.71,3.38-5.54.68-1.83,1.02-3.78,1.02-5.85,0-2.2-.35-4.04-1.04-5.52-.69-1.47-1.64-2.58-2.84-3.31-1.2-.73-2.56-1.1-4.08-1.1-2.59,0-4.53.68-5.79,2.03-1.27,1.36-1.9,3-1.9,4.93v2.52c0,.84-.21,1.48-.64,1.93-.43.45-.99.67-1.67.67s-1.22-.23-1.61-.7c-.39-.47-.59-1.15-.59-2.05,0-1.79.5-3.47,1.49-5.03.99-1.56,2.44-2.83,4.35-3.8,1.9-.98,4.18-1.46,6.83-1.46s4.74.46,6.5,1.39c1.76.93,3.1,2.19,4.02,3.79.93,1.6,1.39,3.42,1.39,5.47,0,1.89-.4,3.71-1.19,5.46-.79,1.75-2.14,3.6-4.05,5.56-1.91,1.96-4.55,4.22-7.93,6.77l-9.22,7.02Z"/>
      <path d="M1212.24,497.59c3.1,0,5.76.84,7.97,2.52,2.21,1.68,3.92,4.09,5.11,7.24,1.19,3.15,1.78,6.93,1.78,11.34s-.62,8.28-1.87,11.44-3,5.56-5.27,7.21c-2.26,1.65-4.9,2.47-7.9,2.47s-5.82-.85-8.03-2.56c-2.21-1.71-3.9-4.15-5.05-7.33-1.15-3.18-1.73-6.98-1.73-11.41s.61-8.06,1.84-11.18c1.23-3.12,2.97-5.53,5.22-7.21,2.25-1.69,4.89-2.53,7.91-2.53ZM1222.69,519.71c0-4.88-.41-8.87-1.23-11.97-.82-3.1-2.02-5.39-3.6-6.88s-3.49-2.22-5.74-2.22-4.11.72-5.66,2.15c-1.55,1.43-2.74,3.55-3.56,6.35-.82,2.8-1.23,6.26-1.23,10.37,0,4.96.41,9,1.23,12.13.82,3.13,2.01,5.43,3.58,6.91,1.57,1.47,3.49,2.21,5.75,2.21,2.09,0,3.92-.67,5.49-2.02,1.57-1.35,2.79-3.43,3.66-6.25.87-2.82,1.3-6.41,1.3-10.78Z"/>
      <path d="M1232.58,500.99c-.14-.1-.2-.24-.2-.44,0-.18.07-.32.22-.42.15-.11.36-.16.63-.16l4.89-.06c.99-.02,1.79-.18,2.4-.47.6-.29,1.16-.91,1.67-1.84.12-.23.24-.41.38-.51.14-.11.29-.16.47-.16.43,0,.64.27.64.82v38.27c0,.45.12.8.35,1.05.23.25.6.42,1.11.5l4.51.58c.47.08.7.25.7.53,0,.16-.05.28-.16.37-.11.09-.3.13-.57.13h-16.59c-.23,0-.42-.05-.56-.15-.14-.1-.2-.22-.2-.38,0-.29.25-.48.76-.56l4.83-.53c.47-.08.84-.24,1.11-.48.27-.24.41-.59.41-1.04v-33.36c0-.57-.1-.95-.29-1.16s-.52-.31-.97-.31l-4.92-.09c-.27,0-.48-.05-.61-.15Z"/>
      <path d="M1269.77,497.59c3.1,0,5.76.84,7.97,2.52,2.21,1.68,3.92,4.09,5.11,7.24,1.19,3.15,1.78,6.93,1.78,11.34s-.62,8.28-1.87,11.44c-1.25,3.16-3,5.56-5.27,7.21-2.26,1.65-4.9,2.47-7.9,2.47s-5.82-.85-8.03-2.56c-2.21-1.71-3.9-4.15-5.05-7.33-1.15-3.18-1.73-6.98-1.73-11.41s.61-8.06,1.84-11.18,2.97-5.53,5.22-7.21c2.25-1.69,4.89-2.53,7.91-2.53ZM1280.22,519.71c0-4.88-.41-8.87-1.23-11.97-.82-3.1-2.02-5.39-3.6-6.88s-3.49-2.22-5.74-2.22-4.11.72-5.66,2.15c-1.55,1.43-2.74,3.55-3.56,6.35-.82,2.8-1.23,6.26-1.23,10.37,0,4.96.41,9,1.23,12.13.82,3.13,2.01,5.43,3.58,6.91,1.57,1.47,3.49,2.21,5.75,2.21,2.09,0,3.92-.67,5.49-2.02,1.57-1.35,2.79-3.43,3.66-6.25.87-2.82,1.3-6.41,1.3-10.78Z"/>
    </g>
    <g>
      <path d="M617.77,498.41c0-.16.05-.27.16-.35.11-.08.28-.12.51-.12h22.5c.45,0,.84-.1,1.17-.29s.62-.39.88-.57c.25-.19.49-.28.7-.28.19,0,.35.06.47.18s.21.34.29.67l2.25,8.4c.06.19.06.36,0,.48-.06.13-.18.21-.35.25-.18.04-.34.03-.48-.04-.15-.07-.28-.21-.39-.42-.68-1.52-1.31-2.75-1.87-3.69-.57-.94-1.13-1.66-1.7-2.18-.57-.52-1.17-.87-1.81-1.05-.64-.19-1.39-.28-2.22-.28h-11.41v36.87c0,.59.19,1.02.59,1.32.39.29.99.44,1.81.44h9.57c1.17,0,2.16-.21,2.96-.64.8-.43,1.6-1.3,2.4-2.6.8-1.31,1.73-3.29,2.78-5.94.1-.18.2-.3.32-.38s.25-.11.41-.09c.18.02.3.1.38.23.08.14.08.33,0,.59l-2.46,10.12c-.08.33-.18.57-.31.7-.13.14-.3.2-.51.2-.25,0-.51-.09-.78-.26-.26-.18-.58-.35-.95-.51-.37-.17-.85-.25-1.43-.25h-22.79c-.23,0-.41-.04-.51-.13-.11-.09-.16-.2-.16-.34,0-.29.21-.48.64-.56l2.6-.38c.39-.06.69-.18.89-.37.2-.19.31-.43.31-.75v-35.93c0-.31-.1-.56-.31-.75s-.5-.31-.89-.37l-2.6-.38c-.43-.08-.64-.26-.64-.56ZM624.99,517.84h10.74c1.27,0,2.16-.27,2.68-.8.52-.54.8-1.54.86-3,.02-.19.07-.35.15-.47.08-.12.19-.19.35-.21.31-.06.53.14.64.59l2.37,8.34c.06.21.06.38.01.5-.05.12-.16.2-.34.26-.14.02-.27,0-.41-.06s-.25-.17-.35-.32c-.53-.99-1.01-1.76-1.46-2.28-.45-.53-.95-.89-1.51-1.08s-1.23-.29-2.03-.29h-11.7v-1.17Z"/>
      <path d="M667.95,539.7c-1.91,0-3.52-.25-4.81-.76-1.3-.51-2.32-1.01-3.06-1.51-.74-.5-1.25-.75-1.52-.75-.19,0-.36.15-.5.45-.14.3-.27.65-.41,1.05-.14.4-.28.75-.42,1.05s-.33.45-.54.45c-.16,0-.29-.05-.4-.16-.11-.11-.19-.27-.25-.48l-2.4-9.8c-.04-.18-.03-.34.03-.48s.17-.25.32-.31c.18-.06.33-.05.47.03.14.08.25.22.35.41,1.03,2.32,2.24,4.18,3.61,5.59,1.38,1.4,2.86,2.43,4.45,3.07,1.59.64,3.22.97,4.9.97,2.36,0,4.22-.67,5.59-2.02,1.36-1.35,2.05-3.14,2.05-5.38.02-1.33-.27-2.58-.86-3.76-.6-1.18-1.66-2.31-3.2-3.39-1.54-1.08-3.74-2.14-6.58-3.17-2.87-1.07-5.16-2.23-6.89-3.47-1.73-1.24-2.98-2.61-3.75-4.13-.77-1.51-1.16-3.2-1.16-5.08,0-2.18.52-4.09,1.55-5.72,1.03-1.63,2.44-2.9,4.23-3.8,1.78-.91,3.82-1.36,6.1-1.36,1.91,0,3.46.23,4.65.7,1.19.47,2.12.94,2.79,1.42.67.48,1.17.72,1.51.72.29,0,.52-.23.67-.7.16-.47.32-.94.48-1.4.17-.47.38-.7.66-.7.16,0,.29.04.4.13.11.09.2.27.28.54l2.93,10.27c.06.19.06.38,0,.54-.06.17-.18.28-.35.34-.16.06-.31.05-.45-.01-.15-.07-.27-.2-.37-.39-1.15-2.54-2.4-4.55-3.75-6.04-1.35-1.49-2.8-2.56-4.36-3.22s-3.2-.98-4.92-.98c-2.48,0-4.49.72-6.04,2.17s-2.33,3.43-2.33,5.97c0,1.39.3,2.69.91,3.92s1.66,2.4,3.17,3.51c1.51,1.11,3.61,2.18,6.31,3.22,3.04,1.13,5.43,2.32,7.17,3.57,1.74,1.25,2.97,2.59,3.7,4.04.73,1.44,1.09,3.02,1.07,4.74,0,1.87-.43,3.58-1.29,5.11-.86,1.53-2.11,2.75-3.75,3.66-1.64.91-3.64,1.36-6,1.36Z"/>
      <path d="M688.78,497.94h22c.47,0,.85-.09,1.16-.28.3-.19.57-.37.8-.56.23-.19.46-.28.67-.28s.39.06.53.18c.14.12.24.34.32.67l1.96,9.19c.06.25.05.46-.01.61-.07.16-.19.25-.37.29-.18.02-.33-.01-.47-.1-.14-.09-.25-.24-.35-.45-.84-2.36-1.6-4.12-2.28-5.27-.68-1.15-1.4-1.91-2.17-2.28s-1.69-.56-2.78-.56h-5.79v37.28c0,.31.1.56.31.75.2.19.51.31.92.37l2.6.38c.41.08.61.26.61.56,0,.31-.22.47-.67.47h-11.79c-.21,0-.38-.04-.5-.13-.12-.09-.18-.2-.18-.34,0-.29.21-.48.64-.56l2.6-.38c.39-.06.69-.18.89-.37.2-.19.31-.43.31-.75v-37.28h-5.79c-1.11,0-2.05.2-2.81.59-.76.39-1.47,1.17-2.14,2.33s-1.41,2.89-2.25,5.19c-.08.21-.19.37-.34.45-.15.09-.31.12-.48.1-.2-.04-.32-.14-.38-.29-.06-.16-.06-.36,0-.61l1.93-9.19c.1-.33.21-.56.35-.67s.3-.18.5-.18c.23,0,.45.09.64.28.19.19.43.37.7.56.27.19.63.28,1.08.28Z"/>
      <path d="M720.24,539.35c-.55,0-1.04-.15-1.48-.44s-.79-.67-1.05-1.14c-.26-.47-.4-.98-.4-1.52,0-.59.13-1.12.4-1.6.26-.48.62-.85,1.07-1.13.45-.27.94-.41,1.46-.41.57,0,1.07.14,1.51.42.44.28.79.66,1.04,1.13.25.47.38.99.38,1.55s-.13,1.08-.38,1.55c-.25.47-.6.85-1.04,1.14-.44.29-.94.44-1.51.44Z"/>
      <path d="M728.52,538.44c0-.29.21-.48.61-.56l2.66-.38c.39-.06.68-.18.88-.37.19-.19.29-.43.29-.75v-35.87c0-.35-.1-.62-.29-.8-.2-.19-.49-.31-.88-.37l-2.66-.38c-.41-.1-.61-.28-.61-.56,0-.16.05-.27.16-.35.11-.08.28-.12.51-.12h12.35c3.61,0,6.89.53,9.83,1.58,2.95,1.05,5.48,2.55,7.59,4.49,2.12,1.94,3.74,4.24,4.87,6.89,1.13,2.65,1.7,5.58,1.7,8.78,0,3.84-.85,7.2-2.55,10.08-1.7,2.88-4.1,5.12-7.21,6.73-3.11,1.61-6.79,2.41-11.05,2.41h-15.54c-.23,0-.41-.04-.51-.13-.11-.09-.16-.2-.16-.34ZM744.7,537.77c3.3,0,6.16-.71,8.6-2.12,2.44-1.41,4.34-3.49,5.69-6.23,1.36-2.74,2.03-6.11,2.03-10.11,0-3.08-.45-5.87-1.35-8.35-.9-2.49-2.2-4.61-3.91-6.38-1.71-1.76-3.78-3.12-6.22-4.07-2.44-.95-5.2-1.42-8.28-1.42h-4.07v37.04c0,.55.17.96.51,1.23.34.27.87.41,1.59.41h5.38Z"/>
    </g>
  </g>
  <g>
    <g>
      <g>
        <path d="M1363.86,579.63c-21.28,2.39-39.2,13.62-51.41,32.26-7.41,11.33-12.66,25.48-15.21,41.11-3.21,19.6-2.45,41.68,2.07,59.75,6.36,25.36,19.73,44.51,38.31,54.95,7.48,4.2,16.16,7,25.61,8.24,3.85.51,13.87.51,17.82.03,12.57-1.59,24.5-6.3,33.72-13.33,19.66-15.02,31.62-40.72,34.04-73.27.67-9.13.35-22.18-.83-31.27-3.44-27.2-14.25-49.35-30.73-63.09-10.15-8.49-23.13-13.87-36.91-15.37-3.56-.41-12.98-.38-16.48,0ZM1376.58,581.22c9.64,1.18,18.36,5.66,26.22,13.46,16.89,16.8,26.28,46.45,26.28,83.07,0,29.46-6.04,54.47-17.4,71.9-8.81,13.55-20.43,21.98-33.31,24.21-4.3.76-11.42.48-15.53-.64-21.32-5.69-37.67-27.9-44.13-60-2.2-10.85-2.9-18.13-3.12-31.72-.19-11.96.1-18.77,1.21-27.46,3.15-24.98,11.17-44.8,23.48-57.97,10.31-11.01,23.58-16.45,36.3-14.86Z"/>
        <path d="M533.31,581.38c-10.21,1.05-18.9,3.44-26.73,7.32-13.94,6.94-22.68,18.2-25.17,32.42-.73,4.3-.73,12.34,0,16.23,2.67,14,11.04,24.75,26.53,33.98,8.37,5,17.72,9.19,36.75,16.48,15.46,5.92,20.2,7.89,27.43,11.42,13.62,6.68,21.57,13.43,25.39,21.63,2.13,4.55,2.58,6.65,2.58,12.09s-.64,8.34-2.83,12.92c-6.14,12.73-21,22.14-40.41,25.61-4.84.86-15.65,1.18-20.55.6-19.76-2.26-35.57-12.12-45.15-28.09-4.58-7.67-7.95-18.04-9.39-28.98-.25-2.04-.48-4.36-.48-5.15,0-1.4-.32-1.69-1.24-1.11-.29.19-1.65,9.13-4.68,30.61-2.32,16.7-4.33,30.96-4.42,31.69-.19,1.3-.16,1.37.6,1.37s.83-.13.83-1.24c0-3.56,1.91-11.23,3.82-15.18,1.34-2.74,3.4-5.03,4.96-5.41,1.59-.41,3.91.73,11.2,5.54,7.99,5.25,12.76,8.08,16.89,9.99,12.73,5.89,23.64,8.3,37.57,8.3,15.49.03,28.25-2.8,40.09-8.88,5.06-2.61,9.23-5.57,12.89-9.19,3.91-3.88,5.85-6.55,8.3-11.45,3.53-7.13,4.96-15.08,4.23-23.42-1.56-18.29-12.89-31.56-37.03-43.36-6.97-3.44-12.73-5.85-28-11.8-15.78-6.17-20.62-8.21-27.52-11.64-9-4.49-14.95-8.53-19.6-13.39-5.95-6.2-8.59-12.12-8.94-20.14-.89-20.04,13.59-33.88,39.04-37.45,4.36-.6,17.31-.51,21.73.16,8.4,1.27,15.3,3.31,21.41,6.24,10.31,4.96,16.19,11.23,17.75,18.87,1.08,5.22.57,6.27-4.74,10.28-5.66,4.26-7.32,6.9-7.7,12.09-.48,7,3.15,12.06,9.51,13.24,6.97,1.27,13.55-3.66,15.75-11.8.73-2.74.73-10.59,0-13.9-2.93-12.92-11.61-22.88-25.99-29.81-5.03-2.42-8.46-3.66-14.19-5.12-7.25-1.88-11.96-2.45-21.13-2.55-4.45-.06-8.69-.03-9.39.03Z"/>
        <path d="M698.27,583.26c0,.06,2,4.77,4.49,10.4,2.51,5.79,4.39,10.56,4.33,10.91-.1.54-62.23,138.97-64.71,144.25-2.2,4.65-7.54,11.23-12.31,15.21-4.65,3.88-8.78,6.08-12.03,6.39-1.43.13-1.53.19-1.53,1.05v.92h41.04v-.95c0-.95-.03-.95-1.65-.95-5.35,0-10.63-3.4-12.38-7.89-1.5-3.88-1.05-9.51,1.11-13.9,1.34-2.7,5.57-9.51,7.89-12.66,14.22-19.44,32.2-32.42,52.15-37.73,6.62-1.78,10.63-2.32,18.29-2.48,9.54-.22,16.61.67,23.67,3.02l2.64.86,11.1,25.13c6.11,13.81,11.52,26.38,12.03,27.87,1.75,5.15,1.88,9.35.32,12.41-.83,1.59-3.4,3.82-5.28,4.52-.86.35-2.8.67-4.33.76l-2.8.19v1.81h60.13v-.95c0-.95-.03-.95-1.69-.95-5.76,0-14.13-4.3-18.77-9.64-3.15-3.6-4.8-6.59-9.86-18.1-2.74-6.17-19.73-44.57-37.73-85.36l-32.74-74.13-10.69-.1c-5.89-.03-10.69,0-10.69.1ZM728.15,651.53c10.72,24.5,19.57,44.8,19.66,45.15.16.54,0,.54-2.51-.16-8.27-2.32-18.04-3.18-26.82-2.39-10.82,1.02-20.23,3.69-30.26,8.62-13.24,6.49-25.23,16.48-35.16,29.27-1.4,1.75-2.51,3.09-2.51,2.96s12.63-28.22,28.06-62.45c15.43-34.23,28.38-62.99,28.76-63.92.41-.89.86-1.65.99-1.65.16,0,9.04,20.08,19.79,44.57Z"/>
        <path d="M838.9,584.02c0,.95.03.99,1.53.99,2.48,0,5.79.86,8.49,2.2,4.33,2.13,7.38,5.66,9,10.37l.86,2.55.1,76.77c.06,85.14.22,79.09-2.04,83.71-1.43,2.93-4.52,6.11-7.35,7.6-2.42,1.27-6.27,2.29-8.75,2.29q-1.85,0-1.85.95v.95h60.45v-.95q0-.95-1.85-.95c-2.48,0-5.12-.7-8.21-2.23-4.52-2.23-7.86-6.52-9.26-11.96-.54-2.04-.57-4.68-.57-36.72v-34.52l7.95-.1c12.85-.16,19.92.57,26.63,2.67,9.89,3.12,18.01,9.77,23.67,19.41,3.91,6.65,6.33,12.92,10.94,28.28,4.01,13.39,5.54,17.66,8.18,22.78,4.33,8.46,9.39,12.95,16.86,14.99,3.66.99,10.72,1.02,14.19,0,6.87-1.97,13.2-6.52,17.5-12.5,1.59-2.26,1.75-2.67,1.05-2.93-.25-.1-.89.45-1.56,1.34-1.59,2.07-4.8,5.12-6.9,6.49-2.61,1.75-5.12,2.55-7.95,2.58-3.25.03-5.12-.83-7.6-3.5-3.6-3.82-5.31-7.7-10.82-24.53-4.23-12.92-6.65-19.18-9.74-25.33-8.27-16.45-19.82-26.12-35.22-29.46-1.69-.35-4.1-.76-5.35-.86-2.64-.25-2.39-.51.99-1.05,1.34-.22,4.3-.86,6.52-1.43,17.28-4.49,30.26-14.03,37.19-27.3,3.72-7.13,5.09-13.36,4.84-21.98-.13-4.8-.25-5.92-1.11-9.13-1.56-5.76-3.18-9.42-6.36-14.19-5.19-7.73-12.47-13.81-22.02-18.39-7.99-3.82-15.72-5.89-26.73-7.22-2.04-.25-14.99-.41-39.36-.51l-36.37-.13v.95ZM915.26,585.77c5.82,1.15,11.58,3.53,16.23,6.65,3.25,2.2,8.11,6.97,10.5,10.34,9.26,12.98,11.8,31.94,6.46,48.58-2.55,7.89-6.14,13.87-11.68,19.44-6.24,6.24-12.47,9.64-21.44,11.61-2.9.67-4.1.7-19.53.83l-16.48.16v-98.41l16.64.13c13.97.1,17.05.22,19.31.67Z"/>
        <path d="M1095.68,588.89c1.4,3.21,3.5,7.99,4.61,10.59l2.1,4.77-32.77,72.95c-37.1,82.53-34.04,76.39-41.26,83.61-5.79,5.85-10.88,9.07-15.11,9.58-1.5.16-1.59.25-1.59,1.08v.92h40.72v-.92c0-.89-.03-.89-2.35-1.08-5.44-.41-10.02-3.66-11.64-8.3-.8-2.2-.86-6.74-.13-9.54.86-3.37,4.2-9.32,9.04-16.1,14.64-20.46,34.2-34.17,55.68-38.94,6.81-1.5,10.85-1.88,19.09-1.69,8.3.19,12.41.8,18.83,2.77l3.37,1.05,11.36,25.74c6.27,14.16,11.74,26.85,12.19,28.19.67,2.04.83,3.05.83,6.11.03,3.37-.03,3.79-.83,5.28-1.78,3.34-5,5.22-9.51,5.47l-2.83.16v1.81h60.13v-1.81l-2.61-.19c-8.65-.67-17.18-6.65-22.3-15.65-.76-1.4-18.23-40.6-38.75-87.11l-37.29-84.53h-21.48l2.51,5.79ZM1123.2,651.66c10.75,24.47,19.63,44.8,19.73,45.11.16.54.1.6-.38.41-1.56-.64-8.11-2.13-11.49-2.64-5.66-.83-16.61-.76-22.53.16-15.53,2.42-29.84,8.88-42.95,19.34-4.52,3.63-12.63,11.77-16.07,16.16q-4.3,5.5-2.93,2.42c7.41-16.89,56.6-125.64,56.79-125.58.16.03,9.07,20.11,19.82,44.61Z"/>
        <path d="M1252.09,759.55c-1.18,2-2.13,3.82-2.13,3.98s.95,1.94,2.1,3.95l2.13,3.66h8.65l2.16-3.79,2.16-3.82-2.16-3.82-2.16-3.82-4.3-.03h-4.3l-2.16,3.69Z"/>
      </g>
      <path class="cls-1" d="M950.74,185.5c-7.82.51-17.39,1.89-24.56,3.5-43.1,9.77-80.98,37.91-105.59,78.44-20.97,34.52-30.31,76.1-26.22,116.71,5.02,49.68,29.75,94.33,68.31,123.35,21.62,16.29,47.45,27.07,73.95,30.88,8.41,1.21,13.44,1.55,23.43,1.55,13.1,0,21.11-.93,32.09-3.67,36.78-9.23,61.36-34.07,67.29-68,1.33-7.68,1.89-19.33,1.27-26.53-1.19-13.6-4.8-25.4-11.04-36.07-4.06-6.97-7.71-11.6-14.54-18.43-11.29-11.32-23.77-19.81-44.31-30.17-11.46-5.79-19.31-9.26-31.05-13.8-18.18-7.03-26.67-10.64-37.4-16-27.52-13.75-41.18-27.8-45.16-46.4-.79-3.61-1.07-12.19-.59-16.54,1.58-13.77,7.79-25.54,18.04-34.15,12.73-10.7,30.71-17.16,52.64-18.91,6.13-.48,20.75-.17,26.73.56,29.1,3.58,51.71,14.25,62.27,29.41,4.83,6.89,7.11,17.13,4.85,21.56-.96,1.86-3.22,3.95-7.71,7.11-6.07,4.29-8.33,6.63-10.39,10.73-1.72,3.39-2.29,6.07-2.29,10.81-.03,4.77.34,6.49,2.15,10.16,3.36,6.89,11.49,11.04,19.5,9.91,8.86-1.24,15.83-7.08,19.11-16.09,2.57-7,2.91-16.63.99-26.22-3.3-16.29-13.63-30.68-29.78-41.46-16.54-11.06-38.36-18.01-62.35-19.84-5.67-.42-18.57-.34-24.3.14-24.13,2.12-45.19,9.74-60.38,21.85-18.69,14.93-28,36.44-26.53,61.25,1.47,24.73,13.97,44.12,39.06,60.49,11.77,7.68,25.32,14.34,46.43,22.81,17.36,6.97,38.56,17.22,51.23,24.78,26.02,15.52,40.87,32.43,45.87,52.19,1.5,5.93,1.83,8.86,1.81,16.46,0,7.51-.37,11.04-1.72,16.79-6.15,26.19-26.9,43.81-58.51,49.68-16.57,3.1-39.35,2.2-57.86-2.26-7.23-1.75-12-3.61-18.52-7.25-34.52-19.14-55.01-58.29-61.5-117.5-1.47-13.44-1.95-23.96-1.95-41.92,0-15.61.2-21.73,1.13-33.02,2.65-32.94,9.26-59.92,19.98-82,6.89-14.11,13.55-23.71,23.29-33.48,7.28-7.28,13.83-12.25,22.19-16.82,29.44-16.17,69.75-16.2,100.32-.06,36.3,19.19,59.33,58.57,67.49,115.42,4.43,30.85,4.43,69.04-.03,99.78-2.29,15.75-6.04,31.42-10.39,43.07-.76,2.09-1.21,3.95-1.55,6.46-2.88,21.17-11.71,38.81-26.53,52.98-3.9,3.73-3.78,3.7,2.94-.28,21.42-12.73,39.94-30.29,53.97-51.23,24.27-36.19,34.46-80.64,28.71-125.38-6.49-50.75-33.67-97.07-73.75-125.72-24.3-17.42-51.99-27.46-81.23-29.52-3.75-.25-15.81-.31-19.28-.08Z"/>
      <g>
        <path d="M822.83,818.44c0-.18.07-.31.21-.4.14-.09.36-.13.64-.13h40.13c.71,0,1.33-.19,1.84-.56.52-.37.97-.74,1.36-1.1.39-.36.77-.53,1.12-.53.21,0,.39.06.53.19.14.13.27.4.37.83l3.9,14.53c.07.25.06.45-.03.61-.09.16-.24.26-.45.29-.21,0-.42-.04-.62-.13-.2-.09-.35-.28-.45-.56-1-2.56-1.91-4.64-2.73-6.23-.82-1.58-1.66-2.81-2.51-3.66-.85-.85-1.81-1.43-2.86-1.74-1.05-.3-2.29-.45-3.71-.45h-24.63v68.99c0,.96.34,1.67,1.02,2.14.68.46,1.76.7,3.26.7h21.32c2.03,0,3.68-.35,4.94-1.04,1.26-.69,2.48-2.16,3.66-4.41,1.18-2.24,2.58-5.65,4.22-10.21.11-.25.22-.44.35-.56.12-.12.28-.19.45-.19.28,0,.46.1.53.29.07.2.07.47,0,.83l-4.22,17.58c-.11.43-.25.72-.43.88-.18.16-.37.24-.59.24-.43,0-.86-.16-1.28-.48s-.94-.64-1.55-.96c-.61-.32-1.41-.48-2.4-.48h-40.56c-.29,0-.5-.05-.64-.16-.14-.11-.21-.23-.21-.37,0-.36.32-.57.96-.64l5.34-.75c.68-.07,1.19-.27,1.55-.59.36-.32.53-.75.53-1.28v-67.22c0-.53-.18-.96-.53-1.28-.36-.32-.87-.52-1.55-.59l-5.34-.75c-.64-.07-.96-.28-.96-.64ZM833.25,854.88h21.59c2.17,0,3.7-.46,4.57-1.39.87-.93,1.27-2.65,1.2-5.18,0-.25.03-.46.11-.64.07-.18.21-.28.43-.32.43-.14.73.14.91.86l4.11,14.27c.11.29.12.51.03.67-.09.16-.24.26-.45.29-.18.04-.35,0-.51-.13-.16-.12-.31-.28-.45-.45-.82-1.74-1.59-3.08-2.3-4.01-.71-.93-1.52-1.57-2.43-1.92-.91-.36-2.04-.53-3.39-.53h-23.4v-1.5Z"/>
        <path d="M903.84,893.41h-.53c-.39,0-.71-.1-.96-.29-.25-.2-.45-.49-.59-.88l-16.14-41.63c-.46-1.21-.94-2.11-1.42-2.7-.48-.59-1.1-.93-1.84-1.04l-2.51-.37c-.46-.07-.78-.17-.96-.29-.18-.12-.27-.29-.27-.51,0-.18.08-.32.24-.43s.37-.16.61-.16h16.3c.6,0,.91.2.91.59,0,.21-.07.37-.21.48-.14.11-.43.2-.85.27l-2.73.43c-2,.32-3.17.83-3.53,1.52-.36.69-.21,1.86.43,3.5l14.8,38.69-.53-.05,15.18-38.63c.68-1.64.84-2.81.48-3.53-.36-.71-1.57-1.21-3.63-1.5l-2.94-.43c-.39-.07-.67-.16-.83-.27s-.24-.27-.24-.48c0-.18.08-.32.24-.43s.38-.16.67-.16h15.12c.25,0,.45.05.62.16s.24.25.24.43c0,.21-.09.38-.27.51-.18.13-.52.22-1.02.29l-2.51.37c-.68.11-1.26.45-1.76,1.02-.5.57-.98,1.48-1.44,2.73l-16.78,41.68c-.14.43-.31.72-.51.88-.2.16-.47.24-.83.24Z"/>
        <path d="M970.53,862.79c0,.68-.22,1.18-.67,1.52-.45.34-1.11.51-2,.51h-34.36v-1.28h31.58c1.1,0,1.66-.48,1.66-1.44,0-5.02-1.26-9.05-3.77-12.08-2.51-3.03-5.92-4.54-10.23-4.54-3.63,0-6.76.96-9.38,2.89-2.62,1.92-4.63,4.58-6.04,7.96-1.41,3.38-2.11,7.25-2.11,11.6,0,7.37,1.75,13.12,5.26,17.23,3.51,4.11,7.99,6.17,13.44,6.17,3.85,0,7.19-1.1,10.02-3.31,2.83-2.21,4.59-5.06,5.26-8.55.07-.25.15-.43.24-.53.09-.11.22-.16.4-.16.21,0,.37.07.48.21.11.14.14.34.11.59-.43,2.71-1.46,5.13-3.1,7.27-1.64,2.14-3.71,3.83-6.23,5.08-2.51,1.25-5.3,1.87-8.36,1.87-4.27,0-7.99-.97-11.14-2.91-3.15-1.94-5.58-4.7-7.27-8.28-1.69-3.58-2.54-7.81-2.54-12.69s.89-9.05,2.67-12.93c1.78-3.88,4.27-6.98,7.45-9.3,3.19-2.31,6.92-3.47,11.19-3.47,3.38,0,6.39.78,9,2.35,2.62,1.57,4.68,3.75,6.17,6.55,1.5,2.8,2.24,6.03,2.24,9.7Z"/>
        <path d="M989.18,845.85v43.18c0,.5.18.91.53,1.23s.86.53,1.5.64l3.69.53c.71.11,1.07.36,1.07.75,0,.36-.3.53-.91.53h-15.34c-.25,0-.45-.05-.59-.16-.14-.11-.21-.23-.21-.37,0-.18.08-.32.24-.43s.4-.18.72-.21l3.95-.64c.64-.11,1.14-.31,1.5-.62.36-.3.53-.7.53-1.2v-39.33c0-.39-.08-.69-.24-.88-.16-.2-.45-.29-.88-.29h-5.4c-.29,0-.5-.04-.64-.13-.14-.09-.21-.2-.21-.35s.06-.27.19-.37c.12-.11.35-.21.67-.32l7.27-2.19c.46-.14.83-.24,1.1-.29.27-.05.47-.08.62-.08.28,0,.5.09.64.27.14.18.21.43.21.75ZM988.32,855.15l-.86-.75,2.24-2.03c3.56-3.13,6.64-5.27,9.24-6.41,2.6-1.14,5.2-1.71,7.8-1.71,4.1,0,7.45,1.26,10.05,3.79,2.6,2.53,3.9,6.16,3.9,10.9v29.55c0,.68.23,1.23.69,1.66.46.43,1.09.73,1.87.91l3.21.48c.32.04.56.1.72.19.16.09.24.24.24.45,0,.14-.07.27-.21.37-.14.11-.36.16-.64.16h-15.5c-.64,0-.96-.18-.96-.53,0-.39.36-.64,1.07-.75l3.95-.53c.82-.11,1.4-.38,1.74-.83.34-.45.51-.97.51-1.58v-29.07c0-4.49-1.12-7.81-3.37-9.97-2.24-2.15-5.15-3.23-8.71-3.23-2.17,0-4.47.54-6.89,1.63-2.42,1.09-5.08,2.9-7.96,5.42l-2.14,1.87Z"/>
        <path d="M1038.71,847.24l-4.49-.75c-.61-.14-1-.28-1.18-.4-.18-.12-.27-.28-.27-.45s.06-.31.19-.4c.12-.09.31-.13.56-.13h4.43c.82,0,1.42-.1,1.82-.29.39-.2.64-.54.75-1.04l1.76-7.91c.07-.39.17-.66.29-.8.12-.14.31-.21.56-.21.21,0,.38.05.51.16.12.11.19.27.19.48v48.84c0,2.39.52,4.19,1.58,5.42,1.05,1.23,2.5,1.84,4.36,1.84,1.03,0,1.9-.12,2.59-.37s1.28-.56,1.76-.94.9-.76,1.26-1.15c.36-.39.71-.75,1.07-1.07.18-.03.32,0,.43.11s.14.27.11.48c-.29.85-.78,1.64-1.5,2.35s-1.6,1.28-2.67,1.71c-1.07.43-2.26.64-3.58.64-2.56,0-4.67-.7-6.31-2.11-1.64-1.41-2.46-3.55-2.46-6.44v-35.54c0-.53-.13-.97-.37-1.31-.25-.34-.71-.58-1.39-.72ZM1041.38,846.55v-1.44h14.37c.36,0,.6.05.72.16.12.11.19.27.19.48,0,.25-.13.45-.4.59-.27.14-.65.21-1.15.21h-13.73Z"/>
        <path d="M1078.68,845.48c-3.14,0-5.68.88-7.64,2.65-1.96,1.76-2.94,4.07-2.94,6.92,0,1.85.44,3.48,1.31,4.89.87,1.41,2.32,2.69,4.36,3.85,2.03,1.16,4.81,2.27,8.34,3.34,3.63,1.1,6.55,2.36,8.76,3.77,2.21,1.41,3.81,2.99,4.81,4.76,1,1.76,1.5,3.73,1.5,5.91,0,3.63-1.31,6.58-3.93,8.84-2.62,2.26-6.17,3.39-10.66,3.39-1.96,0-3.61-.2-4.94-.59-1.34-.39-2.42-.78-3.26-1.18-.84-.39-1.49-.59-1.95-.59s-.87.2-1.23.59c-.36.39-.68.79-.96,1.2-.29.41-.55.62-.8.62-.18,0-.32-.05-.43-.16s-.21-.3-.32-.59l-4.27-12.66c-.11-.28-.15-.55-.13-.8.02-.25.17-.43.45-.53.21-.11.43-.1.64.03.21.13.36.31.43.56,1.32,3.21,2.83,5.74,4.54,7.61s3.59,3.19,5.64,3.95c2.05.77,4.25,1.15,6.6,1.15,3.85,0,6.82-.9,8.92-2.7,2.1-1.8,3.15-4.18,3.15-7.13,0-1.75-.42-3.34-1.26-4.78-.84-1.44-2.29-2.78-4.36-4.01-2.07-1.23-4.93-2.36-8.6-3.39-3.53-1.03-6.38-2.22-8.55-3.55-2.17-1.34-3.76-2.89-4.76-4.68-1-1.78-1.5-3.85-1.5-6.2s.53-4.31,1.6-6.09c1.07-1.78,2.6-3.18,4.6-4.19,2-1.02,4.38-1.52,7.16-1.52,1.85,0,3.44.26,4.76.77,1.32.52,2.4,1.03,3.23,1.55.84.52,1.47.77,1.9.77.39,0,.7-.25.94-.75.23-.5.45-1,.67-1.5.21-.5.46-.75.75-.75.14,0,.28.03.4.08.12.05.2.21.24.45l3.58,11.81c.14.39.22.76.24,1.1.02.34-.12.58-.4.72-.25.07-.45.03-.61-.13-.16-.16-.31-.42-.45-.78-1.82-4.42-4.13-7.53-6.95-9.32-2.81-1.8-5.68-2.7-8.6-2.7Z"/>
      </g>
    </g>
    <g>
      <polygon class="cls-1" points="778.12 853.06 585.2 853.06 563.71 831.57 539.84 855.45 563.71 879.32 585.2 857.83 778.12 857.83 778.12 853.06"/>
      <polygon class="cls-1" points="1141.88 857.83 1334.8 857.83 1356.29 879.32 1380.16 855.45 1356.29 831.57 1334.8 853.06 1141.88 853.06 1141.88 857.83"/>
    </g>
  </g>
</svg>