<svg width="30" height="30" viewBox="0 0 30 30" fill="none" xmlns="http://www.w3.org/2000/svg">
<g clip-path="url(#clip0_274_3543)">
<path d="M5.3125 2.41805e-06H24.6875C25.3853 -0.000672159 26.0764 0.139803 26.7213 0.413387C27.3661 0.686972 27.952 1.0883 28.4455 1.59439C28.9389 2.10048 29.3302 2.70141 29.597 3.36279C29.8637 4.02416 30.0007 4.73299 30 5.44872V24.5513C30.0007 25.267 29.8637 25.9758 29.597 26.6372C29.3302 27.2986 28.9389 27.8995 28.4455 28.4056C27.952 28.9117 27.3661 29.313 26.7213 29.5866C26.0764 29.8602 25.3853 30.0007 24.6875 30H5.3125C4.61467 30.0007 3.92356 29.8602 3.27872 29.5866C2.63388 29.313 2.04797 28.9117 1.55453 28.4056C1.06109 27.8995 0.669798 27.2986 0.403053 26.6372C0.136308 25.9758 -0.000655355 25.267 2.35759e-06 24.5513V5.44872C-0.000655355 4.73299 0.136308 4.02416 0.403053 3.36279C0.669798 2.70141 1.06109 2.10048 1.55453 1.59439C2.04797 1.0883 2.63388 0.686972 3.27872 0.413387C3.92356 0.139803 4.61467 -0.000672159 5.3125 2.41805e-06Z" fill="#659AD2"/>
<path d="M13.0603 24.3209C7.9266 24.3209 3.75 20.1443 3.75 15.0105C3.75 9.8768 7.9266 5.7002 13.0603 5.7002C16.373 5.7002 19.4625 7.48285 21.123 10.3524L17.0937 12.684C16.2626 11.2477 14.717 10.3554 13.0603 10.3554C10.4934 10.3554 8.40517 12.4436 8.40517 15.0105C8.40517 17.5774 10.4934 19.6657 13.0603 19.6657C14.7172 19.6657 16.2628 18.7734 17.094 17.3368L21.1233 19.6683C19.4628 22.5381 16.3732 24.3209 13.0603 24.3209Z" fill="white"/>
<path d="M22.3705 14.4934H21.336V13.459H20.3016V14.4934H19.2671V15.5279H20.3016V16.5624H21.336V15.5279H22.3705V14.4934Z" fill="white"/>
<path d="M26.2499 14.4934H25.2154V13.459H24.181V14.4934H23.1465V15.5279H24.181V16.5624H25.2154V15.5279H26.2499V14.4934Z" fill="white"/>
</g>
<defs>
<clipPath id="clip0_274_3543">
<rect width="30" height="30" fill="white"/>
</clipPath>
</defs>
</svg>
