<svg width="84" height="72" viewBox="0 0 84 72" fill="none" xmlns="http://www.w3.org/2000/svg">
<path d="M0 18C0 8.05888 8.05888 0 18 0H66C75.9411 0 84 8.05888 84 18V54C84 63.9411 75.9411 72 66 72H18C8.05888 72 0 63.9411 0 54V18Z" fill="#FF732C"/>
<path d="M25.3335 19.3333H27.5104C27.9205 19.3333 28.1255 19.3333 28.2905 19.4087C28.4359 19.4751 28.5591 19.582 28.6454 19.7165C28.7434 19.8692 28.7724 20.0721 28.8304 20.478L29.6192 25.9999M29.6192 25.9999L31.3724 38.8856C31.5948 40.5208 31.7061 41.3384 32.097 41.9538C32.4415 42.4961 32.9353 42.9273 33.5191 43.1955C34.1816 43.4999 35.0067 43.4999 36.657 43.4999H50.9201C52.4911 43.4999 53.2765 43.4999 53.9184 43.2173C54.4844 42.9681 54.9699 42.5663 55.3206 42.057C55.7184 41.4793 55.8653 40.7077 56.1593 39.1645L58.3653 27.5827C58.4688 27.0396 58.5205 26.768 58.4456 26.5558C58.3798 26.3695 58.25 26.2127 58.0794 26.1133C57.8849 25.9999 57.6085 25.9999 57.0556 25.9999H29.6192ZM38.6668 50.9999C38.6668 51.9204 37.9206 52.6666 37.0002 52.6666C36.0797 52.6666 35.3335 51.9204 35.3335 50.9999C35.3335 50.0794 36.0797 49.3333 37.0002 49.3333C37.9206 49.3333 38.6668 50.0794 38.6668 50.9999ZM52.0002 50.9999C52.0002 51.9204 51.254 52.6666 50.3335 52.6666C49.413 52.6666 48.6668 51.9204 48.6668 50.9999C48.6668 50.0794 49.413 49.3333 50.3335 49.3333C51.254 49.3333 52.0002 50.0794 52.0002 50.9999Z" stroke="white" stroke-width="2" stroke-linecap="round" stroke-linejoin="round"/>
</svg>
