<svg width="39" height="37" viewBox="0 0 39 37" fill="none" xmlns="http://www.w3.org/2000/svg">
<circle cx="13" cy="13" r="13" fill="#FFA400"/>
<path d="M25.2565 32.9119C25.04 33.5129 24.9317 33.8134 24.7671 33.9044C24.6244 33.9834 24.4522 33.9878 24.3057 33.9162C24.1367 33.8337 24.0132 33.5392 23.7661 32.9501L16.7551 16.2326C16.5321 15.7009 16.4206 15.435 16.4736 15.262C16.5197 15.1117 16.6337 14.9919 16.7814 14.9384C16.9516 14.8768 17.2227 14.9748 17.7649 15.1709L34.8124 21.3365C35.4131 21.5537 35.7134 21.6624 35.8043 21.827C35.883 21.9698 35.8873 22.142 35.8156 22.2884C35.7329 22.4574 35.4382 22.5805 34.8488 22.8269L28.1587 25.6233C28.0391 25.6734 27.9793 25.6984 27.9293 25.7359C27.885 25.7692 27.8466 25.8096 27.8156 25.8555C27.7806 25.9073 27.7586 25.9683 27.7146 26.0903L25.2565 32.9119Z" fill="#2B2D39" stroke="white" stroke-linecap="round" stroke-linejoin="round"/>
</svg>
