<svg width="596" height="271" viewBox="0 0 596 271" fill="none" xmlns="http://www.w3.org/2000/svg">
<path d="M236.5 22.4764C236.5 13.221 243.904 5.66625 253.157 5.47978L506.868 0.367238C516.72 0.168692 524.677 8.36275 524.189 18.2055L522.228 57.7591C521.747 67.4666 529.488 75.6009 539.207 75.6009H561.5C570.889 75.6009 578.5 83.212 578.5 92.6009V101.189V124.451V157.499C578.5 161.682 576.957 165.719 574.167 168.837L572.867 170.289C570.44 173 567.207 174.861 563.644 175.599L555.47 177.29C547.18 179.005 541.416 186.557 541.947 195.005L544.354 233.24C545.043 244.198 535.319 252.926 524.499 251.061L513.408 249.148C512.454 248.984 511.487 248.901 510.519 248.901H487.612L254.99 269.373C245.052 270.247 236.5 262.415 236.5 252.438V22.4764Z" fill="white"/>
<path d="M34.6974 46.4616H29.1577C28.9446 45.2779 28.5481 44.2363 27.968 43.3366C27.388 42.437 26.6778 41.6735 25.8374 41.0462C24.9969 40.4188 24.0559 39.9453 23.0142 39.6257C21.9844 39.3061 20.8894 39.1463 19.7294 39.1463C17.6342 39.1463 15.758 39.6731 14.1009 40.7266C12.4555 41.7801 11.1534 43.3248 10.1946 45.3608C9.24763 47.3968 8.77415 49.8826 8.77415 52.8182C8.77415 55.7775 9.24763 58.2751 10.1946 60.3111C11.1534 62.3471 12.4614 63.8859 14.1186 64.9276C15.7758 65.9692 17.6402 66.4901 19.7116 66.4901C20.8598 66.4901 21.9489 66.3362 22.9787 66.0284C24.0204 65.7088 24.9614 65.2412 25.8018 64.6257C26.6423 64.0102 27.3525 63.2585 27.9325 62.3707C28.5244 61.4711 28.9328 60.4413 29.1577 59.2812L34.6974 59.299C34.4015 61.0864 33.8274 62.7318 32.9751 64.2351C32.1347 65.7266 31.0516 67.0168 29.7259 68.1058C28.4119 69.183 26.9086 70.0175 25.2159 70.6094C23.5232 71.2012 21.6766 71.4972 19.6761 71.4972C16.5275 71.4972 13.7221 70.7514 11.2599 69.2599C8.79782 67.7566 6.85653 65.6082 5.43608 62.8146C4.02746 60.0211 3.32315 56.6889 3.32315 52.8182C3.32315 48.9356 4.03338 45.6035 5.45384 42.8217C6.87429 40.0282 8.81558 37.8857 11.2777 36.3942C13.7398 34.8909 16.5393 34.1392 19.6761 34.1392C21.6056 34.1392 23.4048 34.4174 25.0739 34.9737C26.7547 35.5182 28.264 36.3232 29.6016 37.3885C30.9392 38.442 32.0459 39.7322 32.9219 41.2592C33.7978 42.7744 34.3897 44.5085 34.6974 46.4616ZM40.2626 71V34.6364H53.2243C56.0415 34.6364 58.3793 35.1217 60.2377 36.0923C62.108 37.063 63.5048 38.4065 64.4281 40.1229C65.3514 41.8274 65.813 43.7983 65.813 46.0355C65.813 48.2609 65.3455 50.2199 64.4103 51.9126C63.487 53.5935 62.0903 54.9015 60.22 55.8366C58.3616 56.7718 56.0237 57.2393 53.2065 57.2393H43.3876V52.5163H52.7093C54.4849 52.5163 55.929 52.2618 57.0417 51.7528C58.1663 51.2438 58.9889 50.504 59.5098 49.5334C60.0306 48.5627 60.291 47.3968 60.291 46.0355C60.291 44.6624 60.0247 43.4728 59.492 42.4666C58.9712 41.4605 58.1485 40.6911 57.024 40.1584C55.9113 39.6139 54.4494 39.3416 52.6383 39.3416H45.7491V71H40.2626ZM58.2136 54.5938L67.198 71H60.948L52.1412 54.5938H58.2136ZM71.4892 71V34.6364H94.2875V39.3594H76.9757V50.4389H93.0978V55.1442H76.9757V66.277H94.5005V71H71.4892ZM103.688 71H97.864L110.95 34.6364H117.289L130.375 71H124.551L114.27 41.2415H113.986L103.688 71ZM104.664 56.7599H123.556V61.3764H104.664V56.7599ZM128.536 39.3594V34.6364H156.678V39.3594H145.333V71H139.864V39.3594H128.536ZM167.384 34.6364V71H161.897V34.6364H167.384ZM203.724 34.6364V71H198.681L180.198 44.331H179.86V71H174.374V34.6364H179.452L197.953 61.3409H198.291V34.6364H203.724ZM235.337 46.1243C234.994 45.0471 234.532 44.0824 233.952 43.2301C233.384 42.366 232.703 41.6321 231.91 41.0284C231.117 40.4129 230.211 39.9453 229.193 39.6257C228.187 39.3061 227.08 39.1463 225.873 39.1463C223.825 39.1463 221.979 39.6731 220.333 40.7266C218.688 41.7801 217.386 43.3248 216.427 45.3608C215.48 47.3849 215.007 49.8648 215.007 52.8004C215.007 55.7479 215.486 58.2396 216.445 60.2756C217.404 62.3116 218.718 63.8563 220.387 64.9098C222.056 65.9633 223.955 66.4901 226.086 66.4901C228.063 66.4901 229.785 66.0876 231.253 65.2827C232.733 64.4777 233.875 63.3414 234.68 61.8736C235.497 60.3939 235.905 58.6539 235.905 56.6534L237.325 56.9197H226.921V52.392H241.214V56.5291C241.214 59.5831 240.563 62.2346 239.261 64.4837C237.971 66.7209 236.183 68.4491 233.899 69.6683C231.626 70.8875 229.022 71.4972 226.086 71.4972C222.795 71.4972 219.907 70.7396 217.421 69.2244C214.947 67.7093 213.018 65.5608 211.633 62.7791C210.248 59.9856 209.556 56.6712 209.556 52.8359C209.556 49.9358 209.958 47.3317 210.763 45.0234C211.568 42.7152 212.698 40.7562 214.154 39.1463C215.622 37.5246 217.344 36.2876 219.321 35.4354C221.31 34.5713 223.482 34.1392 225.838 34.1392C227.802 34.1392 229.631 34.4292 231.324 35.0092C233.029 35.5893 234.544 36.4119 235.869 37.4773C237.207 38.5426 238.314 39.8092 239.19 41.277C240.066 42.733 240.658 44.3487 240.965 46.1243H235.337ZM284.02 46.1243C283.677 45.0471 283.215 44.0824 282.635 43.2301C282.067 42.366 281.387 41.6321 280.594 41.0284C279.8 40.4129 278.895 39.9453 277.877 39.6257C276.871 39.3061 275.764 39.1463 274.557 39.1463C272.509 39.1463 270.662 39.6731 269.017 40.7266C267.372 41.7801 266.069 43.3248 265.111 45.3608C264.164 47.3849 263.69 49.8648 263.69 52.8004C263.69 55.7479 264.17 58.2396 265.128 60.2756C266.087 62.3116 267.401 63.8563 269.07 64.9098C270.739 65.9633 272.639 66.4901 274.77 66.4901C276.747 66.4901 278.469 66.0876 279.937 65.2827C281.416 64.4777 282.559 63.3414 283.363 61.8736C284.18 60.3939 284.589 58.6539 284.589 56.6534L286.009 56.9197H275.604V52.392H289.898V56.5291C289.898 59.5831 289.247 62.2346 287.944 64.4837C286.654 66.7209 284.867 68.4491 282.582 69.6683C280.309 70.8875 277.705 71.4972 274.77 71.4972C271.479 71.4972 268.591 70.7396 266.105 69.2244C263.631 67.7093 261.702 65.5608 260.317 62.7791C258.932 59.9856 258.239 56.6712 258.239 52.8359C258.239 49.9358 258.642 47.3317 259.447 45.0234C260.251 42.7152 261.382 40.7562 262.838 39.1463C264.306 37.5246 266.028 36.2876 268.005 35.4354C269.993 34.5713 272.166 34.1392 274.521 34.1392C276.486 34.1392 278.315 34.4292 280.008 35.0092C281.712 35.5893 283.227 36.4119 284.553 37.4773C285.891 38.5426 286.997 39.8092 287.873 41.277C288.749 42.733 289.341 44.3487 289.649 46.1243H284.02ZM295.862 71V34.6364H308.824C311.641 34.6364 313.979 35.1217 315.837 36.0923C317.708 37.063 319.104 38.4065 320.028 40.1229C320.951 41.8274 321.413 43.7983 321.413 46.0355C321.413 48.2609 320.945 50.2199 320.01 51.9126C319.087 53.5935 317.69 54.9015 315.82 55.8366C313.961 56.7718 311.623 57.2393 308.806 57.2393H298.987V52.5163H308.309C310.085 52.5163 311.529 52.2618 312.641 51.7528C313.766 51.2438 314.589 50.504 315.109 49.5334C315.63 48.5627 315.891 47.3968 315.891 46.0355C315.891 44.6624 315.624 43.4728 315.092 42.4666C314.571 41.4605 313.748 40.6911 312.624 40.1584C311.511 39.6139 310.049 39.3416 308.238 39.3416H301.349V71H295.862ZM313.813 54.5938L322.798 71H316.548L307.741 54.5938H313.813ZM327.089 71V34.6364H349.887V39.3594H332.575V50.4389H348.697V55.1442H332.575V66.277H350.1V71H327.089ZM359.287 71H353.464L366.55 34.6364H372.888L385.974 71H380.15L369.87 41.2415H369.586L359.287 71ZM360.264 56.7599H379.156V61.3764H360.264V56.7599ZM384.135 39.3594V34.6364H412.278V39.3594H400.932V71H395.463V39.3594H384.135Z" fill="#141414"/>
<path d="M4.49503 136V99.6364H27.2933V104.359H9.98153V115.439H26.1037V120.144H9.98153V131.277H27.5064V136H4.49503ZM37.4395 99.6364L46.1397 113.859H46.4238L55.1241 99.6364H61.4806L50.1525 117.818L61.5517 136H55.1596L46.4238 121.973H46.1397L37.4039 136H31.0119L42.6064 117.818L31.0829 99.6364H37.4395ZM65.9228 136V99.6364H78.8844C81.7135 99.6364 84.0572 100.151 85.9157 101.181C87.7741 102.211 89.165 103.62 90.0882 105.407C91.0115 107.183 91.4732 109.183 91.4732 111.408C91.4732 113.646 91.0056 115.658 90.0705 117.445C89.1472 119.221 87.7504 120.629 85.8801 121.671C84.0217 122.701 81.6839 123.216 78.8667 123.216H69.9533V118.564H78.3695C80.1569 118.564 81.6069 118.256 82.7196 117.641C83.8323 117.013 84.6491 116.161 85.1699 115.084C85.6908 114.007 85.9512 112.781 85.9512 111.408C85.9512 110.035 85.6908 108.816 85.1699 107.751C84.6491 106.685 83.8264 105.851 82.7019 105.247C81.5892 104.643 80.1214 104.342 78.2985 104.342H71.4093V136H65.9228ZM96.9052 136V99.6364H119.703V104.359H102.392V115.439H118.514V120.144H102.392V131.277H119.917V136H96.9052ZM126.032 136V99.6364H138.994C141.811 99.6364 144.149 100.122 146.007 101.092C147.878 102.063 149.274 103.406 150.198 105.123C151.121 106.827 151.583 108.798 151.583 111.036C151.583 113.261 151.115 115.22 150.18 116.913C149.257 118.594 147.86 119.902 145.99 120.837C144.131 121.772 141.793 122.239 138.976 122.239H129.157V117.516H138.479C140.254 117.516 141.699 117.262 142.811 116.753C143.936 116.244 144.758 115.504 145.279 114.533C145.8 113.563 146.061 112.397 146.061 111.036C146.061 109.662 145.794 108.473 145.262 107.467C144.741 106.46 143.918 105.691 142.794 105.158C141.681 104.614 140.219 104.342 138.408 104.342H131.519V136H126.032ZM143.983 119.594L152.968 136H146.718L137.911 119.594H143.983ZM162.745 99.6364V136H157.259V99.6364H162.745ZM169.735 136V99.6364H192.534V104.359H175.222V115.439H191.344V120.144H175.222V131.277H192.747V136H169.735ZM228.212 99.6364V136H223.17L204.686 109.331H204.349V136H198.862V99.6364H203.94L222.442 126.341H222.779V99.6364H228.212ZM265.418 111.462H259.878C259.665 110.278 259.269 109.236 258.689 108.337C258.109 107.437 257.398 106.674 256.558 106.046C255.718 105.419 254.777 104.945 253.735 104.626C252.705 104.306 251.61 104.146 250.45 104.146C248.355 104.146 246.479 104.673 244.822 105.727C243.176 106.78 241.874 108.325 240.915 110.361C239.968 112.397 239.495 114.883 239.495 117.818C239.495 120.777 239.968 123.275 240.915 125.311C241.874 127.347 243.182 128.886 244.839 129.928C246.497 130.969 248.361 131.49 250.432 131.49C251.581 131.49 252.67 131.336 253.699 131.028C254.741 130.709 255.682 130.241 256.523 129.626C257.363 129.01 258.073 128.259 258.653 127.371C259.245 126.471 259.653 125.441 259.878 124.281L265.418 124.299C265.122 126.086 264.548 127.732 263.696 129.235C262.855 130.727 261.772 132.017 260.447 133.106C259.133 134.183 257.629 135.018 255.937 135.609C254.244 136.201 252.397 136.497 250.397 136.497C247.248 136.497 244.443 135.751 241.981 134.26C239.519 132.757 237.577 130.608 236.157 127.815C234.748 125.021 234.044 121.689 234.044 117.818C234.044 113.936 234.754 110.603 236.175 107.822C237.595 105.028 239.536 102.886 241.998 101.394C244.461 99.8909 247.26 99.1392 250.397 99.1392C252.326 99.1392 254.126 99.4174 255.795 99.9737C257.475 100.518 258.985 101.323 260.322 102.388C261.66 103.442 262.767 104.732 263.643 106.259C264.519 107.774 265.11 109.509 265.418 111.462ZM270.983 136V99.6364H293.782V104.359H276.47V115.439H292.592V120.144H276.47V131.277H293.995V136H270.983ZM322.499 136.515C320.06 136.515 317.959 136.071 316.196 135.183C314.444 134.295 313.094 133.088 312.147 131.561C311.2 130.022 310.727 128.282 310.727 126.341C310.727 124.861 311.035 123.547 311.65 122.399C312.266 121.239 313.124 120.168 314.225 119.185C315.326 118.203 316.598 117.214 318.042 116.22L323.902 112.083C324.896 111.432 325.671 110.746 326.228 110.023C326.784 109.29 327.062 108.384 327.062 107.307C327.062 106.455 326.695 105.638 325.961 104.857C325.227 104.075 324.245 103.685 323.014 103.685C322.162 103.685 321.41 103.892 320.759 104.306C320.12 104.72 319.617 105.253 319.25 105.904C318.895 106.543 318.717 107.218 318.717 107.928C318.717 108.757 318.942 109.591 319.392 110.432C319.853 111.272 320.445 112.142 321.167 113.042C321.889 113.93 322.647 114.853 323.44 115.812L340.326 136H334.324L320.35 119.576C319.179 118.191 318.09 116.889 317.083 115.67C316.077 114.439 315.261 113.196 314.633 111.941C314.018 110.674 313.71 109.307 313.71 107.839C313.71 106.17 314.089 104.691 314.846 103.401C315.616 102.098 316.687 101.08 318.06 100.347C319.433 99.6127 321.043 99.2457 322.89 99.2457C324.76 99.2457 326.364 99.6127 327.701 100.347C329.051 101.069 330.087 102.033 330.809 103.241C331.542 104.436 331.909 105.744 331.909 107.165C331.909 108.893 331.477 110.42 330.613 111.746C329.761 113.06 328.583 114.267 327.08 115.368L319.782 120.748C318.362 121.79 317.373 122.819 316.817 123.837C316.273 124.844 316 125.631 316 126.199C316 127.241 316.267 128.205 316.799 129.093C317.344 129.981 318.101 130.691 319.072 131.224C320.055 131.756 321.203 132.023 322.517 132.023C323.866 132.023 325.18 131.733 326.458 131.153C327.749 130.561 328.915 129.714 329.956 128.614C331.01 127.513 331.844 126.193 332.46 124.654C333.075 123.115 333.383 121.393 333.383 119.487H338.177C338.177 121.831 337.911 123.814 337.378 125.435C336.846 127.045 336.2 128.359 335.443 129.377C334.697 130.383 333.993 131.17 333.33 131.739C333.117 131.928 332.916 132.117 332.726 132.307C332.537 132.496 332.336 132.686 332.123 132.875C330.891 134.118 329.4 135.035 327.648 135.627C325.908 136.219 324.192 136.515 322.499 136.515ZM375.977 109.189C375.787 107.508 375.006 106.206 373.633 105.283C372.26 104.348 370.531 103.88 368.448 103.88C366.957 103.88 365.666 104.117 364.577 104.59C363.488 105.052 362.642 105.691 362.038 106.508C361.446 107.313 361.151 108.23 361.151 109.26C361.151 110.124 361.352 110.87 361.754 111.497C362.169 112.125 362.707 112.651 363.37 113.077C364.045 113.492 364.767 113.841 365.536 114.125C366.306 114.397 367.045 114.622 367.756 114.8L371.307 115.723C372.467 116.007 373.656 116.392 374.876 116.877C376.095 117.362 377.225 118.002 378.267 118.795C379.309 119.588 380.149 120.57 380.788 121.742C381.439 122.914 381.765 124.317 381.765 125.95C381.765 128.01 381.232 129.839 380.167 131.437C379.113 133.035 377.58 134.295 375.568 135.219C373.568 136.142 371.147 136.604 368.306 136.604C365.584 136.604 363.228 136.172 361.239 135.308C359.251 134.443 357.694 133.218 356.57 131.632C355.445 130.034 354.824 128.14 354.705 125.95H360.21C360.316 127.264 360.742 128.359 361.488 129.235C362.246 130.099 363.21 130.744 364.382 131.17C365.566 131.585 366.862 131.792 368.271 131.792C369.821 131.792 371.2 131.549 372.408 131.064C373.627 130.567 374.586 129.88 375.284 129.004C375.982 128.116 376.332 127.081 376.332 125.897C376.332 124.82 376.024 123.938 375.408 123.251C374.805 122.565 373.982 121.997 372.94 121.547C371.911 121.097 370.745 120.701 369.442 120.357L365.146 119.185C362.234 118.392 359.925 117.226 358.221 115.688C356.528 114.149 355.682 112.113 355.682 109.58C355.682 107.484 356.25 105.656 357.386 104.093C358.523 102.531 360.062 101.317 362.003 100.453C363.944 99.5772 366.134 99.1392 368.572 99.1392C371.035 99.1392 373.207 99.5713 375.089 100.435C376.983 101.299 378.474 102.489 379.563 104.004C380.652 105.508 381.22 107.236 381.268 109.189H375.977ZM398.649 136.55C395.962 136.55 393.648 135.976 391.707 134.828C389.777 133.668 388.286 132.04 387.232 129.945C386.191 127.838 385.67 125.37 385.67 122.541C385.67 119.748 386.191 117.286 387.232 115.155C388.286 113.024 389.754 111.361 391.636 110.165C393.53 108.97 395.743 108.372 398.276 108.372C399.815 108.372 401.307 108.627 402.751 109.136C404.195 109.645 405.491 110.444 406.639 111.533C407.788 112.622 408.693 114.036 409.356 115.776C410.019 117.504 410.35 119.606 410.35 122.08V123.962H388.671V119.984H405.148C405.148 118.588 404.864 117.351 404.296 116.273C403.727 115.184 402.928 114.326 401.899 113.699C400.881 113.071 399.685 112.758 398.312 112.758C396.82 112.758 395.518 113.125 394.406 113.859C393.305 114.581 392.453 115.528 391.849 116.7C391.257 117.86 390.961 119.12 390.961 120.482V123.589C390.961 125.412 391.281 126.962 391.92 128.241C392.571 129.519 393.477 130.496 394.637 131.17C395.797 131.833 397.152 132.165 398.703 132.165C399.709 132.165 400.626 132.023 401.455 131.739C402.283 131.443 402.999 131.005 403.603 130.425C404.207 129.845 404.669 129.129 404.988 128.276L410.013 129.182C409.61 130.661 408.888 131.958 407.847 133.07C406.817 134.171 405.521 135.029 403.958 135.645C402.408 136.249 400.638 136.55 398.649 136.55ZM423.178 136.604C421.449 136.604 419.887 136.284 418.49 135.645C417.093 134.994 415.987 134.053 415.17 132.822C414.365 131.591 413.962 130.081 413.962 128.294C413.962 126.755 414.258 125.489 414.85 124.494C415.442 123.5 416.241 122.713 417.247 122.133C418.253 121.553 419.378 121.115 420.621 120.819C421.864 120.523 423.13 120.298 424.42 120.144C426.054 119.955 427.38 119.801 428.398 119.683C429.416 119.552 430.156 119.345 430.617 119.061C431.079 118.777 431.31 118.315 431.31 117.676V117.552C431.31 116.001 430.872 114.8 429.996 113.947C429.132 113.095 427.841 112.669 426.125 112.669C424.338 112.669 422.929 113.066 421.899 113.859C420.881 114.64 420.177 115.51 419.786 116.469L414.797 115.332C415.389 113.675 416.253 112.338 417.389 111.32C418.537 110.29 419.857 109.544 421.349 109.082C422.84 108.609 424.409 108.372 426.054 108.372C427.143 108.372 428.297 108.502 429.516 108.763C430.747 109.011 431.896 109.473 432.961 110.148C434.038 110.822 434.92 111.787 435.607 113.042C436.293 114.285 436.636 115.901 436.636 117.889V136H431.452V132.271H431.239C430.895 132.958 430.38 133.633 429.694 134.295C429.007 134.958 428.125 135.509 427.048 135.947C425.971 136.385 424.681 136.604 423.178 136.604ZM424.332 132.342C425.799 132.342 427.054 132.052 428.096 131.472C429.149 130.892 429.948 130.135 430.493 129.2C431.049 128.253 431.327 127.241 431.327 126.163V122.648C431.138 122.837 430.771 123.015 430.227 123.18C429.694 123.334 429.084 123.47 428.398 123.589C427.711 123.695 427.042 123.796 426.391 123.891C425.74 123.973 425.196 124.045 424.758 124.104C423.728 124.234 422.787 124.453 421.935 124.761C421.094 125.068 420.42 125.512 419.911 126.092C419.413 126.661 419.165 127.418 419.165 128.365C419.165 129.679 419.65 130.673 420.621 131.348C421.591 132.011 422.828 132.342 424.332 132.342ZM442.708 136V108.727H447.803V113.166H448.141C448.709 111.663 449.638 110.491 450.928 109.651C452.219 108.798 453.763 108.372 455.563 108.372C457.386 108.372 458.913 108.798 460.144 109.651C461.387 110.503 462.304 111.675 462.896 113.166H463.18C463.831 111.71 464.867 110.55 466.287 109.686C467.708 108.81 469.4 108.372 471.365 108.372C473.839 108.372 475.857 109.147 477.42 110.698C478.994 112.249 479.781 114.587 479.781 117.712V136H474.472V118.209C474.472 116.362 473.969 115.025 472.963 114.196C471.957 113.367 470.756 112.953 469.359 112.953C467.631 112.953 466.287 113.486 465.328 114.551C464.369 115.605 463.89 116.96 463.89 118.617V136H458.599V117.871C458.599 116.392 458.137 115.202 457.214 114.303C456.291 113.403 455.089 112.953 453.61 112.953C452.603 112.953 451.674 113.219 450.822 113.752C449.981 114.273 449.301 115.001 448.78 115.936C448.271 116.871 448.017 117.954 448.017 119.185V136H442.708ZM491.206 99.6364V136H485.897V99.6364H491.206ZM509.102 136.55C506.415 136.55 504.101 135.976 502.16 134.828C500.231 133.668 498.739 132.04 497.686 129.945C496.644 127.838 496.123 125.37 496.123 122.541C496.123 119.748 496.644 117.286 497.686 115.155C498.739 113.024 500.207 111.361 502.089 110.165C503.983 108.97 506.196 108.372 508.73 108.372C510.268 108.372 511.76 108.627 513.204 109.136C514.648 109.645 515.944 110.444 517.093 111.533C518.241 112.622 519.146 114.036 519.809 115.776C520.472 117.504 520.803 119.606 520.803 122.08V123.962H499.124V119.984H515.601C515.601 118.588 515.317 117.351 514.749 116.273C514.181 115.184 513.382 114.326 512.352 113.699C511.334 113.071 510.138 112.758 508.765 112.758C507.274 112.758 505.972 113.125 504.859 113.859C503.758 114.581 502.906 115.528 502.302 116.7C501.71 117.86 501.414 119.12 501.414 120.482V123.589C501.414 125.412 501.734 126.962 502.373 128.241C503.024 129.519 503.93 130.496 505.09 131.17C506.25 131.833 507.605 132.165 509.156 132.165C510.162 132.165 511.079 132.023 511.908 131.739C512.736 131.443 513.453 131.005 514.056 130.425C514.66 129.845 515.122 129.129 515.441 128.276L520.466 129.182C520.064 130.661 519.342 131.958 518.3 133.07C517.27 134.171 515.974 135.029 514.411 135.645C512.861 136.249 511.091 136.55 509.102 136.55ZM546.131 115.386L541.319 116.238C541.118 115.622 540.798 115.036 540.36 114.48C539.934 113.924 539.354 113.468 538.62 113.113C537.886 112.758 536.969 112.58 535.868 112.58C534.365 112.58 533.11 112.918 532.104 113.592C531.098 114.255 530.594 115.113 530.594 116.167C530.594 117.078 530.932 117.812 531.607 118.369C532.281 118.925 533.37 119.381 534.874 119.736L539.206 120.73C541.715 121.31 543.586 122.204 544.817 123.411C546.048 124.619 546.663 126.187 546.663 128.116C546.663 129.75 546.19 131.206 545.243 132.484C544.308 133.751 543 134.745 541.319 135.467C539.65 136.189 537.714 136.55 535.513 136.55C532.459 136.55 529.967 135.899 528.038 134.597C526.108 133.283 524.924 131.419 524.487 129.004L529.618 128.223C529.938 129.561 530.594 130.573 531.589 131.259C532.583 131.934 533.879 132.271 535.477 132.271C537.217 132.271 538.608 131.91 539.65 131.188C540.692 130.454 541.212 129.561 541.212 128.507C541.212 127.655 540.893 126.939 540.254 126.359C539.626 125.779 538.661 125.341 537.359 125.045L532.743 124.033C530.198 123.453 528.316 122.529 527.097 121.263C525.889 119.996 525.286 118.392 525.286 116.451C525.286 114.841 525.735 113.433 526.635 112.225C527.535 111.018 528.777 110.077 530.364 109.402C531.95 108.715 533.767 108.372 535.815 108.372C538.762 108.372 541.082 109.011 542.775 110.29C544.468 111.556 545.586 113.255 546.131 115.386ZM571.937 115.386L567.126 116.238C566.924 115.622 566.605 115.036 566.167 114.48C565.741 113.924 565.161 113.468 564.427 113.113C563.693 112.758 562.775 112.58 561.675 112.58C560.171 112.58 558.916 112.918 557.91 113.592C556.904 114.255 556.401 115.113 556.401 116.167C556.401 117.078 556.738 117.812 557.413 118.369C558.088 118.925 559.177 119.381 560.68 119.736L565.013 120.73C567.522 121.31 569.392 122.204 570.623 123.411C571.854 124.619 572.47 126.187 572.47 128.116C572.47 129.75 571.997 131.206 571.05 132.484C570.114 133.751 568.806 134.745 567.126 135.467C565.456 136.189 563.521 136.55 561.319 136.55C558.265 136.55 555.774 135.899 553.844 134.597C551.915 133.283 550.731 131.419 550.293 129.004L555.425 128.223C555.744 129.561 556.401 130.573 557.395 131.259C558.39 131.934 559.686 132.271 561.284 132.271C563.024 132.271 564.415 131.91 565.456 131.188C566.498 130.454 567.019 129.561 567.019 128.507C567.019 127.655 566.699 126.939 566.06 126.359C565.433 125.779 564.468 125.341 563.166 125.045L558.55 124.033C556.005 123.453 554.122 122.529 552.903 121.263C551.696 119.996 551.092 118.392 551.092 116.451C551.092 114.841 551.542 113.433 552.442 112.225C553.341 111.018 554.584 110.077 556.17 109.402C557.756 108.715 559.573 108.372 561.621 108.372C564.569 108.372 566.889 109.011 568.581 110.29C570.274 111.556 571.393 113.255 571.937 115.386Z" fill="#141414"/>
<path d="M25.5 159L31.1129 176.275H49.2764L34.5818 186.951L40.1946 204.225L25.5 193.549L10.8054 204.225L16.4182 186.951L1.72359 176.275H19.8871L25.5 159Z" fill="#FED433"/>
<path d="M82.495 201V164.636H105.045V169.359H87.9815V180.439H103.429V185.144H87.9815V201H82.495ZM115.675 164.636V201H110.366V164.636H115.675ZM133.305 201.55C130.748 201.55 128.517 200.964 126.611 199.793C124.705 198.621 123.226 196.981 122.172 194.874C121.119 192.767 120.592 190.305 120.592 187.488C120.592 184.659 121.119 182.185 122.172 180.066C123.226 177.947 124.705 176.302 126.611 175.13C128.517 173.958 130.748 173.372 133.305 173.372C135.862 173.372 138.093 173.958 139.999 175.13C141.905 176.302 143.384 177.947 144.438 180.066C145.491 182.185 146.018 184.659 146.018 187.488C146.018 190.305 145.491 192.767 144.438 194.874C143.384 196.981 141.905 198.621 139.999 199.793C138.093 200.964 135.862 201.55 133.305 201.55ZM133.323 197.094C134.98 197.094 136.353 196.656 137.442 195.78C138.531 194.904 139.336 193.738 139.857 192.282C140.389 190.826 140.656 189.222 140.656 187.47C140.656 185.73 140.389 184.132 139.857 182.676C139.336 181.208 138.531 180.031 137.442 179.143C136.353 178.255 134.98 177.811 133.323 177.811C131.654 177.811 130.269 178.255 129.168 179.143C128.079 180.031 127.268 181.208 126.735 182.676C126.214 184.132 125.954 185.73 125.954 187.47C125.954 189.222 126.214 190.826 126.735 192.282C127.268 193.738 128.079 194.904 129.168 195.78C130.269 196.656 131.654 197.094 133.323 197.094ZM156.026 201L148.001 173.727H153.487L158.832 193.756H159.098L164.46 173.727H169.947L175.274 193.667H175.54L180.849 173.727H186.335L178.328 201H172.912L167.372 181.309H166.964L161.424 201H156.026ZM203.032 201V164.636H225.582V169.359H208.519V180.439H223.966V185.144H208.519V201H203.032ZM240.389 201.55C237.832 201.55 235.601 200.964 233.695 199.793C231.789 198.621 230.31 196.981 229.256 194.874C228.203 192.767 227.676 190.305 227.676 187.488C227.676 184.659 228.203 182.185 229.256 180.066C230.31 177.947 231.789 176.302 233.695 175.13C235.601 173.958 237.832 173.372 240.389 173.372C242.946 173.372 245.177 173.958 247.083 175.13C248.989 176.302 250.468 177.947 251.522 180.066C252.575 182.185 253.102 184.659 253.102 187.488C253.102 190.305 252.575 192.767 251.522 194.874C250.468 196.981 248.989 198.621 247.083 199.793C245.177 200.964 242.946 201.55 240.389 201.55ZM240.407 197.094C242.064 197.094 243.437 196.656 244.526 195.78C245.615 194.904 246.42 193.738 246.941 192.282C247.473 190.826 247.74 189.222 247.74 187.47C247.74 185.73 247.473 184.132 246.941 182.676C246.42 181.208 245.615 180.031 244.526 179.143C243.437 178.255 242.064 177.811 240.407 177.811C238.738 177.811 237.353 178.255 236.252 179.143C235.163 180.031 234.352 181.208 233.819 182.676C233.298 184.132 233.038 185.73 233.038 187.47C233.038 189.222 233.298 190.826 233.819 192.282C234.352 193.738 235.163 194.904 236.252 195.78C237.353 196.656 238.738 197.094 240.407 197.094ZM258.028 201V173.727H263.159V178.06H263.443C263.941 176.592 264.816 175.438 266.071 174.597C267.338 173.745 268.77 173.319 270.368 173.319C270.7 173.319 271.09 173.331 271.54 173.354C272.002 173.378 272.363 173.408 272.623 173.443V178.521C272.41 178.462 272.031 178.397 271.487 178.326C270.942 178.243 270.398 178.202 269.853 178.202C268.598 178.202 267.48 178.468 266.497 179.001C265.527 179.522 264.757 180.25 264.189 181.185C263.621 182.108 263.337 183.161 263.337 184.345V201H258.028ZM287.083 169.359V164.636H315.225V169.359H303.879V201H298.411V169.359H287.083ZM325.327 184.807V201H320.018V164.636H325.256V178.166H325.593C326.233 176.698 327.209 175.532 328.523 174.668C329.837 173.804 331.553 173.372 333.672 173.372C335.542 173.372 337.176 173.757 338.573 174.526C339.981 175.296 341.07 176.444 341.84 177.971C342.621 179.486 343.012 181.38 343.012 183.653V201H337.703V184.292C337.703 182.291 337.188 180.741 336.158 179.64C335.128 178.527 333.696 177.971 331.861 177.971C330.606 177.971 329.482 178.237 328.488 178.77C327.505 179.303 326.73 180.084 326.162 181.114C325.605 182.132 325.327 183.363 325.327 184.807ZM360.85 201.55C358.163 201.55 355.849 200.976 353.908 199.828C351.979 198.668 350.487 197.04 349.434 194.945C348.392 192.838 347.871 190.37 347.871 187.541C347.871 184.748 348.392 182.286 349.434 180.155C350.487 178.024 351.955 176.361 353.837 175.165C355.731 173.97 357.944 173.372 360.478 173.372C362.016 173.372 363.508 173.627 364.952 174.136C366.396 174.645 367.692 175.444 368.841 176.533C369.989 177.622 370.894 179.036 371.557 180.776C372.22 182.504 372.551 184.606 372.551 187.08V188.962H350.872V184.984H367.349C367.349 183.588 367.065 182.351 366.497 181.273C365.929 180.184 365.13 179.326 364.1 178.699C363.082 178.071 361.886 177.758 360.513 177.758C359.022 177.758 357.72 178.125 356.607 178.859C355.506 179.581 354.654 180.528 354.05 181.7C353.458 182.86 353.162 184.12 353.162 185.482V188.589C353.162 190.412 353.482 191.962 354.121 193.241C354.772 194.519 355.678 195.496 356.838 196.17C357.998 196.833 359.353 197.165 360.904 197.165C361.91 197.165 362.827 197.023 363.656 196.739C364.484 196.443 365.201 196.005 365.804 195.425C366.408 194.845 366.87 194.129 367.189 193.276L372.214 194.182C371.812 195.661 371.09 196.958 370.048 198.07C369.018 199.171 367.722 200.029 366.159 200.645C364.609 201.249 362.839 201.55 360.85 201.55ZM413.485 164.636H418.989V188.553C418.989 191.098 418.391 193.353 417.196 195.318C416 197.271 414.319 198.81 412.153 199.935C409.987 201.047 407.448 201.604 404.536 201.604C401.636 201.604 399.103 201.047 396.936 199.935C394.77 198.81 393.089 197.271 391.894 195.318C390.698 193.353 390.1 191.098 390.1 188.553V164.636H395.587V188.109C395.587 189.755 395.948 191.217 396.67 192.495C397.404 193.773 398.44 194.78 399.777 195.513C401.115 196.236 402.701 196.597 404.536 196.597C406.382 196.597 407.975 196.236 409.312 195.513C410.662 194.78 411.691 193.773 412.402 192.495C413.124 191.217 413.485 189.755 413.485 188.109V164.636ZM445.976 180.386L441.165 181.238C440.963 180.622 440.644 180.036 440.206 179.48C439.78 178.924 439.2 178.468 438.466 178.113C437.732 177.758 436.814 177.58 435.714 177.58C434.21 177.58 432.956 177.918 431.949 178.592C430.943 179.255 430.44 180.113 430.44 181.167C430.44 182.078 430.778 182.812 431.452 183.369C432.127 183.925 433.216 184.381 434.719 184.736L439.052 185.73C441.561 186.31 443.431 187.204 444.662 188.411C445.894 189.619 446.509 191.187 446.509 193.116C446.509 194.75 446.036 196.206 445.089 197.484C444.153 198.751 442.845 199.745 441.165 200.467C439.496 201.189 437.56 201.55 435.358 201.55C432.305 201.55 429.813 200.899 427.883 199.597C425.954 198.283 424.77 196.419 424.332 194.004L429.464 193.223C429.783 194.561 430.44 195.573 431.434 196.259C432.429 196.934 433.725 197.271 435.323 197.271C437.063 197.271 438.454 196.91 439.496 196.188C440.537 195.454 441.058 194.561 441.058 193.507C441.058 192.655 440.738 191.939 440.099 191.359C439.472 190.779 438.507 190.341 437.205 190.045L432.589 189.033C430.044 188.453 428.162 187.529 426.942 186.263C425.735 184.996 425.131 183.392 425.131 181.451C425.131 179.841 425.581 178.433 426.481 177.225C427.38 176.018 428.623 175.077 430.209 174.402C431.796 173.715 433.613 173.372 435.66 173.372C438.608 173.372 440.928 174.011 442.621 175.29C444.313 176.556 445.432 178.255 445.976 180.386ZM463.1 201.55C460.413 201.55 458.099 200.976 456.158 199.828C454.229 198.668 452.737 197.04 451.684 194.945C450.642 192.838 450.121 190.37 450.121 187.541C450.121 184.748 450.642 182.286 451.684 180.155C452.737 178.024 454.205 176.361 456.087 175.165C457.981 173.97 460.194 173.372 462.728 173.372C464.266 173.372 465.758 173.627 467.202 174.136C468.646 174.645 469.942 175.444 471.091 176.533C472.239 177.622 473.144 179.036 473.807 180.776C474.47 182.504 474.801 184.606 474.801 187.08V188.962H453.122V184.984H469.599C469.599 183.588 469.315 182.351 468.747 181.273C468.179 180.184 467.38 179.326 466.35 178.699C465.332 178.071 464.136 177.758 462.763 177.758C461.272 177.758 459.97 178.125 458.857 178.859C457.756 179.581 456.904 180.528 456.3 181.7C455.708 182.86 455.412 184.12 455.412 185.482V188.589C455.412 190.412 455.732 191.962 456.371 193.241C457.022 194.519 457.928 195.496 459.088 196.17C460.248 196.833 461.603 197.165 463.154 197.165C464.16 197.165 465.077 197.023 465.906 196.739C466.734 196.443 467.451 196.005 468.054 195.425C468.658 194.845 469.12 194.129 469.439 193.276L474.464 194.182C474.062 195.661 473.34 196.958 472.298 198.07C471.268 199.171 469.972 200.029 468.409 200.645C466.859 201.249 465.089 201.55 463.1 201.55ZM479.692 201V173.727H484.823V178.06H485.107C485.605 176.592 486.481 175.438 487.735 174.597C489.002 173.745 490.434 173.319 492.032 173.319C492.364 173.319 492.754 173.331 493.204 173.354C493.666 173.378 494.027 173.408 494.287 173.443V178.521C494.074 178.462 493.695 178.397 493.151 178.326C492.606 178.243 492.062 178.202 491.517 178.202C490.262 178.202 489.144 178.468 488.161 179.001C487.191 179.522 486.421 180.25 485.853 181.185C485.285 182.108 485.001 183.161 485.001 184.345V201H479.692Z" fill="#141414"/>
</svg>
