<svg width="30" height="30" viewBox="0 0 30 30" fill="none" xmlns="http://www.w3.org/2000/svg">
<g clip-path="url(#clip0_274_3557)">
<path d="M5.3125 2.41805e-06H24.6875C25.3853 -0.000672159 26.0764 0.139803 26.7213 0.413387C27.3661 0.686972 27.952 1.0883 28.4455 1.59439C28.9389 2.10048 29.3302 2.70141 29.597 3.36279C29.8637 4.02416 30.0007 4.73299 30 5.44872V24.5513C30.0007 25.267 29.8637 25.9758 29.597 26.6372C29.3302 27.2986 28.9389 27.8995 28.4455 28.4056C27.952 28.9117 27.3661 29.313 26.7213 29.5866C26.0764 29.8602 25.3853 30.0007 24.6875 30H5.3125C4.61467 30.0007 3.92356 29.8602 3.27872 29.5866C2.63388 29.313 2.04797 28.9117 1.55453 28.4056C1.06109 27.8995 0.669798 27.2986 0.403053 26.6372C0.136308 25.9758 -0.000655355 25.267 2.35759e-06 24.5513V5.44872C-0.000655355 4.73299 0.136308 4.02416 0.403053 3.36279C0.669798 2.70141 1.06109 2.10048 1.55453 1.59439C2.04797 1.0883 2.63388 0.686972 3.27872 0.413387C3.92356 0.139803 4.61467 -0.000672159 5.3125 2.41805e-06Z" fill="#A179DC"/>
<path d="M22.2501 12.3789V13.6788H23.55V12.3789H24.2V13.6788H25.4999V14.3288H24.2V15.6286H25.4999V16.2786H24.2V17.5785H23.55V16.2786H22.2501V17.5785H21.6001V16.2786H20.3003V15.6286H21.6001V14.3288H20.3003V13.6788H21.6001V12.3789H22.2501ZM23.55 14.3287H22.2501V15.6286H23.55V14.3287Z" fill="white"/>
<path d="M15.1654 5.85019C18.556 5.85019 21.5162 7.69155 23.1018 10.4286L23.0863 10.4023L19.097 12.6992C18.3111 11.3685 16.8703 10.4704 15.2174 10.4519L15.1653 10.4516C12.6448 10.4516 10.6015 12.4949 10.6015 15.0154C10.6006 15.8098 10.8082 16.5906 11.2034 17.2797C11.9901 18.6531 13.4689 19.5793 15.1654 19.5793C16.8724 19.5793 18.3596 18.6413 19.1423 17.2533L19.1233 17.2866L23.1065 19.5941C21.5383 22.308 18.6186 24.1437 15.2675 24.1802L15.1654 24.1808C11.7641 24.1808 8.79551 22.3281 7.21387 19.5765C6.44177 18.2333 6 16.6761 6 15.0154C6 9.95364 10.1034 5.8501 15.1653 5.8501L15.1654 5.85019Z" fill="white"/>
</g>
<defs>
<clipPath id="clip0_274_3557">
<rect width="30" height="30" fill="white"/>
</clipPath>
</defs>
</svg>
