<svg width="143" height="197" viewBox="0 0 143 197" fill="none" xmlns="http://www.w3.org/2000/svg">
<g opacity="0.3">
<line y1="-1" x2="5.98285" y2="-1" transform="matrix(0.341689 -0.939813 0.939572 0.342352 97.979 7.27686)" stroke="#667085" stroke-width="2"/>
<line y1="-1" x2="5.98198" y2="-1" transform="matrix(0.499588 -0.866263 0.865787 0.500412 110.72 7.09033)" stroke="#667085" stroke-width="2"/>
<line y1="-1" x2="5.98091" y2="-1" transform="matrix(0.642374 -0.766391 0.765697 0.643201 123.528 6.90332)" stroke="#667085" stroke-width="2"/>
<line y1="-1" x2="5.97977" y2="-1" transform="matrix(0.765697 -0.643202 0.642374 0.766392 136.422 6.5293)" stroke="#667085" stroke-width="2"/>
<line y1="-1" x2="5.97977" y2="-1" transform="matrix(-0.765697 -0.643201 0.642374 -0.766391 8.80615 6.5293)" stroke="#667085" stroke-width="2"/>
<line y1="-1" x2="5.98091" y2="-1" transform="matrix(-0.642374 -0.766391 0.765697 -0.643201 21.7026 6.90332)" stroke="#667085" stroke-width="2"/>
<line y1="-1" x2="5.98198" y2="-1" transform="matrix(-0.499589 -0.866263 0.865788 -0.500411 34.5107 7.09033)" stroke="#667085" stroke-width="2"/>
<line y1="-1" x2="5.98285" y2="-1" transform="matrix(-0.341689 -0.939813 0.939572 -0.342352 47.252 7.27686)" stroke="#667085" stroke-width="2"/>
<line y1="-1" x2="5.98342" y2="-1" transform="matrix(-0.173464 -0.98484 0.984775 -0.173833 59.9458 7.46436)" stroke="#667085" stroke-width="2"/>
<line x1="71.6152" y1="7.46436" x2="71.6152" y2="1.48074" stroke="#667085" stroke-width="2"/>
<line y1="-1" x2="5.98342" y2="-1" transform="matrix(0.173463 -0.98484 0.984775 0.173833 85.2847 7.46436)" stroke="#667085" stroke-width="2"/>
<line y1="-1" x2="5.98285" y2="-1" transform="matrix(0.341689 -0.939813 0.939572 0.342352 84.5312 17.7485)" stroke="#667085" stroke-width="2"/>
<line y1="-1" x2="5.98198" y2="-1" transform="matrix(0.499588 -0.866263 0.865787 0.500412 97.2705 17.5615)" stroke="#667085" stroke-width="2"/>
<line y1="-1" x2="5.98091" y2="-1" transform="matrix(0.642374 -0.766391 0.765697 0.643201 110.079 17.3745)" stroke="#667085" stroke-width="2"/>
<line y1="-1" x2="5.97977" y2="-1" transform="matrix(0.765697 -0.643201 0.642374 0.766391 122.975 17.0005)" stroke="#667085" stroke-width="2"/>
<line y1="-1" x2="5.9787" y2="-1" transform="matrix(0.865788 -0.500411 0.499589 0.866263 135.975 16.4395)" stroke="#667085" stroke-width="2"/>
<line y1="-1" x2="5.98091" y2="-1" transform="matrix(-0.642374 -0.766391 0.765697 -0.643201 8.25537 17.3745)" stroke="#667085" stroke-width="2"/>
<line y1="-1" x2="5.98198" y2="-1" transform="matrix(-0.499589 -0.866263 0.865788 -0.500411 21.0635 17.5615)" stroke="#667085" stroke-width="2"/>
<line y1="-1" x2="5.98285" y2="-1" transform="matrix(-0.341689 -0.939813 0.939572 -0.342351 33.8022 17.7485)" stroke="#667085" stroke-width="2"/>
<line y1="-1" x2="5.98342" y2="-1" transform="matrix(-0.173464 -0.98484 0.984775 -0.173833 46.4966 17.9351)" stroke="#667085" stroke-width="2"/>
<line x1="58.166" y1="17.9351" x2="58.166" y2="11.9514" stroke="#667085" stroke-width="2"/>
<line y1="-1" x2="5.98342" y2="-1" transform="matrix(0.173464 -0.98484 0.984775 0.173832 71.8374 17.9351)" stroke="#667085" stroke-width="2"/>
<line y1="-1" x2="5.98285" y2="-1" transform="matrix(0.341689 -0.939813 0.939572 0.342352 71.082 28.2202)" stroke="#667085" stroke-width="2"/>
<line y1="-1" x2="5.98198" y2="-1" transform="matrix(0.499589 -0.866262 0.865788 0.500411 83.8228 28.0327)" stroke="#667085" stroke-width="2"/>
<line y1="-1" x2="5.98091" y2="-1" transform="matrix(0.642374 -0.766391 0.765697 0.643201 96.6309 27.8457)" stroke="#667085" stroke-width="2"/>
<line y1="-1" x2="5.97977" y2="-1" transform="matrix(0.765697 -0.643201 0.642374 0.766391 109.527 27.4717)" stroke="#667085" stroke-width="2"/>
<line y1="-1" x2="5.9787" y2="-1" transform="matrix(0.865788 -0.500411 0.499589 0.866263 122.527 26.9106)" stroke="#667085" stroke-width="2"/>
<line y1="-1" x2="5.97782" y2="-1" transform="matrix(0.939572 -0.342352 0.341689 0.939813 135.645 26.5366)" stroke="#667085" stroke-width="2"/>
<line y1="-1" x2="5.98198" y2="-1" transform="matrix(-0.499589 -0.866263 0.865788 -0.500411 7.61426 28.0327)" stroke="#667085" stroke-width="2"/>
<line y1="-1" x2="5.98285" y2="-1" transform="matrix(-0.341689 -0.939813 0.939572 -0.342351 20.355 28.2202)" stroke="#667085" stroke-width="2"/>
<line y1="-1" x2="5.98342" y2="-1" transform="matrix(-0.173464 -0.98484 0.984775 -0.173833 33.0488 28.4067)" stroke="#667085" stroke-width="2"/>
<line x1="44.7183" y1="28.4067" x2="44.7183" y2="22.4231" stroke="#667085" stroke-width="2"/>
<line y1="-1" x2="5.98342" y2="-1" transform="matrix(0.173464 -0.98484 0.984775 0.173833 58.3882 28.4067)" stroke="#667085" stroke-width="2"/>
<line y1="-1" x2="5.98285" y2="-1" transform="matrix(0.341689 -0.939813 0.939572 0.342351 57.6343 38.6909)" stroke="#667085" stroke-width="2"/>
<line y1="-1" x2="5.98198" y2="-1" transform="matrix(0.499588 -0.866263 0.865788 0.500412 70.3735 38.5044)" stroke="#667085" stroke-width="2"/>
<line y1="-1" x2="5.98091" y2="-1" transform="matrix(0.642374 -0.766391 0.765697 0.643201 83.1816 38.3174)" stroke="#667085" stroke-width="2"/>
<line y1="-1" x2="5.97977" y2="-1" transform="matrix(0.765697 -0.643201 0.642374 0.766391 96.0781 37.9434)" stroke="#667085" stroke-width="2"/>
<line y1="-1" x2="5.9787" y2="-1" transform="matrix(0.865788 -0.500411 0.499589 0.866263 109.08 37.3823)" stroke="#667085" stroke-width="2"/>
<line y1="-1" x2="5.97783" y2="-1" transform="matrix(0.939572 -0.342351 0.341689 0.939813 122.197 37.0083)" stroke="#667085" stroke-width="2"/>
<line y1="-1" x2="5.97726" y2="-1" transform="matrix(0.984775 -0.173833 0.173464 0.98484 135.444 36.4473)" stroke="#667085" stroke-width="2"/>
<line y1="-1" x2="5.98285" y2="-1" transform="matrix(-0.341689 -0.939813 0.939572 -0.342351 6.90576 38.6909)" stroke="#667085" stroke-width="2"/>
<line y1="-1" x2="5.98342" y2="-1" transform="matrix(-0.173464 -0.98484 0.984775 -0.173833 19.5996 38.8784)" stroke="#667085" stroke-width="2"/>
<line x1="31.269" y1="38.8784" x2="31.269" y2="32.8948" stroke="#667085" stroke-width="2"/>
<line y1="-1" x2="5.98342" y2="-1" transform="matrix(0.173463 -0.98484 0.984775 0.173833 44.9404 38.8784)" stroke="#667085" stroke-width="2"/>
<line y1="-1" x2="5.98285" y2="-1" transform="matrix(0.341689 -0.939813 0.939572 0.342351 44.1851 49.1626)" stroke="#667085" stroke-width="2"/>
<line y1="-1" x2="5.98198" y2="-1" transform="matrix(0.499589 -0.866263 0.865788 0.500411 56.9258 48.9756)" stroke="#667085" stroke-width="2"/>
<line y1="-1" x2="5.98091" y2="-1" transform="matrix(0.642374 -0.766392 0.765697 0.643201 69.7344 48.7886)" stroke="#667085" stroke-width="2"/>
<line y1="-1" x2="5.97977" y2="-1" transform="matrix(0.765697 -0.643201 0.642374 0.766391 82.6309 48.4146)" stroke="#667085" stroke-width="2"/>
<line y1="-1" x2="5.9787" y2="-1" transform="matrix(0.865788 -0.500411 0.499589 0.866263 95.6299 47.8535)" stroke="#667085" stroke-width="2"/>
<line y1="-1" x2="5.97783" y2="-1" transform="matrix(0.939572 -0.342351 0.341689 0.939813 108.748 47.4795)" stroke="#667085" stroke-width="2"/>
<line y1="-1" x2="5.97726" y2="-1" transform="matrix(0.984775 -0.173833 0.173464 0.98484 121.995 46.9189)" stroke="#667085" stroke-width="2"/>
<line y1="-1" x2="5.98342" y2="-1" transform="matrix(-0.173464 -0.98484 0.984775 -0.173833 6.15186 49.3491)" stroke="#667085" stroke-width="2"/>
<line x1="17.8218" y1="49.3491" x2="17.8218" y2="43.3655" stroke="#667085" stroke-width="2"/>
<line y1="-1" x2="5.98342" y2="-1" transform="matrix(0.173464 -0.98484 0.984775 0.173833 31.4912 49.3491)" stroke="#667085" stroke-width="2"/>
<line x1="142.846" y1="47.3574" x2="136.869" y2="47.3574" stroke="#667085" stroke-width="2"/>
<line y1="-1" x2="5.98285" y2="-1" transform="matrix(0.341689 -0.939813 0.939572 0.342351 30.7378 59.6338)" stroke="#667085" stroke-width="2"/>
<line y1="-1" x2="5.98198" y2="-1" transform="matrix(0.499589 -0.866263 0.865788 0.500411 43.4766 59.4468)" stroke="#667085" stroke-width="2"/>
<line y1="-1" x2="5.98091" y2="-1" transform="matrix(0.642374 -0.766391 0.765697 0.643201 56.2847 59.2598)" stroke="#667085" stroke-width="2"/>
<line y1="-1" x2="5.97978" y2="-1" transform="matrix(0.765697 -0.643201 0.642374 0.766391 69.1812 58.8857)" stroke="#667085" stroke-width="2"/>
<line y1="-1" x2="5.9787" y2="-1" transform="matrix(0.865788 -0.500411 0.499589 0.866263 82.1826 58.3247)" stroke="#667085" stroke-width="2"/>
<line y1="-1" x2="5.97783" y2="-1" transform="matrix(0.939572 -0.342352 0.341689 0.939813 95.3003 57.9507)" stroke="#667085" stroke-width="2"/>
<line y1="-1" x2="5.97726" y2="-1" transform="matrix(0.984775 -0.173833 0.173464 0.98484 108.547 57.3896)" stroke="#667085" stroke-width="2"/>
<line x1="4.37207" y1="59.8208" x2="4.37207" y2="53.8372" stroke="#667085" stroke-width="2"/>
<line y1="-1" x2="5.98342" y2="-1" transform="matrix(0.173464 -0.98484 0.984775 0.173833 18.0439 59.8208)" stroke="#667085" stroke-width="2"/>
<line x1="129.397" y1="57.8291" x2="123.42" y2="57.8291" stroke="#667085" stroke-width="2"/>
<line y1="-1" x2="5.97726" y2="-1" transform="matrix(-0.984775 -0.173833 0.173464 -0.98484 142.779 57.3896)" stroke="#667085" stroke-width="2"/>
<line y1="-1" x2="5.98285" y2="-1" transform="matrix(0.341689 -0.939813 0.939572 0.342352 17.2881 70.105)" stroke="#667085" stroke-width="2"/>
<line y1="-1" x2="5.98198" y2="-1" transform="matrix(0.499589 -0.866263 0.865788 0.500411 30.0293 69.918)" stroke="#667085" stroke-width="2"/>
<line y1="-1" x2="5.98091" y2="-1" transform="matrix(0.642374 -0.766391 0.765698 0.643201 42.8374 69.7314)" stroke="#667085" stroke-width="2"/>
<line y1="-1" x2="5.97977" y2="-1" transform="matrix(0.765698 -0.643201 0.642375 0.766391 55.7339 69.3574)" stroke="#667085" stroke-width="2"/>
<line y1="-1" x2="5.9787" y2="-1" transform="matrix(0.865788 -0.500411 0.499589 0.866262 68.7334 68.7964)" stroke="#667085" stroke-width="2"/>
<line y1="-1" x2="5.97783" y2="-1" transform="matrix(0.939572 -0.342352 0.341688 0.939813 81.8511 68.4224)" stroke="#667085" stroke-width="2"/>
<line y1="-1" x2="5.97726" y2="-1" transform="matrix(0.984775 -0.173832 0.173465 0.98484 95.0977 67.8613)" stroke="#667085" stroke-width="2"/>
<line y1="-1" x2="5.98342" y2="-1" transform="matrix(0.173464 -0.98484 0.984775 0.173833 4.59424 70.2925)" stroke="#667085" stroke-width="2"/>
<line x1="115.949" y1="68.3003" x2="109.972" y2="68.3003" stroke="#667085" stroke-width="2"/>
<line y1="-1" x2="5.97726" y2="-1" transform="matrix(-0.984775 -0.173832 0.173465 -0.98484 129.33 67.8613)" stroke="#667085" stroke-width="2"/>
<line y1="-1" x2="5.97784" y2="-1" transform="matrix(-0.939572 -0.342352 0.341689 -0.939813 142.576 68.4224)" stroke="#667085" stroke-width="2"/>
<line y1="-1" x2="5.98285" y2="-1" transform="matrix(0.341689 -0.939813 0.939572 0.342352 3.84082 80.5767)" stroke="#667085" stroke-width="2"/>
<line y1="-1" x2="5.98198" y2="-1" transform="matrix(0.499589 -0.866263 0.865788 0.500411 16.5796 80.3896)" stroke="#667085" stroke-width="2"/>
<line y1="-1" x2="5.98091" y2="-1" transform="matrix(0.642374 -0.766391 0.765697 0.643201 29.3882 80.2021)" stroke="#667085" stroke-width="2"/>
<line y1="-1" x2="5.97977" y2="-1" transform="matrix(0.765697 -0.643202 0.642374 0.766392 42.2842 79.8286)" stroke="#667085" stroke-width="2"/>
<line y1="-1" x2="5.9787" y2="-1" transform="matrix(0.865788 -0.500411 0.499589 0.866262 55.2856 79.2671)" stroke="#667085" stroke-width="2"/>
<line y1="-1" x2="5.97783" y2="-1" transform="matrix(0.939572 -0.342352 0.341688 0.939813 68.4033 78.8936)" stroke="#667085" stroke-width="2"/>
<line y1="-1" x2="5.97726" y2="-1" transform="matrix(0.984775 -0.173833 0.173463 0.98484 81.6504 78.333)" stroke="#667085" stroke-width="2"/>
<line y1="-1" x2="5.9787" y2="-1" transform="matrix(-0.865788 -0.500411 0.499589 -0.866262 142.247 79.2671)" stroke="#667085" stroke-width="2"/>
<line x1="102.502" y1="78.772" x2="96.5249" y2="78.772" stroke="#667085" stroke-width="2"/>
<line y1="-1" x2="5.97726" y2="-1" transform="matrix(-0.984775 -0.173833 0.173463 -0.98484 115.882 78.333)" stroke="#667085" stroke-width="2"/>
<line y1="-1" x2="5.97782" y2="-1" transform="matrix(-0.939571 -0.342353 0.341688 -0.939814 129.127 78.8936)" stroke="#667085" stroke-width="2"/>
<line y1="-1" x2="5.98198" y2="-1" transform="matrix(0.499589 -0.866263 0.865788 0.500411 3.13232 90.8608)" stroke="#667085" stroke-width="2"/>
<line y1="-1" x2="5.98091" y2="-1" transform="matrix(0.642374 -0.766391 0.765697 0.643201 15.9404 90.6738)" stroke="#667085" stroke-width="2"/>
<line y1="-1" x2="5.97977" y2="-1" transform="matrix(0.765698 -0.643201 0.642375 0.766391 28.8369 90.2998)" stroke="#667085" stroke-width="2"/>
<line y1="-1" x2="5.9787" y2="-1" transform="matrix(0.865788 -0.500411 0.499589 0.866262 41.8364 89.7388)" stroke="#667085" stroke-width="2"/>
<line y1="-1" x2="5.97783" y2="-1" transform="matrix(0.939572 -0.342351 0.34169 0.939813 54.9541 89.3647)" stroke="#667085" stroke-width="2"/>
<line y1="-1" x2="5.97726" y2="-1" transform="matrix(0.984775 -0.173833 0.173463 0.98484 68.2007 88.8037)" stroke="#667085" stroke-width="2"/>
<line y1="-1" x2="5.9787" y2="-1" transform="matrix(-0.865788 -0.50041 0.49959 -0.866262 128.797 89.7388)" stroke="#667085" stroke-width="2"/>
<line y1="-1" x2="5.97976" y2="-1" transform="matrix(-0.765697 -0.643201 0.642374 -0.766391 141.798 90.2998)" stroke="#667085" stroke-width="2"/>
<line x1="89.0527" y1="89.2427" x2="83.0757" y2="89.2427" stroke="#667085" stroke-width="2"/>
<line y1="-1" x2="5.97726" y2="-1" transform="matrix(-0.984775 -0.173833 0.173463 -0.98484 102.433 88.8037)" stroke="#667085" stroke-width="2"/>
<line y1="-1" x2="5.97783" y2="-1" transform="matrix(-0.939572 -0.342351 0.341689 -0.939813 115.68 89.3647)" stroke="#667085" stroke-width="2"/>
<line y1="-1" x2="5.98091" y2="-1" transform="matrix(0.642374 -0.766391 0.765697 0.643201 2.49121 101.146)" stroke="#667085" stroke-width="2"/>
<line y1="-1" x2="5.97977" y2="-1" transform="matrix(0.765698 -0.643201 0.642375 0.766391 15.3877 100.771)" stroke="#667085" stroke-width="2"/>
<line y1="-1" x2="5.9787" y2="-1" transform="matrix(0.865788 -0.500412 0.499588 0.866263 28.3892 100.21)" stroke="#667085" stroke-width="2"/>
<line y1="-1" x2="5.97783" y2="-1" transform="matrix(0.939572 -0.342351 0.341689 0.939813 41.5063 99.8364)" stroke="#667085" stroke-width="2"/>
<line y1="-1" x2="5.97726" y2="-1" transform="matrix(0.984775 -0.173833 0.173463 0.98484 54.7534 99.2754)" stroke="#667085" stroke-width="2"/>
<line y1="-1" x2="5.9787" y2="-1" transform="matrix(-0.865787 -0.500412 0.499588 -0.866263 115.35 100.21)" stroke="#667085" stroke-width="2"/>
<line y1="-1" x2="5.97976" y2="-1" transform="matrix(-0.765697 -0.643201 0.642374 -0.766391 128.349 100.771)" stroke="#667085" stroke-width="2"/>
<line y1="-1" x2="5.98091" y2="-1" transform="matrix(-0.642374 -0.766391 0.765697 -0.643201 141.246 101.146)" stroke="#667085" stroke-width="2"/>
<line x1="75.605" y1="99.7144" x2="69.6279" y2="99.7144" stroke="#667085" stroke-width="2"/>
<line y1="-1" x2="5.97726" y2="-1" transform="matrix(-0.984775 -0.173833 0.173463 -0.98484 88.9854 99.2754)" stroke="#667085" stroke-width="2"/>
<line y1="-1" x2="5.97783" y2="-1" transform="matrix(-0.939572 -0.342351 0.341689 -0.939813 102.232 99.8364)" stroke="#667085" stroke-width="2"/>
<line y1="-1" x2="5.97977" y2="-1" transform="matrix(0.765698 -0.643201 0.642374 0.766391 1.93994 111.243)" stroke="#667085" stroke-width="2"/>
<line y1="-1" x2="5.9787" y2="-1" transform="matrix(0.865788 -0.500412 0.499588 0.866263 14.9395 110.682)" stroke="#667085" stroke-width="2"/>
<line y1="-1" x2="5.97783" y2="-1" transform="matrix(0.939572 -0.342351 0.341689 0.939813 28.0571 110.308)" stroke="#667085" stroke-width="2"/>
<line y1="-1" x2="5.97726" y2="-1" transform="matrix(0.984775 -0.173833 0.173463 0.98484 41.3042 109.747)" stroke="#667085" stroke-width="2"/>
<line y1="-1" x2="5.9787" y2="-1" transform="matrix(-0.865787 -0.500412 0.499588 -0.866263 101.9 110.682)" stroke="#667085" stroke-width="2"/>
<line y1="-1" x2="5.97977" y2="-1" transform="matrix(-0.765698 -0.643201 0.642375 -0.766391 114.901 111.243)" stroke="#667085" stroke-width="2"/>
<line y1="-1" x2="5.98091" y2="-1" transform="matrix(-0.642374 -0.766391 0.765697 -0.643201 127.796 111.616)" stroke="#667085" stroke-width="2"/>
<line y1="-1" x2="5.98197" y2="-1" transform="matrix(-0.499589 -0.866263 0.865788 -0.500412 140.606 111.804)" stroke="#667085" stroke-width="2"/>
<line x1="62.1558" y1="110.186" x2="56.1787" y2="110.186" stroke="#667085" stroke-width="2"/>
<line y1="-1" x2="5.97726" y2="-1" transform="matrix(-0.984775 -0.173833 0.173463 -0.98484 75.5356 109.747)" stroke="#667085" stroke-width="2"/>
<line y1="-1" x2="5.97784" y2="-1" transform="matrix(-0.939572 -0.342351 0.34169 -0.939813 88.7827 110.308)" stroke="#667085" stroke-width="2"/>
<line y1="-1" x2="5.9787" y2="-1" transform="matrix(0.865788 -0.500412 0.499588 0.866263 1.49219 121.153)" stroke="#667085" stroke-width="2"/>
<line y1="-1" x2="5.97783" y2="-1" transform="matrix(0.939572 -0.342351 0.341689 0.939813 14.6099 120.779)" stroke="#667085" stroke-width="2"/>
<line y1="-1" x2="5.97726" y2="-1" transform="matrix(0.984775 -0.173833 0.173463 0.98484 27.8564 120.218)" stroke="#667085" stroke-width="2"/>
<line y1="-1" x2="5.9787" y2="-1" transform="matrix(-0.865787 -0.500412 0.499588 -0.866263 88.4526 121.153)" stroke="#667085" stroke-width="2"/>
<line y1="-1" x2="5.97978" y2="-1" transform="matrix(-0.765697 -0.643201 0.642374 -0.766391 101.452 121.714)" stroke="#667085" stroke-width="2"/>
<line y1="-1" x2="5.98092" y2="-1" transform="matrix(-0.642373 -0.766392 0.765697 -0.643202 114.349 122.088)" stroke="#667085" stroke-width="2"/>
<line y1="-1" x2="5.98198" y2="-1" transform="matrix(-0.499588 -0.866263 0.865787 -0.500412 127.157 122.274)" stroke="#667085" stroke-width="2"/>
<line y1="-1" x2="5.98285" y2="-1" transform="matrix(-0.341688 -0.939814 0.939571 -0.342353 139.898 122.462)" stroke="#667085" stroke-width="2"/>
<line x1="48.708" y1="120.657" x2="42.7309" y2="120.657" stroke="#667085" stroke-width="2"/>
<line y1="-1" x2="5.97726" y2="-1" transform="matrix(-0.984775 -0.173833 0.173463 -0.98484 62.0884 120.218)" stroke="#667085" stroke-width="2"/>
<line y1="-1" x2="5.97783" y2="-1" transform="matrix(-0.939572 -0.342351 0.341689 -0.939813 75.335 120.779)" stroke="#667085" stroke-width="2"/>
<line y1="-1" x2="5.97783" y2="-1" transform="matrix(0.939572 -0.342352 0.341688 0.939813 1.16016 131.25)" stroke="#667085" stroke-width="2"/>
<line y1="-1" x2="5.97726" y2="-1" transform="matrix(0.984775 -0.173833 0.173463 0.98484 14.4072 130.689)" stroke="#667085" stroke-width="2"/>
<line y1="-1" x2="5.9787" y2="-1" transform="matrix(-0.865787 -0.500412 0.499588 -0.866263 75.0034 131.625)" stroke="#667085" stroke-width="2"/>
<line y1="-1" x2="5.97978" y2="-1" transform="matrix(-0.765697 -0.643201 0.642374 -0.766391 88.0049 132.185)" stroke="#667085" stroke-width="2"/>
<line y1="-1" x2="5.98091" y2="-1" transform="matrix(-0.642375 -0.766391 0.765698 -0.6432 100.901 132.559)" stroke="#667085" stroke-width="2"/>
<line y1="-1" x2="5.98198" y2="-1" transform="matrix(-0.49959 -0.866262 0.865788 -0.500411 113.709 132.746)" stroke="#667085" stroke-width="2"/>
<line y1="-1" x2="5.98285" y2="-1" transform="matrix(-0.341689 -0.939813 0.939572 -0.342351 126.448 132.933)" stroke="#667085" stroke-width="2"/>
<line y1="-1" x2="5.98342" y2="-1" transform="matrix(-0.173466 -0.98484 0.984775 -0.173831 139.143 133.12)" stroke="#667085" stroke-width="2"/>
<line x1="35.2588" y1="131.128" x2="29.2817" y2="131.128" stroke="#667085" stroke-width="2"/>
<line y1="-1" x2="5.97726" y2="-1" transform="matrix(-0.984775 -0.173833 0.173463 -0.98484 48.6387 130.689)" stroke="#667085" stroke-width="2"/>
<line y1="-1" x2="5.97783" y2="-1" transform="matrix(-0.939572 -0.342352 0.341688 -0.939813 61.8857 131.25)" stroke="#667085" stroke-width="2"/>
<line y1="-1" x2="5.97726" y2="-1" transform="matrix(0.984775 -0.173833 0.173463 0.98484 0.959961 141.161)" stroke="#667085" stroke-width="2"/>
<line y1="-1" x2="5.9787" y2="-1" transform="matrix(-0.865788 -0.500411 0.499589 -0.866262 61.5557 142.096)" stroke="#667085" stroke-width="2"/>
<line y1="-1" x2="5.97977" y2="-1" transform="matrix(-0.765698 -0.643201 0.642375 -0.766391 74.5552 142.657)" stroke="#667085" stroke-width="2"/>
<line y1="-1" x2="5.9809" y2="-1" transform="matrix(-0.642375 -0.766391 0.765698 -0.643201 87.4517 143.03)" stroke="#667085" stroke-width="2"/>
<line y1="-1" x2="5.98198" y2="-1" transform="matrix(-0.49959 -0.866262 0.865788 -0.500411 100.26 143.218)" stroke="#667085" stroke-width="2"/>
<line y1="-1" x2="5.98285" y2="-1" transform="matrix(-0.341689 -0.939813 0.939572 -0.342351 113.001 143.404)" stroke="#667085" stroke-width="2"/>
<line y1="-1" x2="5.98342" y2="-1" transform="matrix(-0.173463 -0.98484 0.984775 -0.173833 125.695 143.592)" stroke="#667085" stroke-width="2"/>
<line x1="137.364" y1="143.592" x2="137.364" y2="137.608" stroke="#667085" stroke-width="2"/>
<line x1="21.8115" y1="141.6" x2="15.8345" y2="141.6" stroke="#667085" stroke-width="2"/>
<line y1="-1" x2="5.97726" y2="-1" transform="matrix(-0.984775 -0.173833 0.173463 -0.98484 35.1914 141.161)" stroke="#667085" stroke-width="2"/>
<line y1="-1" x2="5.97783" y2="-1" transform="matrix(-0.939572 -0.34235 0.34169 -0.939813 48.4385 141.722)" stroke="#667085" stroke-width="2"/>
<line y1="-1" x2="5.97871" y2="-1" transform="matrix(-0.865787 -0.500413 0.499588 -0.866263 48.1064 152.567)" stroke="#667085" stroke-width="2"/>
<line y1="-1" x2="5.97977" y2="-1" transform="matrix(-0.765698 -0.643201 0.642374 -0.766391 61.1079 153.127)" stroke="#667085" stroke-width="2"/>
<line y1="-1" x2="5.98092" y2="-1" transform="matrix(-0.642374 -0.766391 0.765697 -0.643201 74.0044 153.502)" stroke="#667085" stroke-width="2"/>
<line y1="-1" x2="5.98198" y2="-1" transform="matrix(-0.49959 -0.866262 0.865788 -0.500411 86.8125 153.688)" stroke="#667085" stroke-width="2"/>
<line y1="-1" x2="5.98285" y2="-1" transform="matrix(-0.341689 -0.939813 0.939572 -0.342351 99.5518 153.876)" stroke="#667085" stroke-width="2"/>
<line y1="-1" x2="5.98342" y2="-1" transform="matrix(-0.173463 -0.98484 0.984775 -0.173833 112.246 154.062)" stroke="#667085" stroke-width="2"/>
<line x1="123.915" y1="154.062" x2="123.915" y2="148.079" stroke="#667085" stroke-width="2"/>
<line y1="-1" x2="5.98342" y2="-1" transform="matrix(0.173463 -0.98484 0.984775 0.173833 137.586 154.062)" stroke="#667085" stroke-width="2"/>
<line x1="8.36182" y1="152.071" x2="2.38475" y2="152.071" stroke="#667085" stroke-width="2"/>
<line y1="-1" x2="5.97726" y2="-1" transform="matrix(-0.984775 -0.173833 0.173463 -0.98484 21.7422 151.632)" stroke="#667085" stroke-width="2"/>
<line y1="-1" x2="5.97783" y2="-1" transform="matrix(-0.939572 -0.342352 0.341688 -0.939813 34.9888 152.193)" stroke="#667085" stroke-width="2"/>
<line y1="-1" x2="5.98285" y2="-1" transform="matrix(0.34169 -0.939813 0.939572 0.34235 136.831 164.347)" stroke="#667085" stroke-width="2"/>
<line y1="-1" x2="5.9787" y2="-1" transform="matrix(-0.865788 -0.500411 0.499589 -0.866262 34.6592 163.038)" stroke="#667085" stroke-width="2"/>
<line y1="-1" x2="5.97977" y2="-1" transform="matrix(-0.765698 -0.643201 0.642374 -0.766391 47.6587 163.599)" stroke="#667085" stroke-width="2"/>
<line y1="-1" x2="5.9809" y2="-1" transform="matrix(-0.642375 -0.766391 0.765698 -0.643201 60.5552 163.973)" stroke="#667085" stroke-width="2"/>
<line y1="-1" x2="5.98198" y2="-1" transform="matrix(-0.49959 -0.866262 0.865788 -0.500411 73.3633 164.16)" stroke="#667085" stroke-width="2"/>
<line y1="-1" x2="5.98285" y2="-1" transform="matrix(-0.34169 -0.939813 0.939572 -0.34235 86.104 164.347)" stroke="#667085" stroke-width="2"/>
<line y1="-1" x2="5.98342" y2="-1" transform="matrix(-0.173463 -0.98484 0.984775 -0.173833 98.7979 164.534)" stroke="#667085" stroke-width="2"/>
<line x1="110.468" y1="164.534" x2="110.468" y2="158.551" stroke="#667085" stroke-width="2"/>
<line y1="-1" x2="5.98342" y2="-1" transform="matrix(0.173463 -0.98484 0.984775 0.173833 124.137 164.534)" stroke="#667085" stroke-width="2"/>
<line y1="-1" x2="5.97726" y2="-1" transform="matrix(-0.984775 -0.173833 0.173463 -0.98484 8.29443 162.103)" stroke="#667085" stroke-width="2"/>
<line y1="-1" x2="5.97783" y2="-1" transform="matrix(-0.939573 -0.34235 0.341691 -0.939813 21.5415 162.664)" stroke="#667085" stroke-width="2"/>
<line y1="-1" x2="5.98285" y2="-1" transform="matrix(0.341689 -0.939813 0.939572 0.342351 123.384 174.818)" stroke="#667085" stroke-width="2"/>
<line y1="-1" x2="5.98198" y2="-1" transform="matrix(0.49959 -0.866262 0.865789 0.50041 136.123 174.631)" stroke="#667085" stroke-width="2"/>
<line y1="-1" x2="5.9787" y2="-1" transform="matrix(-0.865788 -0.500411 0.499589 -0.866262 21.2095 173.51)" stroke="#667085" stroke-width="2"/>
<line y1="-1" x2="5.97978" y2="-1" transform="matrix(-0.765696 -0.643202 0.642373 -0.766392 34.2109 174.071)" stroke="#667085" stroke-width="2"/>
<line y1="-1" x2="5.9809" y2="-1" transform="matrix(-0.642375 -0.766391 0.765698 -0.643201 47.1074 174.444)" stroke="#667085" stroke-width="2"/>
<line y1="-1" x2="5.98198" y2="-1" transform="matrix(-0.49959 -0.866262 0.865788 -0.500411 59.9155 174.631)" stroke="#667085" stroke-width="2"/>
<line y1="-1" x2="5.98285" y2="-1" transform="matrix(-0.341689 -0.939813 0.939572 -0.342351 72.6548 174.818)" stroke="#667085" stroke-width="2"/>
<line y1="-1" x2="5.98342" y2="-1" transform="matrix(-0.173463 -0.98484 0.984775 -0.173833 85.3486 175.006)" stroke="#667085" stroke-width="2"/>
<line x1="97.0181" y1="175.006" x2="97.0181" y2="169.022" stroke="#667085" stroke-width="2"/>
<line y1="-1" x2="5.98342" y2="-1" transform="matrix(0.173464 -0.98484 0.984775 0.173832 110.689 175.006)" stroke="#667085" stroke-width="2"/>
<line y1="-1" x2="5.97783" y2="-1" transform="matrix(-0.939572 -0.342352 0.341688 -0.939813 8.09229 173.136)" stroke="#667085" stroke-width="2"/>
<line y1="-1" x2="5.98286" y2="-1" transform="matrix(0.341688 -0.939813 0.939572 0.342352 109.934 185.29)" stroke="#667085" stroke-width="2"/>
<line y1="-1" x2="5.98197" y2="-1" transform="matrix(0.499589 -0.866263 0.865788 0.500412 122.675 185.103)" stroke="#667085" stroke-width="2"/>
<line y1="-1" x2="5.98092" y2="-1" transform="matrix(0.642373 -0.766392 0.765697 0.643202 135.483 184.916)" stroke="#667085" stroke-width="2"/>
<line y1="-1" x2="5.9787" y2="-1" transform="matrix(-0.865788 -0.500411 0.499589 -0.866262 7.76221 183.981)" stroke="#667085" stroke-width="2"/>
<line y1="-1" x2="5.97977" y2="-1" transform="matrix(-0.765698 -0.643201 0.642374 -0.766391 20.7617 184.542)" stroke="#667085" stroke-width="2"/>
<line y1="-1" x2="5.98092" y2="-1" transform="matrix(-0.642373 -0.766392 0.765697 -0.643202 33.6582 184.916)" stroke="#667085" stroke-width="2"/>
<line y1="-1" x2="5.98198" y2="-1" transform="matrix(-0.499589 -0.866263 0.865788 -0.500411 46.4663 185.103)" stroke="#667085" stroke-width="2"/>
<line y1="-1" x2="5.98286" y2="-1" transform="matrix(-0.341688 -0.939813 0.939572 -0.342352 59.207 185.29)" stroke="#667085" stroke-width="2"/>
<line y1="-1" x2="5.98342" y2="-1" transform="matrix(-0.173463 -0.98484 0.984775 -0.173833 71.9014 185.477)" stroke="#667085" stroke-width="2"/>
<line x1="83.5708" y1="185.477" x2="83.5708" y2="179.493" stroke="#667085" stroke-width="2"/>
<line y1="-1" x2="5.98342" y2="-1" transform="matrix(0.173463 -0.98484 0.984775 0.173833 97.2402 185.477)" stroke="#667085" stroke-width="2"/>
<line y1="-1" x2="5.98285" y2="-1" transform="matrix(0.341689 -0.939813 0.939572 0.342351 96.4868 195.761)" stroke="#667085" stroke-width="2"/>
<line y1="-1" x2="5.98199" y2="-1" transform="matrix(0.499587 -0.866263 0.865787 0.500413 109.226 195.574)" stroke="#667085" stroke-width="2"/>
<line y1="-1" x2="5.9809" y2="-1" transform="matrix(0.642375 -0.766391 0.765698 0.643201 122.034 195.387)" stroke="#667085" stroke-width="2"/>
<line y1="-1" x2="5.97977" y2="-1" transform="matrix(0.765696 -0.643203 0.642372 0.766393 134.93 195.013)" stroke="#667085" stroke-width="2"/>
<line y1="-1" x2="5.97978" y2="-1" transform="matrix(-0.765696 -0.643202 0.642373 -0.766392 7.31396 195.013)" stroke="#667085" stroke-width="2"/>
<line y1="-1" x2="5.9809" y2="-1" transform="matrix(-0.642375 -0.766391 0.765698 -0.643201 20.2104 195.387)" stroke="#667085" stroke-width="2"/>
<line y1="-1" x2="5.98199" y2="-1" transform="matrix(-0.499588 -0.866263 0.865788 -0.500412 33.019 195.574)" stroke="#667085" stroke-width="2"/>
<line y1="-1" x2="5.98285" y2="-1" transform="matrix(-0.341689 -0.939813 0.939572 -0.342351 45.7578 195.761)" stroke="#667085" stroke-width="2"/>
<line y1="-1" x2="5.98341" y2="-1" transform="matrix(-0.173464 -0.98484 0.984775 -0.173832 58.4517 195.948)" stroke="#667085" stroke-width="2"/>
<line x1="70.1216" y1="195.948" x2="70.1216" y2="189.965" stroke="#667085" stroke-width="2"/>
<line y1="-1" x2="5.98341" y2="-1" transform="matrix(0.173465 -0.98484 0.984775 0.173832 83.793 195.948)" stroke="#667085" stroke-width="2"/>
</g>
</svg>
