<svg width="44" height="44" viewBox="0 0 44 44" fill="none" xmlns="http://www.w3.org/2000/svg">
<circle cx="22" cy="22" r="22" fill="white" fill-opacity="0.3"/>
<path fill-rule="evenodd" clip-rule="evenodd" d="M22 10C15.3753 10 10 15.3753 10 22C10 28.6248 15.3753 34 22 34C28.6117 34 34 28.6248 34 22C34 15.3753 28.6117 10 22 10ZM29.9262 15.5315C31.3579 17.2755 32.217 19.5011 32.243 21.9089C31.9046 21.8439 28.5206 21.154 25.1106 21.5835C25.0325 21.4143 24.9675 21.2321 24.8894 21.0499C24.6811 20.5554 24.4469 20.0477 24.2126 19.5662C27.9869 18.0304 29.705 15.8178 29.9262 15.5315ZM22 11.7701C24.603 11.7701 26.9848 12.7462 28.7939 14.3471C28.6117 14.6074 27.0629 16.6768 23.4186 18.0434C21.7397 14.9588 19.8786 12.4338 19.5922 12.0434C20.3601 11.8612 21.1671 11.7701 22 11.7701ZM17.6399 12.7332C17.9132 13.0976 19.7354 15.6356 21.4404 18.6551C16.6508 19.9306 12.4208 19.9046 11.9653 19.9046C12.6291 16.7289 14.7766 14.0868 17.6399 12.7332ZM11.744 22.0131C11.744 21.9089 11.744 21.8048 11.744 21.7007C12.1866 21.7136 17.1584 21.7787 22.2733 20.243C22.5727 20.8156 22.846 21.4013 23.1063 21.9869C22.9761 22.026 22.8329 22.0651 22.7028 22.1041C17.4187 23.8091 14.6074 28.4685 14.3731 28.859C12.7462 27.0499 11.744 24.6421 11.744 22.0131ZM22 32.256C19.6312 32.256 17.4447 31.449 15.7137 30.0954C15.8959 29.718 17.9783 25.7094 23.757 23.692C23.783 23.679 23.7961 23.679 23.8221 23.666C25.2668 27.4013 25.8525 30.5379 26.0087 31.436C24.7722 31.9696 23.4186 32.256 22 32.256ZM27.7136 30.4989C27.6096 29.8742 27.0629 26.8807 25.7223 23.1974C28.9371 22.6898 31.7484 23.5228 32.0998 23.6399C31.6573 26.4902 30.0173 28.9501 27.7136 30.4989Z" fill="white"/>
</svg>
