<svg width="44" height="44" viewBox="0 0 44 44" fill="none" xmlns="http://www.w3.org/2000/svg">
<circle cx="22" cy="22" r="22" fill="white" fill-opacity="0.3"/>
<g clip-path="url(#clip0_65_523)">
<path fill-rule="evenodd" clip-rule="evenodd" d="M22 10C15.3724 10 10 15.3808 10 22.0204C10 27.3304 13.438 31.8364 18.2068 33.4252C18.8068 33.5356 19.0252 33.1648 19.0252 32.8456C19.0252 32.5612 19.0156 31.804 19.0096 30.802C15.6712 31.528 14.9668 29.1904 14.9668 29.1904C14.422 27.8008 13.6348 27.4312 13.6348 27.4312C12.5452 26.6872 13.7176 26.7016 13.7176 26.7016C14.9212 26.7856 15.5548 27.94 15.5548 27.94C16.6252 29.776 18.364 29.2456 19.0468 28.9384C19.1572 28.162 19.4668 27.6328 19.81 27.3328C17.146 27.0292 14.344 25.9972 14.344 21.3916C14.344 20.08 14.812 19.006 15.5788 18.166C15.4552 17.8624 15.0436 16.6396 15.6964 14.986C15.6964 14.986 16.7044 14.662 18.9964 16.2172C19.9753 15.9502 20.9853 15.8142 22 15.8128C23.02 15.8176 24.046 15.9508 25.0048 16.2172C27.2956 14.662 28.3012 14.9848 28.3012 14.9848C28.9564 16.6396 28.5436 17.8624 28.4212 18.166C29.1892 19.006 29.6548 20.08 29.6548 21.3916C29.6548 26.0092 26.848 27.0256 24.1756 27.3232C24.6064 27.694 24.9892 28.4272 24.9892 29.5492C24.9892 31.1548 24.9748 32.452 24.9748 32.8456C24.9748 33.1672 25.1908 33.5416 25.8004 33.424C28.19 32.6225 30.2672 31.0904 31.7386 29.0441C33.2099 26.9977 34.001 24.5408 34 22.0204C34 15.3808 28.6264 10 22 10Z" fill="white"/>
</g>
<defs>
<clipPath id="clip0_65_523">
<rect width="24" height="24" fill="white" transform="translate(10 10)"/>
</clipPath>
</defs>
</svg>
