<svg width="30" height="30" viewBox="0 0 30 30" fill="none" xmlns="http://www.w3.org/2000/svg">
<g clip-path="url(#clip0_274_3490)">
<path d="M5.3125 2.41805e-06H24.6875C25.3853 -0.000672159 26.0764 0.139803 26.7213 0.413387C27.3661 0.686972 27.952 1.0883 28.4455 1.59439C28.9389 2.10048 29.3302 2.70141 29.597 3.36279C29.8637 4.02416 30.0007 4.73299 30 5.44872V24.5513C30.0007 25.267 29.8637 25.9758 29.597 26.6372C29.3302 27.2986 28.9389 27.8995 28.4455 28.4056C27.952 28.9117 27.3661 29.313 26.7213 29.5866C26.0764 29.8602 25.3853 30.0007 24.6875 30H5.3125C4.61467 30.0007 3.92356 29.8602 3.27872 29.5866C2.63388 29.313 2.04797 28.9117 1.55453 28.4056C1.06109 27.8995 0.669798 27.2986 0.403053 26.6372C0.136308 25.9758 -0.000655355 25.267 2.35759e-06 24.5513V5.44872C-0.000655355 4.73299 0.136308 4.02416 0.403053 3.36279C0.669798 2.70141 1.06109 2.10048 1.55453 1.59439C2.04797 1.0883 2.63388 0.686972 3.27872 0.413387C3.92356 0.139803 4.61467 -0.000672159 5.3125 2.41805e-06Z" fill="#000B1D"/>
<path d="M4.50248 13.1314C4.45459 13.1314 4.44262 13.1075 4.46656 13.0716L4.71796 12.7483C4.7419 12.7124 4.80176 12.6885 4.84965 12.6885H9.12344C9.17133 12.6885 9.1833 12.7244 9.15935 12.7603L8.95584 13.0716C8.9319 13.1075 8.87204 13.1434 8.83613 13.1434L4.50248 13.1314Z" fill="#2DBCAF"/>
<path d="M2.69486 14.233C2.64697 14.233 2.635 14.209 2.65894 14.1731L2.91034 13.8499C2.93429 13.814 2.99414 13.79 3.04203 13.79H8.50099C8.54888 13.79 8.57282 13.826 8.56085 13.8619L8.46508 14.1492C8.45311 14.1971 8.40522 14.221 8.35734 14.221L2.69486 14.233Z" fill="#2DBCAF"/>
<path d="M5.59183 15.3345C5.54395 15.3345 5.53197 15.2986 5.55592 15.2627L5.72352 14.9634C5.74746 14.9275 5.79535 14.8916 5.84323 14.8916H8.23751C8.2854 14.8916 8.30934 14.9275 8.30934 14.9754L8.2854 15.2627C8.2854 15.3106 8.23751 15.3465 8.2016 15.3465L5.59183 15.3345Z" fill="#2DBCAF"/>
<path d="M18.0184 12.9161C17.2642 13.1076 16.7495 13.2513 16.0072 13.4428C15.8277 13.4907 15.8157 13.5027 15.6601 13.3231C15.4805 13.1196 15.3488 12.9879 15.0974 12.8682C14.3432 12.4971 13.6129 12.6048 12.9306 13.0478C12.1165 13.5745 11.6975 14.3527 11.7095 15.3223C11.7215 16.2801 12.3799 17.0702 13.3256 17.2019C14.1397 17.3096 14.8221 17.0223 15.3608 16.4117C15.4685 16.2801 15.5643 16.1364 15.684 15.9688C15.253 15.9688 14.7143 15.9688 13.3735 15.9688C13.1221 15.9688 13.0623 15.8132 13.1461 15.6097C13.3017 15.2385 13.589 14.616 13.7566 14.3048C13.7925 14.2329 13.8763 14.1132 14.0559 14.1132C14.6664 14.1132 16.9171 14.1132 18.4135 14.1132C18.3895 14.4365 18.3895 14.7597 18.3417 15.0829C18.21 15.9449 17.8867 16.735 17.36 17.4293C16.4981 18.5666 15.3727 19.2729 13.9481 19.4645C12.7749 19.6201 11.6855 19.3926 10.7278 18.6743C9.84195 18.0039 9.33915 17.1181 9.20747 16.0167C9.05184 14.7118 9.43492 13.5386 10.225 12.5091C11.075 11.3957 12.2003 10.6894 13.577 10.438C14.7023 10.2345 15.7798 10.3662 16.7495 11.0246C17.3839 11.4436 17.8389 12.0182 18.1381 12.7126C18.21 12.8203 18.1621 12.8802 18.0184 12.9161Z" fill="#2DBCAF"/>
<path d="M21.9808 19.5363C20.8914 19.5123 19.8977 19.2011 19.0597 18.4828C18.3534 17.8722 17.9105 17.0941 17.7668 16.1723C17.5513 14.8195 17.9225 13.6224 18.7365 12.5569C19.6104 11.4077 20.6639 10.8091 22.0885 10.5577C23.3096 10.3422 24.4589 10.4619 25.5004 11.1682C26.4461 11.8147 27.0327 12.6886 27.1883 13.8379C27.3918 15.454 26.925 16.7709 25.8116 17.8962C25.0215 18.6983 24.0518 19.2011 22.9385 19.4285C22.6153 19.4884 22.292 19.5004 21.9808 19.5363ZM24.83 14.6998C24.818 14.5442 24.818 14.4245 24.7941 14.3048C24.5786 13.1196 23.4892 12.4492 22.3519 12.7126C21.2385 12.964 20.5203 13.6703 20.2569 14.7956C20.0414 15.7294 20.4963 16.6751 21.3583 17.0582C22.0167 17.3455 22.6751 17.3096 23.3096 16.9864C24.2553 16.4955 24.7701 15.7294 24.83 14.6998Z" fill="#2DBCAF"/>
</g>
<defs>
<clipPath id="clip0_274_3490">
<rect width="30" height="30" fill="white"/>
</clipPath>
</defs>
</svg>
