<?xml version="1.0" encoding="UTF-8"?>
<svg version="1.1" xmlns="http://www.w3.org/2000/svg" width="2048" height="2048">
<path d="M0 0 C2 1 2 1 2.90316772 3.17070007 C3.36561386 4.61893913 3.36561386 4.61893913 3.83740234 6.09643555 C4.19394394 7.20010468 4.55048553 8.3037738 4.91783142 9.44088745 C5.30330643 10.66051178 5.68878143 11.88013611 6.0859375 13.13671875 C6.49794842 14.42145022 6.91064833 15.70596091 7.32398987 16.99026489 C8.21381164 19.7599911 9.09883292 22.53118941 9.98019409 25.30361938 C11.38897093 29.73499025 12.80807055 34.16301238 14.22875977 38.59057617 C16.19641124 44.72554553 18.15981033 50.86185959 20.12060547 56.99902344 C23.96303263 69.02251495 27.84177503 81.03422408 31.72125244 93.04580688 C32.95029203 96.85211664 34.17824744 100.65877434 35.40576172 104.46557617 C41.59145622 123.64772849 47.79362482 142.82453029 54 162 C61.03177123 183.72564701 68.05452234 205.45416585 75.0625 227.1875 C75.4742935 228.46454892 75.88608753 229.74159766 76.29788208 231.01864624 C76.50172673 231.6508052 76.70557138 232.28296415 76.91559315 232.93427944 C77.94630389 236.13067483 78.97704344 239.32706092 80.0078125 242.5234375 C80.31416909 243.47344478 80.31416909 243.47344478 80.62671471 244.44264412 C85.55813146 259.73437656 90.49730842 275.02360052 95.4375 290.3125 C95.76372786 291.32212107 95.76372786 291.32212107 96.09654617 292.35213852 C98.0765598 298.47993684 100.05664146 304.60771317 102.03681946 310.73545837 C105.10953052 320.24409916 108.18186679 329.75286097 111.25390625 339.26171875 C111.47035231 339.93168192 111.68679836 340.60164509 111.90980339 341.29191017 C113.00270994 344.67477881 114.09560997 348.05764955 115.18850708 351.44052124 C117.15686344 357.53321316 119.12527758 363.62588641 121.09368706 369.71856117 C122.18746038 373.10404003 123.28123 376.48952007 124.375 379.875 C124.81249998 381.22916667 125.24999998 382.58333334 125.6875 383.9375 C126.5625 386.64583333 127.4375 389.35416667 128.3125 392.0625 C128.52906281 392.73281344 128.74562563 393.40312689 128.96875095 394.09375286 C129.40624785 395.44790997 129.84374467 396.8020671 130.28124142 398.15622425 C131.37503839 401.54178737 132.46883659 404.92735009 133.56263733 408.31291199 C135.53082774 414.40491277 137.49900958 420.49691633 139.46714497 426.5889349 C140.56012176 429.97205233 141.65310583 433.35516741 142.74609375 436.73828125 C142.96253477 437.40822931 143.17897579 438.07817738 143.40197563 438.7684269 C146.47571314 448.28249123 149.54986142 457.79642276 152.62425804 467.31027412 C154.6037628 473.43598675 156.58314915 479.56173764 158.5625 485.6875 C158.7800658 486.36082241 158.99763161 487.03414482 159.22179031 487.72787094 C164.14885323 502.97627503 169.07398761 518.22529715 173.9921875 533.4765625 C174.29861207 534.42677371 174.29861207 534.42677371 174.61122704 535.39618111 C175.64155453 538.59122881 176.67184397 541.78628879 177.70211792 544.98135376 C177.90596478 545.61351933 178.10981163 546.24568489 178.31983566 546.89700699 C178.73153291 548.17375741 179.14322776 549.45050861 179.5549202 550.72726059 C186.12649672 571.10689503 192.71191678 591.48202003 199.30560303 611.85451126 C206.64414508 634.52851468 213.97699474 657.20433965 221.29528809 679.8848877 C221.92467196 681.83524795 222.55422744 683.78555272 223.18383789 685.73583984 C225.44476997 692.74011699 227.70266015 699.74535822 229.95526123 706.75231934 C230.6585598 708.93859713 231.36288425 711.12454514 232.06817627 713.31018066 C233.07037059 716.41683734 234.06887319 719.52465651 235.06640625 722.6328125 C235.36554428 723.55754364 235.66468231 724.48227478 235.97288513 725.43502808 C236.37604698 726.69526291 236.37604698 726.69526291 236.78735352 727.98095703 C237.14072533 729.07925339 237.14072533 729.07925339 237.50123596 730.19973755 C238 732 238 732 238 734 C494.74 734 751.48 734 1016 734 C1010.37414966 739.62585034 1010.37414966 739.62585034 1006.98828125 742.09375 C1006.23998047 742.64224609 1005.49167969 743.19074219 1004.72070312 743.75585938 C1003.52864258 744.61920898 1003.52864258 744.61920898 1002.3125 745.5 C1001.47525391 746.11166016 1000.63800781 746.72332031 999.77539062 747.35351562 C993.45905751 751.9614491 987.11786983 756.53538649 980.77270508 761.10351562 C975.32094282 765.03215729 969.90425567 769.00631677 964.5 773 C957.6229644 778.08205078 950.70966917 783.11002797 943.76953125 788.10546875 C938.31916162 792.03392016 932.90325984 796.00705268 927.5 800 C920.6229644 805.08205078 913.70966917 810.11002797 906.76953125 815.10546875 C901.31916162 819.03392016 895.90325984 823.00705268 890.5 827 C883.6229644 832.08205078 876.70966917 837.11002797 869.76953125 842.10546875 C864.31916162 846.03392016 858.90325984 850.00705268 853.5 854 C846.6229644 859.08205078 839.70966917 864.11002797 832.76953125 869.10546875 C827.31916162 873.03392016 821.90325984 877.00705268 816.5 881 C809.6229644 886.08205078 802.70966917 891.11002797 795.76953125 896.10546875 C790.31916038 900.03392105 784.90332922 904.00714521 779.5 908 C769.6460488 915.27959514 759.71425404 922.44830513 749.77050781 929.60449219 C740.50847805 936.27234294 731.28415107 942.98677039 722.10571289 949.76928711 C716.02455095 954.25816363 709.90404491 958.68990813 703.76953125 963.10546875 C698.31916162 967.03392016 692.90325984 971.00705268 687.5 975 C680.6229644 980.08205078 673.70966917 985.11002797 666.76953125 990.10546875 C661.31916162 994.03392016 655.90325984 998.00705268 650.5 1002 C643.6229644 1007.08205078 636.70966917 1012.11002797 629.76953125 1017.10546875 C624.31916162 1021.03392016 618.90325984 1025.00705268 613.5 1029 C606.6229644 1034.08205078 599.70966917 1039.11002797 592.76953125 1044.10546875 C587.31916162 1048.03392016 581.90325984 1052.00705268 576.5 1056 C569.6229644 1061.08205078 562.70966917 1066.11002797 555.76953125 1071.10546875 C550.31916038 1075.03392105 544.90332922 1079.00714521 539.5 1083 C529.6460488 1090.27959514 519.71425404 1097.44830513 509.77050781 1104.60449219 C500.50847805 1111.27234294 491.28415107 1117.98677039 482.10571289 1124.76928711 C476.02455095 1129.25816363 469.90404491 1133.68990813 463.76953125 1138.10546875 C458.31916162 1142.03392016 452.90325984 1146.00705268 447.5 1150 C441.35983702 1154.53751033 435.19644112 1159.0396483 429 1163.5 C422.68282016 1168.04903724 416.39226365 1172.63240898 410.125 1177.25 C409.3316626 1177.83410645 408.5383252 1178.41821289 407.72094727 1179.02001953 C404.19886464 1181.61857312 400.68694916 1184.2279914 397.20703125 1186.8828125 C396.64677246 1187.30916992 396.08651367 1187.73552734 395.50927734 1188.17480469 C394.05346729 1189.2864484 392.60268153 1190.40466362 391.15234375 1191.5234375 C389 1193 389 1193 387 1193 C387.23120544 1193.71423126 387.46241089 1194.42846252 387.70062256 1195.16433716 C398.14782465 1227.43835414 408.59076342 1259.71371493 419 1292 C425.9868472 1313.67093262 432.9883961 1335.3370649 440 1357 C447.03182476 1378.72562964 454.05452236 1400.45416592 461.0625 1422.1875 C461.4742935 1423.46454892 461.88608753 1424.74159766 462.29788208 1426.01864624 C462.50172673 1426.6508052 462.70557138 1427.28296415 462.91559315 1427.93427944 C463.94630389 1431.13067483 464.97704344 1434.32706092 466.0078125 1437.5234375 C466.31416909 1438.47344478 466.31416909 1438.47344478 466.62671471 1439.44264412 C471.55813146 1454.73437656 476.49730842 1470.02360052 481.4375 1485.3125 C481.76372786 1486.32212107 481.76372786 1486.32212107 482.09654617 1487.35213852 C484.0765598 1493.47993684 486.05664146 1499.60771317 488.03681946 1505.73545837 C491.10953052 1515.24409916 494.18186455 1524.75286169 497.25390625 1534.26171875 C497.47037308 1534.93174423 497.6868399 1535.60176971 497.90986633 1536.292099 C499.65846053 1541.70449573 501.40703169 1547.1168999 503.1556015 1552.5293045 C504.68575466 1557.26563361 506.21591825 1562.00195936 507.74609375 1566.73828125 C508.07076378 1567.74322884 508.07076378 1567.74322884 508.4019928 1568.76847839 C511.47572449 1578.28252559 514.54986699 1587.79643997 517.62425804 1597.31027412 C519.6037628 1603.43598675 521.58314915 1609.56173764 523.5625 1615.6875 C523.88884871 1616.69748362 523.88884871 1616.69748362 524.22179031 1617.72787094 C529.14885323 1632.97627503 534.07398761 1648.22529715 538.9921875 1663.4765625 C539.29861207 1664.42677371 539.29861207 1664.42677371 539.61122704 1665.39618111 C540.64155453 1668.59122881 541.67184397 1671.78628879 542.70211792 1674.98135376 C542.90596478 1675.61351933 543.10981163 1676.24568489 543.31983566 1676.89700699 C543.73153291 1678.17375741 544.14322776 1679.45050861 544.5549202 1680.72726059 C551.35718766 1701.82230889 558.1747347 1722.91238214 565 1744 C572.84800661 1768.24752111 580.6820277 1792.49950391 588.50268555 1816.75585938 C592.88772354 1830.35568639 597.2766405 1843.95424592 601.671875 1857.55078125 C602.14957509 1859.02866001 602.62727184 1860.50653985 603.10496521 1861.98442078 C605.87316659 1870.54848701 605.87316659 1870.54848701 608.64260864 1879.1121521 C611.06547313 1886.60237023 613.48571246 1894.0934257 615.89996338 1901.58642578 C616.63129804 1903.85586398 617.36334977 1906.12507123 618.09613037 1908.39404297 C619.10225418 1911.51173679 620.10450196 1914.63064728 621.10546875 1917.75 C621.40222 1918.6675708 621.69897125 1919.5851416 622.00471497 1920.53051758 C622.27023666 1921.36091553 622.53575836 1922.19131348 622.80932617 1923.046875 C623.04092941 1923.76713867 623.27253265 1924.48740234 623.51115417 1925.22949219 C624 1927 624 1927 624 1929 C619.20995421 1927.43981366 615.73833903 1924.73160237 611.8125 1921.6875 C610.37998129 1920.59494317 608.9463461 1919.50384901 607.51171875 1918.4140625 C606.76970215 1917.84977539 606.02768555 1917.28548828 605.26318359 1916.70410156 C601.58859432 1913.93725872 597.85931422 1911.24791365 594.125 1908.5625 C593.37508789 1908.02254395 592.62517578 1907.48258789 591.85253906 1906.92626953 C589.56908052 1905.28317431 587.28456483 1903.64155655 585 1902 C574.99221308 1894.80084303 565.02057355 1887.55741782 555.10571289 1880.23071289 C549.76164384 1876.28592959 544.39098455 1872.38037592 539 1868.5 C531.99784758 1863.45992181 525.04386744 1858.35786615 518.10546875 1853.23046875 C512.76142324 1849.28584596 507.39089219 1845.38030944 502 1841.5 C494.99784758 1836.45992181 488.04386744 1831.35786615 481.10546875 1826.23046875 C475.76142324 1822.28584596 470.39089219 1818.38030944 465 1814.5 C457.99784758 1809.45992181 451.04386744 1804.35786615 444.10546875 1799.23046875 C438.76142324 1795.28584596 433.39089219 1791.38030944 428 1787.5 C420.99784758 1782.45992181 414.04386744 1777.35786615 407.10546875 1772.23046875 C401.76142324 1768.28584596 396.39089219 1764.38030944 391 1760.5 C384.80345586 1756.03979047 378.64023977 1751.53740365 372.5 1747 C363.38251634 1740.26446941 354.20059231 1733.62136363 345 1727 C334.9936743 1719.79877656 325.02060494 1712.55744101 315.10571289 1705.23071289 C309.76164384 1701.28592959 304.39098455 1697.38037592 299 1693.5 C291.99784758 1688.45992181 285.04386744 1683.35786615 278.10546875 1678.23046875 C272.76142324 1674.28584596 267.39089219 1670.38030944 262 1666.5 C254.99784758 1661.45992181 248.04386744 1656.35786615 241.10546875 1651.23046875 C235.76142324 1647.28584596 230.39089219 1643.38030944 225 1639.5 C217.99784758 1634.45992181 211.04386744 1629.35786615 204.10546875 1624.23046875 C198.76142324 1620.28584596 193.39089219 1616.38030944 188 1612.5 C180.99784758 1607.45992181 174.04386744 1602.35786615 167.10546875 1597.23046875 C161.76142324 1593.28584596 156.39089219 1589.38030944 151 1585.5 C144.80345586 1581.03979047 138.64023977 1576.53740365 132.5 1572 C123.38251634 1565.26446941 114.20059231 1558.62136363 105 1552 C94.9936743 1544.79877656 85.02060494 1537.55744101 75.10571289 1530.23071289 C69.76164384 1526.28592959 64.39098455 1522.38037592 59 1518.5 C52.00296402 1513.46360458 45.05365285 1508.36582468 38.12084961 1503.24145508 C32.62784259 1499.18621879 27.10450033 1495.17546575 21.5625 1491.1875 C14.64348888 1486.20848993 7.79062073 1481.15288279 1 1476 C-5.09798867 1479.98984227 -11.02844776 1484.15131964 -16.875 1488.5 C-18.54815876 1489.73830601 -20.22133638 1490.97658653 -21.89453125 1492.21484375 C-22.74096191 1492.84245605 -23.58739258 1493.47006836 -24.45947266 1494.11669922 C-38.30879993 1504.38324838 -52.23682675 1514.53443116 -66.22949219 1524.60449219 C-75.49152195 1531.27234294 -84.71584893 1537.98677039 -93.89428711 1544.76928711 C-99.97544905 1549.25816363 -106.09595509 1553.68990813 -112.23046875 1558.10546875 C-117.68083838 1562.03392016 -123.09674016 1566.00705268 -128.5 1570 C-135.3770356 1575.08205078 -142.29033083 1580.11002797 -149.23046875 1585.10546875 C-154.68083838 1589.03392016 -160.09674016 1593.00705268 -165.5 1597 C-172.3770356 1602.08205078 -179.29033083 1607.11002797 -186.23046875 1612.10546875 C-191.68083838 1616.03392016 -197.09674016 1620.00705268 -202.5 1624 C-209.3770356 1629.08205078 -216.29033083 1634.11002797 -223.23046875 1639.10546875 C-228.68083838 1643.03392016 -234.09674016 1647.00705268 -239.5 1651 C-246.3770356 1656.08205078 -253.29033083 1661.11002797 -260.23046875 1666.10546875 C-265.68083962 1670.03392105 -271.09667078 1674.00714521 -276.5 1678 C-286.3539512 1685.27959514 -296.28574596 1692.44830513 -306.22949219 1699.60449219 C-315.49152195 1706.27234294 -324.71584893 1712.98677039 -333.89428711 1719.76928711 C-339.97544905 1724.25816363 -346.09595509 1728.68990813 -352.23046875 1733.10546875 C-357.68083838 1737.03392016 -363.09674016 1741.00705268 -368.5 1745 C-375.3770356 1750.08205078 -382.29033083 1755.11002797 -389.23046875 1760.10546875 C-394.68083838 1764.03392016 -400.09674016 1768.00705268 -405.5 1772 C-412.3770356 1777.08205078 -419.29033083 1782.11002797 -426.23046875 1787.10546875 C-431.68083838 1791.03392016 -437.09674016 1795.00705268 -442.5 1799 C-449.3770356 1804.08205078 -456.29033083 1809.11002797 -463.23046875 1814.10546875 C-468.68083838 1818.03392016 -474.09674016 1822.00705268 -479.5 1826 C-486.3770356 1831.08205078 -493.29033083 1836.11002797 -500.23046875 1841.10546875 C-505.68083962 1845.03392105 -511.09667078 1849.00714521 -516.5 1853 C-526.3539512 1860.27959514 -536.28574596 1867.44830513 -546.22949219 1874.60449219 C-555.49152195 1881.27234294 -564.71584893 1887.98677039 -573.89428711 1894.76928711 C-579.96541445 1899.25075648 -586.07272329 1903.67962399 -592.2019043 1908.08129883 C-596.21942156 1910.9719461 -600.21083641 1913.89301788 -604.17578125 1916.85546875 C-605.03365234 1917.49484375 -605.89152344 1918.13421875 -606.77539062 1918.79296875 C-608.42735678 1920.02653855 -610.0759813 1921.26460022 -611.72070312 1922.5078125 C-612.46900391 1923.06597656 -613.21730469 1923.62414063 -613.98828125 1924.19921875 C-614.97115112 1924.93918091 -614.97115112 1924.93918091 -615.97387695 1925.6940918 C-618.22686817 1927.14622459 -620.50541677 1928.03471444 -623 1929 C-620.77737065 1920.45655862 -618.15233046 1912.06979984 -615.4140625 1903.6796875 C-614.9603094 1902.28275603 -614.50679948 1900.88574554 -614.05351257 1899.48866272 C-613.08576355 1896.50750045 -612.11646466 1893.52684859 -611.14590454 1890.54660034 C-609.59876049 1885.79568282 -608.05526518 1881.04358493 -606.51245117 1876.29125977 C-604.91535541 1871.37211429 -603.31815207 1866.45300426 -601.71983337 1861.53425598 C-596.78300342 1846.3405955 -591.86719906 1831.14018534 -586.95832443 1815.9374733 C-586.09152081 1813.25317706 -585.22446541 1810.56896219 -584.3574152 1807.8847456 C-579.90686047 1794.10651693 -575.45965389 1780.32720985 -571.015625 1766.546875 C-570.81110907 1765.9127022 -570.60659313 1765.2785294 -570.39587975 1764.62513924 C-568.74542423 1759.50728571 -567.0949921 1754.38942464 -565.44467545 1749.27152634 C-558.41086374 1727.45858489 -551.36031589 1705.6510912 -544.30277252 1683.84581757 C-537.50346927 1662.83821296 -530.71385465 1641.82751846 -523.9375 1620.8125 C-523.5257065 1619.53545108 -523.11391247 1618.25840234 -522.70211792 1616.98135376 C-522.39635094 1616.03311532 -522.39635094 1616.03311532 -522.08440685 1615.06572056 C-521.05369611 1611.86932517 -520.02295656 1608.67293908 -518.9921875 1605.4765625 C-518.78794977 1604.84322432 -518.58371204 1604.20988613 -518.37328529 1603.55735588 C-513.44186854 1588.26562344 -508.50269158 1572.97639948 -503.5625 1557.6875 C-503.23627214 1556.67787893 -503.23627214 1556.67787893 -502.90345383 1555.64786148 C-500.9234402 1549.52006316 -498.94335854 1543.39228683 -496.96318054 1537.26454163 C-493.89046948 1527.75590084 -490.81813321 1518.24713903 -487.74609375 1508.73828125 C-487.42142467 1507.7333365 -487.42142467 1507.7333365 -487.09019661 1506.70808983 C-485.99729006 1503.32522119 -484.90439003 1499.94235045 -483.81149292 1496.55947876 C-481.84313656 1490.46678684 -479.87472242 1484.37411359 -477.90631294 1478.28143883 C-476.81253962 1474.89595997 -475.71877 1471.51047993 -474.625 1468.125 C-474.18750002 1466.77083333 -473.75000002 1465.41666666 -473.3125 1464.0625 C-473.0959375 1463.3921875 -472.879375 1462.721875 -472.65625 1462.03125 C-470.6875014 1455.93750433 -470.6875014 1455.93750433 -470.03124905 1453.90624714 C-469.59375215 1452.55209003 -469.15625533 1451.1979329 -468.71875858 1449.84377575 C-467.62496161 1446.45821263 -466.53116341 1443.07264991 -465.43736267 1439.68708801 C-463.46917226 1433.59508723 -461.50099042 1427.50308367 -459.53285503 1421.4110651 C-458.43987824 1418.02794767 -457.34689417 1414.64483259 -456.25390625 1411.26171875 C-455.92924472 1410.25679666 -455.92924472 1410.25679666 -455.59802437 1409.2315731 C-452.52428686 1399.71750877 -449.45013858 1390.20357724 -446.37574196 1380.68972588 C-444.3962372 1374.56401325 -442.41685085 1368.43826236 -440.4375 1362.3125 C-440.2199342 1361.63917759 -440.00236839 1360.96585518 -439.77820969 1360.27212906 C-435.05792178 1345.66365771 -430.33896575 1331.05475954 -425.62704086 1316.44358826 C-425.00718836 1314.52150211 -424.38727941 1312.59943418 -423.7673645 1310.67736816 C-421.7208707 1304.33183304 -419.67536887 1297.98598061 -417.63134766 1291.63964844 C-413.33246034 1278.29751315 -409.01466558 1264.96179345 -404.67013741 1251.63444328 C-403.13191409 1246.91376969 -401.59663074 1242.19213888 -400.06130886 1237.47052097 C-398.58091949 1232.91922324 -397.09544547 1228.36962602 -395.60618401 1223.82122421 C-394.68520945 1221.00441962 -393.7690219 1218.18607479 -392.85410309 1215.36729813 C-392.42861437 1214.05981068 -392.00112487 1212.75297235 -391.57146454 1211.44684982 C-388.56583286 1202.38254671 -388.56583286 1202.38254671 -387 1193 C-387.80179688 1192.42894531 -388.60359375 1191.85789062 -389.4296875 1191.26953125 C-403.32831318 1181.36184716 -417.16598429 1171.37535548 -430.89331055 1161.23144531 C-436.23769475 1157.2864035 -441.60868512 1153.38061369 -447 1149.5 C-454.00215242 1144.45992181 -460.95613256 1139.35786615 -467.89453125 1134.23046875 C-473.23857676 1130.28584596 -478.60910781 1126.38030944 -484 1122.5 C-491.00215242 1117.45992181 -497.95613256 1112.35786615 -504.89453125 1107.23046875 C-510.23857676 1103.28584596 -515.60910781 1099.38030944 -521 1095.5 C-527.19654414 1091.03979047 -533.35976023 1086.53740365 -539.5 1082 C-548.61748366 1075.26446941 -557.79940769 1068.62136363 -567 1062 C-577.0063257 1054.79877656 -586.97939506 1047.55744101 -596.89428711 1040.23071289 C-602.23835616 1036.28592959 -607.60901545 1032.38037592 -613 1028.5 C-620.00215242 1023.45992181 -626.95613256 1018.35786615 -633.89453125 1013.23046875 C-639.23857676 1009.28584596 -644.60910781 1005.38030944 -650 1001.5 C-657.00215242 996.45992181 -663.95613256 991.35786615 -670.89453125 986.23046875 C-676.23857676 982.28584596 -681.60910781 978.38030944 -687 974.5 C-694.00215242 969.45992181 -700.95613256 964.35786615 -707.89453125 959.23046875 C-713.23857676 955.28584596 -718.60910781 951.38030944 -724 947.5 C-731.00215242 942.45992181 -737.95613256 937.35786615 -744.89453125 932.23046875 C-750.23857676 928.28584596 -755.60910781 924.38030944 -761 920.5 C-767.19654414 916.03979047 -773.35976023 911.53740365 -779.5 907 C-788.61748366 900.26446941 -797.79940769 893.62136363 -807 887 C-817.0063257 879.79877656 -826.97939506 872.55744101 -836.89428711 865.23071289 C-842.23835616 861.28592959 -847.60901545 857.38037592 -853 853.5 C-860.00215242 848.45992181 -866.95613256 843.35786615 -873.89453125 838.23046875 C-879.23857676 834.28584596 -884.60910781 830.38030944 -890 826.5 C-897.00215242 821.45992181 -903.95613256 816.35786615 -910.89453125 811.23046875 C-916.23857676 807.28584596 -921.60910781 803.38030944 -927 799.5 C-934.00215242 794.45992181 -940.95613256 789.35786615 -947.89453125 784.23046875 C-953.23857676 780.28584596 -958.60910781 776.38030944 -964 772.5 C-970.99225343 767.467047 -977.93929498 762.37601455 -984.86376953 757.25024414 C-988.89569641 754.27025106 -992.94270007 751.31523335 -997.0234375 748.40234375 C-997.83748047 747.82033203 -998.65152344 747.23832031 -999.49023438 746.63867188 C-1001.03289108 745.53821816 -1002.57829194 744.44159684 -1004.12695312 743.34960938 C-1004.82498047 742.85138672 -1005.52300781 742.35316406 -1006.2421875 741.83984375 C-1006.8491748 741.41050537 -1007.45616211 740.98116699 -1008.08154297 740.53881836 C-1010.55682133 738.55336665 -1012.75622846 736.24377154 -1015 734 C-758.26 734 -501.52 734 -237 734 C-235.515 728.555 -235.515 728.555 -234 723 C-233.30795623 720.73314291 -232.59882655 718.47136299 -231.86547852 716.2175293 C-231.46898102 714.99452118 -231.07248352 713.77151306 -230.66397095 712.51144409 C-230.23565167 711.19902402 -229.80729563 709.88661594 -229.37890625 708.57421875 C-228.92247956 707.16927749 -228.46629932 705.76425616 -228.01034546 704.35916138 C-227.03811245 701.3645909 -226.06434593 698.37052544 -225.08932495 695.37686157 C-223.53613981 690.60781625 -221.98656594 685.83760259 -220.43774414 681.06713867 C-219.90928688 679.43952929 -219.38082924 677.81192004 -218.85237122 676.18431091 C-218.58970774 675.37530272 -218.32704426 674.56629452 -218.05642128 673.73277092 C-217.25491714 671.26452119 -216.45308289 668.79637891 -215.65116882 666.32826233 C-210.72453126 651.16343851 -205.82763322 635.98912925 -200.9375 620.8125 C-199.30110396 615.73557301 -197.66437322 610.65875402 -196.02734375 605.58203125 C-195.82372538 604.95055113 -195.620107 604.31907101 -195.41031837 603.66845512 C-190.28523082 587.77519037 -185.14242648 571.88766104 -180 556 C-172.96812175 534.27438771 -165.94547762 512.54583401 -158.9375 490.8125 C-158.5257065 489.53545108 -158.11391247 488.25840234 -157.70211792 486.98135376 C-157.49827327 486.3491948 -157.29442862 485.71703585 -157.08440685 485.06572056 C-156.05369611 481.86932517 -155.02295656 478.67293908 -153.9921875 475.4765625 C-153.78794977 474.84322432 -153.58371204 474.20988613 -153.37328529 473.55735588 C-148.44186854 458.26562344 -143.50269158 442.97639948 -138.5625 427.6875 C-138.34501476 427.01441929 -138.12752953 426.34133858 -137.90345383 425.64786148 C-135.9234402 419.52006316 -133.94335854 413.39228683 -131.96318054 407.26454163 C-128.89046948 397.75590084 -125.81813321 388.24713903 -122.74609375 378.73828125 C-122.52964769 378.06831808 -122.31320164 377.39835491 -122.09019661 376.70808983 C-120.99729006 373.32522119 -119.90439003 369.94235045 -118.81149292 366.55947876 C-116.84313656 360.46678684 -114.87472242 354.37411359 -112.90631294 348.28143883 C-111.81253962 344.89595997 -110.71877 341.51047993 -109.625 338.125 C-109.18750002 336.77083333 -108.75000002 335.41666666 -108.3125 334.0625 C-107.98765625 333.05703125 -107.98765625 333.05703125 -107.65625 332.03125 C-105.68750238 325.93750736 -105.68750238 325.93750736 -105.03124905 323.90624714 C-104.59375215 322.55209003 -104.15625533 321.1979329 -103.71875858 319.84377575 C-102.62496161 316.45821263 -101.53116341 313.07264991 -100.43736267 309.68708801 C-98.46917226 303.59508723 -96.50099042 297.50308367 -94.53285503 291.4110651 C-93.43987824 288.02794767 -92.34689417 284.64483259 -91.25390625 281.26171875 C-91.03746523 280.59177069 -90.82102421 279.92182262 -90.59802437 279.2315731 C-87.52428686 269.71750877 -84.45013858 260.20357724 -81.37574196 250.68972588 C-79.3962372 244.56401325 -77.41685085 238.43826236 -75.4375 232.3125 C-75.2199342 231.63917759 -75.00236839 230.96585518 -74.77820969 230.27212906 C-69.85114677 215.02372497 -64.92601239 199.77470285 -60.0078125 184.5234375 C-59.80352945 183.88996336 -59.59924641 183.25648922 -59.38877296 182.60381889 C-58.35844547 179.40877119 -57.32815603 176.21371121 -56.29788208 173.01864624 C-56.09403522 172.38648067 -55.89018837 171.75431511 -55.68016434 171.10299301 C-55.26846709 169.82624259 -54.85677224 168.54949139 -54.4450798 167.27273941 C-49.4896038 151.9049218 -44.52955035 136.53859921 -39.55859375 121.17578125 C-39.33009106 120.46958586 -39.10158836 119.76339046 -38.86616135 119.03579521 C-36.55743352 111.90086251 -34.24810989 104.76612285 -31.938097 97.6316061 C-27.27469951 83.22811764 -22.61745179 68.82270383 -17.97998428 54.4108429 C-17.27629838 52.2241537 -16.57237863 50.03753993 -15.86837769 47.85095215 C-15.40899394 46.42407312 -14.94961281 44.99719324 -14.49023438 43.5703125 C-14.1537749 42.52525417 -14.1537749 42.52525417 -13.81051826 41.45908356 C-12.4986257 37.38361802 -11.18849935 33.30759 -9.87970448 29.23112869 C-8.88610383 26.13799191 -7.89009444 23.04563057 -6.89453125 19.953125 C-6.54244095 18.85429993 -6.19035065 17.75547485 -5.82759094 16.62335205 C-4.02199943 11.02199393 -2.12078964 5.49007211 0 0 Z " fill="#F8D64D" transform="translate(1032,68)"/>
</svg>
