<svg width="68" height="24" viewBox="0 0 68 24" fill="none" xmlns="http://www.w3.org/2000/svg">
<g style="mix-blend-mode:multiply">
<rect width="68" height="24" rx="12" fill="#ECFDF3"/>
<path d="M14 15.5V8.5M14 8.5L10.5 12M14 8.5L17.5 12" stroke="#12B76A" stroke-width="1.5" stroke-linecap="round" stroke-linejoin="round"/>
<path d="M28.4529 20.0227C27.8464 20.0227 27.3244 19.9432 26.8869 19.7841C26.4527 19.625 26.0981 19.4145 25.823 19.1527C25.5479 18.8909 25.3424 18.6042 25.2065 18.2926L26.4842 17.7656C26.5737 17.9115 26.693 18.0656 26.8422 18.228C26.9946 18.3937 27.2001 18.5346 27.4586 18.6506C27.7205 18.7666 28.0569 18.8246 28.4679 18.8246C29.0313 18.8246 29.497 18.687 29.8649 18.4119C30.2328 18.1402 30.4167 17.706 30.4167 17.1094V15.608H30.3223C30.2328 15.7704 30.1035 15.951 29.9345 16.1499C29.7688 16.3487 29.5401 16.5211 29.2484 16.6669C28.9567 16.8127 28.5772 16.8857 28.1099 16.8857C27.5067 16.8857 26.9631 16.7448 26.4792 16.4631C25.9986 16.178 25.6175 15.7588 25.3358 15.2053C25.0574 14.6484 24.9181 13.964 24.9181 13.152C24.9181 12.34 25.0557 11.6439 25.3308 11.0639C25.6092 10.4839 25.9904 10.0398 26.4743 9.73153C26.9582 9.41998 27.5067 9.2642 28.1199 9.2642C28.5938 9.2642 28.9766 9.34375 29.2683 9.50284C29.56 9.65862 29.787 9.84091 29.9494 10.0497C30.1151 10.2585 30.2427 10.4425 30.3322 10.6016H30.4416V9.36364H31.8983V17.169C31.8983 17.8253 31.7458 18.3639 31.4409 18.7848C31.1359 19.2057 30.7233 19.5173 30.2029 19.7195C29.6859 19.9216 29.1026 20.0227 28.4529 20.0227ZM28.438 15.6527C28.8656 15.6527 29.2269 15.5533 29.5218 15.3544C29.8201 15.1522 30.0455 14.8639 30.198 14.4893C30.3538 14.1115 30.4316 13.6591 30.4316 13.1321C30.4316 12.6184 30.3554 12.166 30.2029 11.7749C30.0505 11.3838 29.8268 11.0788 29.5318 10.8601C29.2368 10.638 28.8722 10.527 28.438 10.527C27.9906 10.527 27.6177 10.643 27.3194 10.875C27.0211 11.1037 26.7958 11.4152 26.6433 11.8097C26.4941 12.2041 26.4196 12.6449 26.4196 13.1321C26.4196 13.6326 26.4958 14.0717 26.6483 14.4496C26.8007 14.8274 27.0261 15.1224 27.3244 15.3345C27.626 15.5466 27.9972 15.6527 28.438 15.6527ZM33.8919 17V9.36364H35.3287V10.5767H35.4082C35.5474 10.1657 35.7927 9.84257 36.144 9.60724C36.4986 9.36861 36.8997 9.24929 37.3471 9.24929C37.4399 9.24929 37.5493 9.2526 37.6752 9.25923C37.8045 9.26586 37.9056 9.27415 37.9785 9.28409V10.706C37.9189 10.6894 37.8128 10.6712 37.6603 10.6513C37.5079 10.6281 37.3554 10.6165 37.2029 10.6165C36.8516 10.6165 36.5384 10.6911 36.2633 10.8402C35.9915 10.986 35.7761 11.1899 35.617 11.4517C35.4579 11.7102 35.3784 12.0052 35.3784 12.3366V17H33.8919ZM42.2081 17.1541C41.4922 17.1541 40.8674 16.9901 40.3338 16.6619C39.8002 16.3338 39.3859 15.8748 39.0909 15.2848C38.7959 14.6948 38.6484 14.0054 38.6484 13.2166C38.6484 12.4245 38.7959 11.7318 39.0909 11.1385C39.3859 10.5452 39.8002 10.0845 40.3338 9.75639C40.8674 9.42827 41.4922 9.2642 42.2081 9.2642C42.924 9.2642 43.5488 9.42827 44.0824 9.75639C44.616 10.0845 45.0303 10.5452 45.3253 11.1385C45.6203 11.7318 45.7678 12.4245 45.7678 13.2166C45.7678 14.0054 45.6203 14.6948 45.3253 15.2848C45.0303 15.8748 44.616 16.3338 44.0824 16.6619C43.5488 16.9901 42.924 17.1541 42.2081 17.1541ZM42.2131 15.9062C42.6771 15.9062 43.0616 15.7836 43.3665 15.5384C43.6714 15.2931 43.8968 14.9666 44.0426 14.5589C44.1918 14.1513 44.2663 13.7022 44.2663 13.2116C44.2663 12.7244 44.1918 12.277 44.0426 11.8693C43.8968 11.4583 43.6714 11.1286 43.3665 10.88C43.0616 10.6314 42.6771 10.5071 42.2131 10.5071C41.7457 10.5071 41.358 10.6314 41.0497 10.88C40.7448 11.1286 40.5178 11.4583 40.3686 11.8693C40.2228 12.277 40.1499 12.7244 40.1499 13.2116C40.1499 13.7022 40.2228 14.1513 40.3686 14.5589C40.5178 14.9666 40.7448 15.2931 41.0497 15.5384C41.358 15.7836 41.7457 15.9062 42.2131 15.9062ZM48.8501 17L46.603 9.36364H48.1392L49.6357 14.9716H49.7102L51.2116 9.36364H52.7479L54.2393 14.9467H54.3139L55.8004 9.36364H57.3366L55.0945 17H53.5781L52.027 11.4865H51.9126L50.3615 17H48.8501Z" fill="#027A48"/>
</g>
</svg>
