<svg width="84" height="72" viewBox="0 0 84 72" fill="none" xmlns="http://www.w3.org/2000/svg">
<path d="M0 18C0 8.05888 8.05888 0 18 0H66C75.9411 0 84 8.05888 84 18V54C84 63.9411 75.9411 72 66 72H18C8.05888 72 0 63.9411 0 54V18Z" fill="#FF732C"/>
<path d="M47.8335 35.1667H46.1668L43.6668 40.1667L40.3335 30.1667L37.8335 35.1667H36.1668M41.9888 24.5597C38.6565 20.664 33.0997 19.6161 28.9247 23.1834C24.7496 26.7506 24.1618 32.715 27.4405 36.934C29.917 40.1207 36.9523 46.5183 40.2468 49.4581C40.8525 49.9986 41.1553 50.2688 41.5099 50.3752C41.8177 50.4675 42.1598 50.4675 42.4676 50.3752C42.8222 50.2688 43.125 49.9986 43.7307 49.4581C47.0252 46.5183 54.0605 40.1207 56.537 36.934C59.8157 32.715 59.2997 26.7131 55.0528 23.1834C50.806 19.6536 45.321 20.664 41.9888 24.5597Z" stroke="white" stroke-width="2" stroke-linecap="round" stroke-linejoin="round"/>
</svg>
