<svg width="84" height="72" viewBox="0 0 84 72" fill="none" xmlns="http://www.w3.org/2000/svg">
<path d="M0 18C0 8.05888 8.05888 0 18 0H66C75.9411 0 84 8.05888 84 18V54C84 63.9411 75.9411 72 66 72H18C8.05888 72 0 63.9411 0 54V18Z" fill="#4541F1"/>
<path d="M30.3333 31.0001V44.3334M37.8333 31.0001V44.3334M46.1667 31.0001V44.3334M53.6667 31.0001V44.3334M27 47.0001L27 48.3334C27 49.2669 27 49.7336 27.1817 50.0901C27.3414 50.4037 27.5964 50.6587 27.91 50.8185C28.2665 51.0001 28.7332 51.0001 29.6667 51.0001H54.3333C55.2668 51.0001 55.7335 51.0001 56.09 50.8185C56.4036 50.6587 56.6586 50.4037 56.8183 50.0901C57 49.7336 57 49.2669 57 48.3334V47.0001C57 46.0667 57 45.6 56.8183 45.2435C56.6586 44.9299 56.4036 44.6749 56.09 44.5151C55.7335 44.3334 55.2668 44.3334 54.3333 44.3334H29.6667C28.7332 44.3334 28.2665 44.3334 27.91 44.5151C27.5964 44.6749 27.3414 44.9299 27.1817 45.2435C27 45.6 27 46.0667 27 47.0001ZM41.4215 21.1287L29.0882 23.8694C28.3431 24.035 27.9705 24.1178 27.6924 24.3181C27.4472 24.4948 27.2545 24.7349 27.1352 25.0127C27 25.3277 27 25.7093 27 26.4726L27 28.3334C27 29.2669 27 29.7336 27.1817 30.0901C27.3414 30.4037 27.5964 30.6587 27.91 30.8185C28.2665 31.0001 28.7332 31.0001 29.6667 31.0001H54.3333C55.2668 31.0001 55.7335 31.0001 56.09 30.8185C56.4036 30.6587 56.6586 30.4037 56.8183 30.0901C57 29.7336 57 29.2669 57 28.3334V26.4726C57 25.7093 57 25.3277 56.8647 25.0127C56.7455 24.7349 56.5528 24.4948 56.3076 24.3181C56.0295 24.1178 55.6569 24.035 54.9118 23.8694L42.5785 21.1287C42.3626 21.0807 42.2547 21.0567 42.1456 21.0471C42.0487 21.0386 41.9513 21.0386 41.8544 21.0471C41.7453 21.0567 41.6374 21.0807 41.4215 21.1287Z" stroke="white" stroke-width="2" stroke-linecap="round" stroke-linejoin="round"/>
</svg>
