<svg width="30" height="30" viewBox="0 0 30 30" fill="none" xmlns="http://www.w3.org/2000/svg">
<g clip-path="url(#clip0_274_3469)">
<path d="M5.3125 2.41805e-06H24.6875C25.3853 -0.000672159 26.0764 0.139803 26.7213 0.413387C27.3661 0.686972 27.952 1.0883 28.4455 1.59439C28.9389 2.10048 29.3302 2.70141 29.5969 3.36279C29.8637 4.02416 30.0007 4.73299 30 5.44872V24.5513C30.0007 25.267 29.8637 25.9758 29.5969 26.6372C29.3302 27.2986 28.9389 27.8995 28.4455 28.4056C27.952 28.9117 27.3661 29.313 26.7213 29.5866C26.0764 29.8602 25.3853 30.0007 24.6875 30H5.3125C4.61467 30.0007 3.92356 29.8602 3.27872 29.5866C2.63388 29.313 2.04797 28.9117 1.55453 28.4056C1.06109 27.8995 0.669798 27.2986 0.403053 26.6372C0.136308 25.9758 -0.000655355 25.267 2.35759e-06 24.5513V5.44872C-0.000655355 4.73299 0.136308 4.02416 0.403053 3.36279C0.669798 2.70141 1.06109 2.10048 1.55453 1.59439C2.04797 1.0883 2.63388 0.686972 3.27872 0.413387C3.92356 0.139803 4.61467 -0.000672159 5.3125 2.41805e-06Z" fill="#F16529"/>
<path d="M10.3499 8.99421H15.0099V5.7002H6.75L6.8288 6.58391L7.63846 15.6614H15.0099V12.3673H10.651L10.3499 8.99421ZM11.0923 17.3084H7.78564L8.24709 22.4805L14.9947 24.3536L15.0099 24.3495V20.9223L14.9954 20.9261L11.3269 19.9355L11.0923 17.3084Z" fill="#EBEBEB"/>
<path d="M14.9986 15.6614H19.0549L18.6724 19.9335L14.9985 20.9251V24.352L21.7515 22.4805L21.801 21.924L22.5752 13.2519L22.6555 12.3673H14.9986V15.6614ZM14.9986 8.98617V8.99421H22.9553L23.0213 8.25387L23.1714 6.58391L23.2501 5.7002H14.9986V8.98627V8.98617Z" fill="white"/>
</g>
<defs>
<clipPath id="clip0_274_3469">
<rect width="30" height="30" fill="white"/>
</clipPath>
</defs>
</svg>
