<svg width="30" height="30" viewBox="0 0 30 30" fill="none" xmlns="http://www.w3.org/2000/svg">
<g clip-path="url(#clip0_274_3527)">
<path d="M5.3125 2.41805e-06H24.6875C25.3853 -0.000672159 26.0764 0.139803 26.7213 0.413387C27.3661 0.686972 27.952 1.0883 28.4455 1.59439C28.9389 2.10048 29.3302 2.70141 29.5969 3.36279C29.8637 4.02416 30.0007 4.73299 30 5.44872V24.5513C30.0007 25.267 29.8637 25.9758 29.5969 26.6372C29.3302 27.2986 28.9389 27.8995 28.4455 28.4056C27.952 28.9117 27.3661 29.313 26.7213 29.5866C26.0764 29.8602 25.3853 30.0007 24.6875 30H5.3125C4.61467 30.0007 3.92356 29.8602 3.27872 29.5866C2.63388 29.313 2.04797 28.9117 1.55453 28.4056C1.06109 27.8995 0.669798 27.2986 0.403053 26.6372C0.136308 25.9758 -0.000655355 25.267 2.35759e-06 24.5513V5.44872C-0.000655355 4.73299 0.136308 4.02416 0.403053 3.36279C0.669798 2.70141 1.06109 2.10048 1.55453 1.59439C2.04797 1.0883 2.63388 0.686972 3.27872 0.413387C3.92356 0.139803 4.61467 -0.000672159 5.3125 2.41805e-06Z" fill="#F0F0F0"/>
<path d="M20.906 22.0609H20.8154V22.0103H21.0591V22.0609H20.9692V22.3135H20.906V22.0609ZM21.392 22.0741H21.3905L21.3009 22.3136H21.2598L21.1707 22.0741H21.1696V22.3136H21.11V22.0103H21.1977L21.2803 22.2251L21.3627 22.0103H21.4501V22.3136H21.3919V22.0741H21.392Z" fill="#E76F00"/>
<path d="M12.8029 15.8594C12.8029 15.8594 12.1732 16.2256 13.2511 16.3495C14.5569 16.4985 15.2243 16.4771 16.6634 16.2048C16.6634 16.2048 17.0418 16.442 17.5701 16.6475C14.3441 18.0301 10.2691 16.5674 12.8029 15.8594Z" fill="#5382A1"/>
<path d="M12.4089 14.0552C12.4089 14.0552 11.7026 14.578 12.7813 14.6896C14.1763 14.8335 15.2779 14.8453 17.1841 14.4782C17.1841 14.4782 17.4478 14.7455 17.8624 14.8917C13.9619 16.0322 9.61757 14.9816 12.4089 14.0552Z" fill="#5382A1"/>
<path d="M15.732 10.9947C16.5269 11.9099 15.5232 12.7334 15.5232 12.7334C15.5232 12.7334 17.5415 11.6915 16.6146 10.3867C15.7488 9.16996 15.0849 8.5654 18.679 6.48096C18.679 6.48096 13.0375 7.88995 15.732 10.9947Z" fill="#E76F00"/>
<path d="M19.9986 17.1941C19.9986 17.1941 20.4647 17.5781 19.4854 17.8751C17.6233 18.4392 11.7352 18.6095 10.0995 17.8976C9.51148 17.6418 10.6141 17.2868 10.961 17.2123C11.3227 17.1339 11.5294 17.1485 11.5294 17.1485C10.8755 16.6878 7.30284 18.053 9.71468 18.444C16.2921 19.5106 21.7047 17.9636 19.9986 17.1941Z" fill="#5382A1"/>
<path d="M13.1061 12.1858C13.1061 12.1858 10.111 12.8972 12.0455 13.1555C12.8622 13.2649 14.4905 13.2401 16.0071 13.113C17.2466 13.0085 18.4912 12.7862 18.4912 12.7862C18.4912 12.7862 18.0542 12.9733 17.738 13.1893C14.6965 13.9892 8.821 13.617 10.5125 12.7988C11.943 12.1073 13.1061 12.1858 13.1061 12.1858Z" fill="#5382A1"/>
<path d="M18.4786 15.1893C21.5704 13.5827 20.1409 12.0387 19.1431 12.2467C18.8986 12.2976 18.7895 12.3417 18.7895 12.3417C18.7895 12.3417 18.8803 12.1995 19.0537 12.138C21.0276 11.444 22.5457 14.1847 18.4165 15.2702C18.4165 15.2703 18.4643 15.2275 18.4786 15.1893Z" fill="#5382A1"/>
<path d="M16.6145 3.11523C16.6145 3.11523 18.3268 4.82809 14.9905 7.46197C12.3151 9.57479 14.3804 10.7795 14.9894 12.1559C13.4277 10.7469 12.2817 9.50652 13.0505 8.35213C14.179 6.65758 17.3054 5.836 16.6145 3.11523Z" fill="#E76F00"/>
<path d="M13.4099 19.5428C16.3776 19.7328 20.9349 19.4374 21.0428 18.0332C21.0428 18.0332 20.8353 18.5655 18.5901 18.9883C16.0571 19.465 12.933 19.4093 11.0801 19.1038C11.0801 19.1038 11.4594 19.4178 13.4099 19.5428Z" fill="#5382A1"/>
<path d="M12.9235 24.9084C12.6435 25.1512 12.3478 25.2875 12.0825 25.2875C11.7037 25.2875 11.4991 25.0604 11.4991 24.6961C11.4991 24.3021 11.7183 24.014 12.5979 24.014H12.9234V24.9084H12.9235ZM13.696 25.78V23.082C13.696 22.3928 13.3029 21.938 12.3551 21.938C11.8018 21.938 11.3171 22.0746 10.9232 22.2489L11.0369 22.7264C11.3471 22.6126 11.7486 22.5066 12.1426 22.5066C12.6886 22.5066 12.9235 22.7264 12.9235 23.1809V23.5219H12.651C11.3245 23.5219 10.7261 24.0368 10.7261 24.8097C10.7261 25.4767 11.1204 25.8559 11.8629 25.8559C12.3401 25.8559 12.6964 25.6588 13.0294 25.3705L13.0899 25.78H13.696V25.78Z" fill="#E76F00"/>
<path d="M16.2739 25.78H15.3104L14.1509 22.0063H14.9923L15.7118 24.3249L15.8717 25.0222C16.2357 24.014 16.4932 22.9912 16.6219 22.0063H17.4404C17.2211 23.249 16.8265 24.613 16.2739 25.78Z" fill="#E76F00"/>
<path d="M19.9699 24.9084C19.6895 25.1512 19.3932 25.2875 19.1279 25.2875C18.7498 25.2875 18.5447 25.0604 18.5447 24.6961C18.5447 24.3021 18.7644 24.014 19.6439 24.014H19.9699V24.9084ZM20.7424 25.78V23.082C20.7424 22.3928 20.3483 21.938 19.4016 21.938C18.8479 21.938 18.3631 22.0746 17.9693 22.2489L18.0828 22.7264C18.3931 22.6126 18.7954 22.5066 19.1891 22.5066C19.7347 22.5066 19.9699 22.7264 19.9699 23.1809V23.5219H19.697C18.3701 23.5219 17.772 24.0368 17.772 24.8097C17.772 25.4767 18.166 25.8559 18.9083 25.8559C19.3859 25.8559 19.742 25.6588 20.0756 25.3705L20.1363 25.78H20.7424V25.78Z" fill="#E76F00"/>
<path d="M9.87895 26.4206C9.65873 26.7422 9.30304 26.9965 8.91364 27.1405L8.53223 26.6916C8.82862 26.5395 9.08282 26.2939 9.20092 26.0651C9.30308 25.8616 9.34537 25.5994 9.34537 24.9723V20.6641H10.1661V24.9133C10.1661 25.7517 10.099 26.0903 9.87895 26.4206Z" fill="#E76F00"/>
</g>
<defs>
<clipPath id="clip0_274_3527">
<rect width="30" height="30" fill="white"/>
</clipPath>
</defs>
</svg>
