<svg width="32" height="32" viewBox="0 0 32 32" fill="none" xmlns="http://www.w3.org/2000/svg">
<path d="M27.9998 21.3334V9.60004C27.9998 8.10657 27.9998 7.35983 27.7092 6.7894C27.4535 6.28763 27.0456 5.87969 26.5438 5.62402C25.9734 5.33337 25.2266 5.33337 23.7332 5.33337H8.2665C6.77303 5.33337 6.02629 5.33337 5.45586 5.62402C4.9541 5.87969 4.54615 6.28763 4.29049 6.7894C3.99984 7.35983 3.99984 8.10657 3.99984 9.60004V21.3334M6.22206 26.6667H25.7776C26.6043 26.6667 27.0176 26.6667 27.3567 26.5758C28.2769 26.3293 28.9957 25.6105 29.2423 24.6902C29.3332 24.3511 29.3332 23.9378 29.3332 23.1111C29.3332 22.6978 29.3332 22.4912 29.2877 22.3216C29.1645 21.8615 28.8051 21.5021 28.3449 21.3788C28.1754 21.3334 27.9687 21.3334 27.5554 21.3334H4.44428C4.03096 21.3334 3.8243 21.3334 3.65475 21.3788C3.19462 21.5021 2.83523 21.8615 2.71194 22.3216C2.6665 22.4912 2.6665 22.6978 2.6665 23.1111C2.6665 23.9378 2.6665 24.3511 2.75737 24.6902C3.00395 25.6105 3.72274 26.3293 4.64299 26.5758C4.9821 26.6667 5.39542 26.6667 6.22206 26.6667Z" stroke="white" stroke-width="2" stroke-linecap="round" stroke-linejoin="round"/>
</svg>
