<svg width="596" height="271" viewBox="0 0 596 271" fill="none" xmlns="http://www.w3.org/2000/svg">
<path d="M236.5 22.4764C236.5 13.221 243.904 5.66625 253.157 5.47978L506.868 0.367238C516.72 0.168692 524.677 8.36275 524.189 18.2055L522.228 57.7591C521.747 67.4666 529.488 75.6009 539.207 75.6009H561.5C570.889 75.6009 578.5 83.212 578.5 92.6009V101.189V124.451V157.499C578.5 161.682 576.957 165.719 574.167 168.837L572.867 170.289C570.44 173 567.207 174.861 563.644 175.599L555.47 177.29C547.18 179.005 541.416 186.557 541.947 195.005L544.354 233.24C545.043 244.198 535.319 252.926 524.499 251.061L513.408 249.148C512.454 248.984 511.487 248.901 510.519 248.901H487.612L254.99 269.373C245.052 270.247 236.5 262.415 236.5 252.438V22.4764Z" fill="white"/>
</svg>