<svg width="394" height="48" viewBox="0 0 394 48" fill="none" xmlns="http://www.w3.org/2000/svg">
<path d="M74.0604 36.5756V14.5256H87.1371V17.8016H77.3573V23.1251H85.6154V26.4011H77.3573V36.5756H74.0604ZM100.385 20.8256H103.682V36.5756H100.369L100.242 34.2919C99.7775 35.1004 99.1488 35.7514 98.3563 36.2449C97.5638 36.7384 96.6286 36.9851 95.5507 36.9851C94.3883 36.9851 93.2947 36.7699 92.2697 36.3394C91.2447 35.8984 90.3412 35.2894 89.5592 34.5124C88.7878 33.7354 88.1855 32.8429 87.7522 31.8349C87.319 30.8164 87.1024 29.7244 87.1024 28.5589C87.1024 27.4354 87.3137 26.3801 87.7364 25.3931C88.1591 24.3956 88.7455 23.5241 89.4958 22.7786C90.2461 22.0331 91.1126 21.4504 92.0953 21.0304C93.0886 20.5999 94.1506 20.3846 95.2813 20.3846C96.4331 20.3846 97.4475 20.6471 98.3246 21.1721C99.2122 21.6866 99.9466 22.3481 100.528 23.1566L100.385 20.8256ZM95.4715 33.8194C96.4014 33.8194 97.215 33.5936 97.9125 33.1421C98.6099 32.6801 99.1488 32.0606 99.5292 31.2836C99.9202 30.5066 100.116 29.6456 100.116 28.7006C100.116 27.7451 99.9202 26.8789 99.5292 26.1019C99.1382 25.3249 98.594 24.7106 97.8966 24.2591C97.2098 23.7971 96.4014 23.5661 95.4715 23.5661C94.5521 23.5661 93.7121 23.7971 92.9512 24.2591C92.1904 24.7211 91.5881 25.3406 91.1443 26.1176C90.7005 26.8946 90.4785 27.7556 90.4785 28.7006C90.4785 29.6561 90.7057 30.5224 91.1601 31.2994C91.6251 32.0659 92.2327 32.6801 92.9829 33.1421C93.7438 33.5936 94.5733 33.8194 95.4715 33.8194ZM116.886 32.1026L119.834 33.6934C119.116 34.6909 118.202 35.4889 117.092 36.0874C115.993 36.6859 114.799 36.9851 113.51 36.9851C112.051 36.9851 110.72 36.6124 109.515 35.8669C108.321 35.1214 107.365 34.1239 106.646 32.8744C105.938 31.6144 105.584 30.2231 105.584 28.7006C105.584 27.5456 105.791 26.4694 106.203 25.4719C106.615 24.4639 107.18 23.5819 107.899 22.8259C108.628 22.0594 109.473 21.4609 110.435 21.0304C111.396 20.5999 112.421 20.3846 113.51 20.3846C114.799 20.3846 115.993 20.6839 117.092 21.2824C118.202 21.8809 119.116 22.6841 119.834 23.6921L116.886 25.2829C116.442 24.7579 115.924 24.3589 115.333 24.0859C114.741 23.8024 114.133 23.6606 113.51 23.6606C112.643 23.6606 111.856 23.8969 111.148 24.3694C110.451 24.8314 109.896 25.4456 109.484 26.2121C109.082 26.9681 108.881 27.7976 108.881 28.7006C108.881 29.5931 109.087 30.4226 109.5 31.1891C109.912 31.9451 110.466 32.5541 111.164 33.0161C111.872 33.4781 112.654 33.7091 113.51 33.7091C114.165 33.7091 114.788 33.5621 115.38 33.2681C115.972 32.9741 116.474 32.5856 116.886 32.1026ZM129.267 36.9851C127.809 36.9851 126.478 36.6124 125.273 35.8669C124.079 35.1214 123.123 34.1239 122.404 32.8744C121.696 31.6144 121.342 30.2231 121.342 28.7006C121.342 27.5456 121.548 26.4694 121.96 25.4719C122.372 24.4639 122.938 23.5819 123.656 22.8259C124.385 22.0594 125.231 21.4609 126.192 21.0304C127.154 20.5999 128.179 20.3846 129.267 20.3846C130.483 20.3846 131.598 20.6366 132.612 21.1406C133.626 21.6341 134.493 22.3219 135.211 23.2039C135.93 24.0754 136.458 25.0834 136.796 26.2279C137.135 27.3619 137.235 28.5694 137.098 29.8504H124.877C125.014 30.5749 125.278 31.2311 125.669 31.8191C126.071 32.3966 126.578 32.8534 127.191 33.1894C127.814 33.5254 128.507 33.6986 129.267 33.7091C130.071 33.7091 130.8 33.5096 131.455 33.1106C132.121 32.7116 132.665 32.1604 133.087 31.4569L136.432 32.2286C135.798 33.6251 134.842 34.7696 133.563 35.6621C132.284 36.5441 130.853 36.9851 129.267 36.9851ZM124.766 27.3461H133.769C133.663 26.5901 133.394 25.9076 132.961 25.2986C132.538 24.6791 132.004 24.1909 131.36 23.8339C130.726 23.4664 130.028 23.2826 129.267 23.2826C128.517 23.2826 127.82 23.4611 127.175 23.8181C126.541 24.1751 126.013 24.6634 125.59 25.2829C125.178 25.8919 124.903 26.5796 124.766 27.3461ZM139.367 36.5756V33.6619C140.117 33.0424 140.979 32.3231 141.951 31.5041C142.923 30.6746 143.911 29.7979 144.915 28.8739C145.919 27.9394 146.843 27.0101 147.689 26.0861C148.534 25.1516 149.216 24.2696 149.733 23.4401C150.262 22.6001 150.526 21.8704 150.526 21.2509C150.526 20.5474 150.352 19.9069 150.003 19.3294C149.665 18.7414 149.205 18.2741 148.624 17.9276C148.043 17.5706 147.398 17.3921 146.69 17.3921C145.982 17.3921 145.332 17.5706 144.74 17.9276C144.159 18.2741 143.689 18.7414 143.33 19.3294C142.981 19.9069 142.807 20.5474 142.807 21.2509H139.51C139.51 19.9174 139.837 18.7151 140.493 17.6441C141.158 16.5626 142.03 15.7069 143.108 15.0769C144.196 14.4364 145.39 14.1161 146.69 14.1161C148 14.1161 149.195 14.4364 150.272 15.0769C151.35 15.7174 152.211 16.5784 152.855 17.6599C153.5 18.7309 153.823 19.9279 153.823 21.2509C153.823 21.9859 153.669 22.7419 153.363 23.5189C153.056 24.2959 152.629 25.0886 152.079 25.8971C151.541 26.7056 150.912 27.5246 150.193 28.3541C149.475 29.1836 148.703 30.0131 147.879 30.8426C147.055 31.6721 146.215 32.4911 145.359 33.2996H154.013V36.5756H139.367ZM157.802 36.5756V14.5256H170.878V17.8016H161.099V23.1251H169.357V26.4011H161.099V36.5756H157.802ZM184.126 20.8256H187.423V36.5756H184.111L183.984 34.2919C183.519 35.1004 182.89 35.7514 182.097 36.2449C181.305 36.7384 180.37 36.9851 179.293 36.9851C178.13 36.9851 177.036 36.7699 176.011 36.3394C174.986 35.8984 174.083 35.2894 173.301 34.5124C172.53 33.7354 171.927 32.8429 171.494 31.8349C171.061 30.8164 170.844 29.7244 170.844 28.5589C170.844 27.4354 171.055 26.3801 171.478 25.3931C171.9 24.3956 172.487 23.5241 173.238 22.7786C173.988 22.0331 174.854 21.4504 175.837 21.0304C176.831 20.5999 177.892 20.3846 179.022 20.3846C180.174 20.3846 181.189 20.6471 182.066 21.1721C182.953 21.6866 183.689 22.3481 184.27 23.1566L184.126 20.8256ZM179.213 33.8194C180.143 33.8194 180.956 33.5936 181.654 33.1421C182.351 32.6801 182.89 32.0606 183.27 31.2836C183.661 30.5066 183.858 29.6456 183.858 28.7006C183.858 27.7451 183.661 26.8789 183.27 26.1019C182.879 25.3249 182.336 24.7106 181.639 24.2591C180.952 23.7971 180.143 23.5661 179.213 23.5661C178.293 23.5661 177.454 23.7971 176.693 24.2591C175.932 24.7211 175.33 25.3406 174.886 26.1176C174.442 26.8946 174.22 27.7556 174.22 28.7006C174.22 29.6561 174.447 30.5224 174.901 31.2994C175.366 32.0659 175.975 32.6801 176.725 33.1421C177.486 33.5936 178.314 33.8194 179.213 33.8194ZM200.628 32.1026L203.576 33.6934C202.857 34.6909 201.944 35.4889 200.834 36.0874C199.735 36.6859 198.541 36.9851 197.252 36.9851C195.794 36.9851 194.462 36.6124 193.258 35.8669C192.064 35.1214 191.107 34.1239 190.388 32.8744C189.68 31.6144 189.327 30.2231 189.327 28.7006C189.327 27.5456 189.532 26.4694 189.944 25.4719C190.356 24.4639 190.922 23.5819 191.641 22.8259C192.37 22.0594 193.215 21.4609 194.177 21.0304C195.139 20.5999 196.164 20.3846 197.252 20.3846C198.541 20.3846 199.735 20.6839 200.834 21.2824C201.944 21.8809 202.857 22.6841 203.576 23.6921L200.628 25.2829C200.184 24.7579 199.666 24.3589 199.074 24.0859C198.482 23.8024 197.876 23.6606 197.252 23.6606C196.386 23.6606 195.598 23.8969 194.89 24.3694C194.192 24.8314 193.638 25.4456 193.226 26.2121C192.824 26.9681 192.624 27.7976 192.624 28.7006C192.624 29.5931 192.829 30.4226 193.241 31.1891C193.653 31.9451 194.209 32.5541 194.906 33.0161C195.614 33.4781 196.396 33.7091 197.252 33.7091C197.907 33.7091 198.531 33.5621 199.122 33.2681C199.714 32.9741 200.215 32.5856 200.628 32.1026ZM213.009 36.9851C211.551 36.9851 210.219 36.6124 209.015 35.8669C207.821 35.1214 206.865 34.1239 206.147 32.8744C205.439 31.6144 205.084 30.2231 205.084 28.7006C205.084 27.5456 205.291 26.4694 205.703 25.4719C206.115 24.4639 206.679 23.5819 207.398 22.8259C208.127 22.0594 208.972 21.4609 209.934 21.0304C210.896 20.5999 211.921 20.3846 213.009 20.3846C214.224 20.3846 215.34 20.6366 216.354 21.1406C217.369 21.6341 218.235 22.3219 218.954 23.2039C219.672 24.0754 220.201 25.0834 220.539 26.2279C220.877 27.3619 220.977 28.5694 220.839 29.8504H208.619C208.757 30.5749 209.021 31.2311 209.412 31.8191C209.813 32.3966 210.321 32.8534 210.933 33.1894C211.557 33.5254 212.248 33.6986 213.009 33.7091C213.812 33.7091 214.541 33.5096 215.196 33.1106C215.862 32.7116 216.407 32.1604 216.83 31.4569L220.174 32.2286C219.539 33.6251 218.584 34.7696 217.305 35.6621C216.027 36.5441 214.594 36.9851 213.009 36.9851ZM208.508 27.3461H217.511C217.405 26.5901 217.136 25.9076 216.703 25.2986C216.28 24.6791 215.746 24.1909 215.101 23.8339C214.467 23.4664 213.77 23.2826 213.009 23.2826C212.259 23.2826 211.561 23.4611 210.917 23.8181C210.283 24.1751 209.754 24.6634 209.332 25.2829C208.92 25.8919 208.645 26.5796 208.508 27.3461ZM239.268 36.9851C238.053 36.9851 236.885 36.7961 235.764 36.4181C234.644 36.0401 233.668 35.4994 232.833 34.7959C231.998 34.0819 231.4 33.2366 231.041 32.2601L234.133 31.1104C234.312 31.6144 234.655 32.0659 235.162 32.4649C235.68 32.8534 236.293 33.1579 237.001 33.3784C237.719 33.5989 238.476 33.7091 239.268 33.7091C240.114 33.7091 240.906 33.5726 241.646 33.2996C242.396 33.0266 242.998 32.6486 243.453 32.1656C243.918 31.6826 244.15 31.1156 244.15 30.4646C244.15 29.7926 243.907 29.2414 243.421 28.8109C242.946 28.3804 242.333 28.0391 241.582 27.7871C240.843 27.5351 240.071 27.3461 239.268 27.2201C237.715 26.9681 236.32 26.6006 235.084 26.1176C233.858 25.6346 232.886 24.9574 232.167 24.0859C231.459 23.2144 231.104 22.0804 231.104 20.6839C231.104 19.3714 231.48 18.2269 232.231 17.2504C232.991 16.2739 233.989 15.5179 235.226 14.9824C236.472 14.4364 237.821 14.1634 239.268 14.1634C240.462 14.1634 241.614 14.3524 242.724 14.7304C243.844 15.0979 244.826 15.6386 245.672 16.3526C246.528 17.0561 247.141 17.9119 247.51 18.9199L244.387 20.0381C244.208 19.5236 243.865 19.0774 243.358 18.6994C242.85 18.3109 242.238 18.0064 241.519 17.7859C240.811 17.5654 240.061 17.4551 239.268 17.4551C238.423 17.4446 237.63 17.5811 236.891 17.8646C236.161 18.1376 235.564 18.5156 235.099 18.9986C234.634 19.4816 234.401 20.0434 234.401 20.6839C234.401 21.4714 234.619 22.0699 235.052 22.4794C235.485 22.8889 236.066 23.1934 236.796 23.3929C237.535 23.5819 238.359 23.7551 239.268 23.9126C240.726 24.1436 242.073 24.5269 243.309 25.0624C244.556 25.5979 245.556 26.3119 246.306 27.2044C247.067 28.0864 247.447 29.1731 247.447 30.4646C247.447 31.7666 247.067 32.9111 246.306 33.8981C245.556 34.8746 244.556 35.6359 243.309 36.1819C242.073 36.7174 240.726 36.9851 239.268 36.9851ZM260.934 32.1026L263.882 33.6934C263.163 34.6909 262.25 35.4889 261.14 36.0874C260.041 36.6859 258.847 36.9851 257.558 36.9851C256.1 36.9851 254.769 36.6124 253.564 35.8669C252.37 35.1214 251.413 34.1239 250.694 32.8744C249.986 31.6144 249.633 30.2231 249.633 28.7006C249.633 27.5456 249.838 26.4694 250.25 25.4719C250.662 24.4639 251.229 23.5819 251.947 22.8259C252.676 22.0594 253.522 21.4609 254.483 21.0304C255.445 20.5999 256.47 20.3846 257.558 20.3846C258.847 20.3846 260.041 20.6839 261.14 21.2824C262.25 21.8809 263.163 22.6841 263.882 23.6921L260.934 25.2829C260.49 24.7579 259.972 24.3589 259.38 24.0859C258.789 23.8024 258.182 23.6606 257.558 23.6606C256.692 23.6606 255.904 23.8969 255.196 24.3694C254.498 24.8314 253.944 25.4456 253.532 26.2121C253.131 26.9681 252.93 27.7976 252.93 28.7006C252.93 29.5931 253.135 30.4226 253.547 31.1891C253.959 31.9451 254.515 32.5541 255.212 33.0161C255.92 33.4781 256.702 33.7091 257.558 33.7091C258.213 33.7091 258.837 33.5621 259.429 33.2681C260.02 32.9741 260.522 32.5856 260.934 32.1026ZM278.673 20.8256H281.97V36.5756H278.658L278.531 34.2919C278.066 35.1004 277.436 35.7514 276.644 36.2449C275.851 36.7384 274.917 36.9851 273.839 36.9851C272.677 36.9851 271.582 36.7699 270.557 36.3394C269.532 35.8984 268.629 35.2894 267.848 34.5124C267.076 33.7354 266.474 32.8429 266.041 31.8349C265.607 30.8164 265.39 29.7244 265.39 28.5589C265.39 27.4354 265.601 26.3801 266.024 25.3931C266.447 24.3956 267.034 23.5241 267.784 22.7786C268.534 22.0331 269.401 21.4504 270.384 21.0304C271.377 20.5999 272.438 20.3846 273.569 20.3846C274.721 20.3846 275.735 20.6471 276.612 21.1721C277.5 21.6866 278.235 22.3481 278.816 23.1566L278.673 20.8256ZM273.759 33.8194C274.689 33.8194 275.503 33.5936 276.2 33.1421C276.897 32.6801 277.436 32.0606 277.817 31.2836C278.208 30.5066 278.404 29.6456 278.404 28.7006C278.404 27.7451 278.208 26.8789 277.817 26.1019C277.426 25.3249 276.882 24.7106 276.185 24.2591C275.498 23.7971 274.689 23.5661 273.759 23.5661C272.84 23.5661 272 23.7971 271.24 24.2591C270.479 24.7211 269.876 25.3406 269.433 26.1176C268.989 26.8946 268.767 27.7556 268.767 28.7006C268.767 29.6561 268.993 30.5224 269.448 31.2994C269.913 32.0659 270.521 32.6801 271.271 33.1421C272.032 33.5936 272.861 33.8194 273.759 33.8194ZM289.207 17.2504V20.8256H293.676V24.1016H289.207V36.5756H285.91V24.1016H284.024V20.8256H285.91V17.2504C285.91 16.3894 286.121 15.6071 286.544 14.9036C286.966 14.1896 287.532 13.6226 288.24 13.2026C288.959 12.7826 289.756 12.5726 290.633 12.5726C291.267 12.5726 291.886 12.6986 292.488 12.9506C293.091 13.2026 293.63 13.5911 294.105 14.1161L291.743 16.4314C291.626 16.2424 291.463 16.1006 291.252 16.0061C291.051 15.9011 290.844 15.8486 290.633 15.8486C290.242 15.8486 289.904 15.9851 289.619 16.2581C289.344 16.5311 289.207 16.8619 289.207 17.2504ZM300.661 17.2504V20.8256H305.131V24.1016H300.661V36.5756H297.364V24.1016H295.477V20.8256H297.364V17.2504C297.364 16.3894 297.576 15.6071 297.998 14.9036C298.421 14.1896 298.986 13.6226 299.694 13.2026C300.412 12.7826 301.211 12.5726 302.088 12.5726C302.722 12.5726 303.339 12.6986 303.942 12.9506C304.544 13.2026 305.083 13.5911 305.558 14.1161L303.197 16.4314C303.081 16.2424 302.917 16.1006 302.705 16.0061C302.504 15.9011 302.299 15.8486 302.088 15.8486C301.697 15.8486 301.359 15.9851 301.073 16.2581C300.799 16.5311 300.661 16.8619 300.661 17.2504ZM314.335 36.9851C312.877 36.9851 311.545 36.6124 310.341 35.8669C309.147 35.1214 308.191 34.1239 307.472 32.8744C306.764 31.6144 306.41 30.2231 306.41 28.7006C306.41 27.5456 306.617 26.4694 307.029 25.4719C307.441 24.4639 308.005 23.5819 308.724 22.8259C309.453 22.0594 310.298 21.4609 311.26 21.0304C312.222 20.5999 313.247 20.3846 314.335 20.3846C315.793 20.3846 317.12 20.7574 318.314 21.5029C319.519 22.2484 320.474 23.2511 321.182 24.5111C321.901 25.7711 322.26 27.1676 322.26 28.7006C322.26 29.8451 322.055 30.9161 321.643 31.9136C321.231 32.9111 320.66 33.7931 319.931 34.5596C319.212 35.3156 318.372 35.9089 317.41 36.3394C316.459 36.7699 315.434 36.9851 314.335 36.9851ZM314.335 33.7091C315.212 33.7091 316 33.4781 316.698 33.0161C317.395 32.5541 317.944 31.9451 318.346 31.1891C318.758 30.4226 318.963 29.5931 318.963 28.7006C318.963 27.7871 318.752 26.9471 318.329 26.1806C317.917 25.4141 317.363 24.8051 316.666 24.3536C315.968 23.8916 315.191 23.6606 314.335 23.6606C313.469 23.6606 312.682 23.8916 311.974 24.3536C311.277 24.8156 310.721 25.4299 310.309 26.1964C309.907 26.9629 309.707 27.7976 309.707 28.7006C309.707 29.6351 309.918 30.4804 310.341 31.2364C310.763 31.9924 311.323 32.5961 312.021 33.0476C312.729 33.4886 313.5 33.7091 314.335 33.7091ZM324.605 36.5756V12.9506H327.902V36.5756H324.605ZM343.825 12.9506H347.122V36.5756H343.825V34.2604C343.307 35.0794 342.631 35.7409 341.796 36.2449C340.961 36.7384 339.984 36.9851 338.864 36.9851C337.712 36.9851 336.634 36.7699 335.631 36.3394C334.627 35.9089 333.739 35.3156 332.968 34.5596C332.207 33.7931 331.609 32.9111 331.176 31.9136C330.743 30.9161 330.527 29.8451 330.527 28.7006C330.527 27.5561 330.743 26.4851 331.176 25.4876C331.609 24.4796 332.207 23.5976 332.968 22.8416C333.739 22.0751 334.627 21.4766 335.631 21.0461C336.634 20.6156 337.712 20.4004 338.864 20.4004C339.984 20.4004 340.961 20.6524 341.796 21.1564C342.631 21.6499 343.307 22.3009 343.825 23.1094V12.9506ZM338.896 33.8194C339.826 33.8194 340.639 33.5936 341.337 33.1421C342.034 32.6801 342.573 32.0606 342.954 31.2836C343.345 30.5066 343.539 29.6456 343.539 28.7006C343.539 27.7451 343.345 26.8789 342.954 26.1019C342.563 25.3249 342.018 24.7106 341.32 24.2591C340.633 23.7971 339.826 23.5661 338.896 23.5661C337.977 23.5661 337.136 23.7971 336.375 24.2591C335.625 24.7211 335.022 25.3406 334.568 26.1176C334.124 26.8946 333.902 27.7556 333.902 28.7006C333.902 29.6561 334.13 30.5224 334.585 31.2994C335.049 32.0659 335.656 32.6801 336.407 33.1421C337.167 33.5936 337.998 33.8194 338.896 33.8194ZM350.92 20.8256H354.217V36.5756H350.92V20.8256ZM352.6 18.5419C352.093 18.5419 351.67 18.3791 351.332 18.0536C350.994 17.7281 350.825 17.3186 350.825 16.8251C350.825 16.3421 350.994 15.9379 351.332 15.6124C351.67 15.2764 352.087 15.1084 352.583 15.1084C353.069 15.1084 353.481 15.2764 353.82 15.6124C354.158 15.9379 354.327 16.3421 354.327 16.8251C354.327 17.3186 354.158 17.7281 353.82 18.0536C353.492 18.3791 353.086 18.5419 352.6 18.5419ZM372.15 26.7004V36.5756H368.853V27.5036C368.853 26.8001 368.678 26.1596 368.33 25.5821C367.991 25.0046 367.533 24.5479 366.951 24.2119C366.381 23.8654 365.736 23.6921 365.018 23.6921C364.32 23.6921 363.68 23.8654 363.099 24.2119C362.518 24.5479 362.053 25.0046 361.704 25.5821C361.355 26.1596 361.182 26.8001 361.182 27.5036V36.5756H357.885V20.8256H361.182V22.4951C361.731 21.8441 362.408 21.3296 363.211 20.9516C364.014 20.5736 364.88 20.3846 365.81 20.3846C366.983 20.3846 368.05 20.6681 369.012 21.2351C369.974 21.8021 370.734 22.5634 371.294 23.5189C371.865 24.4744 372.15 25.5349 372.15 26.7004ZM387.067 20.8256H390.363V36.9851C390.363 38.0666 390.131 39.0641 389.666 39.9776C389.212 40.8911 388.594 41.6786 387.812 42.3401C387.03 43.0121 386.132 43.5319 385.118 43.8994C384.114 44.2669 383.062 44.4506 381.963 44.4506C380.853 44.4506 379.786 44.2144 378.761 43.7419C377.736 43.2799 376.833 42.6499 376.051 41.8519C375.28 41.0539 374.703 40.1509 374.323 39.1429L377.351 37.7884C377.562 38.4394 377.9 39.0169 378.365 39.5209C378.841 40.0249 379.39 40.4239 380.014 40.7179C380.648 41.0119 381.297 41.1589 381.963 41.1589C382.618 41.1589 383.247 41.0539 383.85 40.8439C384.462 40.6444 385.006 40.3609 385.481 39.9934C385.968 39.6259 386.354 39.1849 386.639 38.6704C386.925 38.1559 387.067 37.5941 387.067 36.9851V34.3234C386.549 35.1214 385.883 35.7671 385.069 36.2606C384.256 36.7436 383.311 36.9851 382.233 36.9851C381.113 36.9851 380.056 36.7699 379.063 36.3394C378.069 35.9089 377.197 35.3156 376.447 34.5596C375.696 33.7931 375.111 32.9111 374.688 31.9136C374.265 30.9161 374.054 29.8451 374.054 28.7006C374.054 27.5561 374.265 26.4851 374.688 25.4876C375.111 24.4796 375.696 23.5976 376.447 22.8416C377.197 22.0751 378.069 21.4766 379.063 21.0461C380.056 20.6156 381.113 20.4004 382.233 20.4004C383.311 20.4004 384.256 20.6471 385.069 21.1406C385.883 21.6236 386.549 22.2694 387.067 23.0779V20.8256ZM382.265 33.8194C383.184 33.8194 383.987 33.5884 384.674 33.1264C385.361 32.6539 385.894 32.0291 386.274 31.2521C386.654 30.4751 386.845 29.6246 386.845 28.7006C386.845 27.7556 386.65 26.8999 386.259 26.1334C385.878 25.3564 385.344 24.7369 384.657 24.2749C383.97 23.8024 383.173 23.5661 382.265 23.5661C381.377 23.5661 380.563 23.7971 379.824 24.2591C379.094 24.7211 378.513 25.3406 378.08 26.1176C377.647 26.8946 377.429 27.7556 377.429 28.7006C377.429 29.6456 377.647 30.5066 378.08 31.2836C378.524 32.0606 379.11 32.6801 379.839 33.1421C380.578 33.5936 381.387 33.8194 382.265 33.8194Z" fill="#002F69"/>
<path d="M28.4646 0.575684V9.94368H11.953V19.2599H27.2072V28.628H11.953V47.4231H1.20813V0.575684H28.4646Z" fill="#002F69"/>
<path d="M26.7869 47.4231V38.055H43.2986V28.7388H28.0445V19.3709H43.2986V0.575684H54.0435V47.4231H26.7869Z" fill="#002F69"/>
</svg>
