<svg width="44" height="44" viewBox="0 0 44 44" fill="none" xmlns="http://www.w3.org/2000/svg">
<circle cx="22" cy="22" r="22" fill="white" fill-opacity="0.3"/>
<path d="M16.8247 14.4174C16.8247 15.7524 15.7447 16.8347 14.4124 16.8347C13.0801 16.8347 12 15.7524 12 14.4174C12 13.0823 13.0801 12 14.4124 12C15.7447 12 16.8247 13.0823 16.8247 14.4174Z" fill="white"/>
<path d="M12.3299 18.6116H16.4536V32H12.3299V18.6116Z" fill="white"/>
<path d="M23.0928 18.6116H18.9691V32H23.0928C23.0928 32 23.0928 27.7851 23.0928 25.1498C23.0928 23.568 23.5969 21.9793 25.6082 21.9793C27.8814 21.9793 27.8677 24.0493 27.8571 25.653C27.8432 27.7492 27.8763 29.8884 27.8763 32H32V24.9339C31.9651 20.422 30.8678 18.343 27.2577 18.343C25.1139 18.343 23.7849 19.3858 23.0928 20.3293V18.6116Z" fill="white"/>
</svg>
