<svg width="133" height="48" viewBox="0 0 133 48" fill="none" xmlns="http://www.w3.org/2000/svg">
<path d="M29.4163 8.75263C29.916 9.13026 30.4158 9.50789 30.9306 9.89696C30.625 11.5754 30.0195 12.4755 28.8364 13.732C28.554 14.0356 28.2715 14.3393 27.9806 14.6521C27.7633 14.8792 27.546 15.1063 27.3221 15.3403C27.029 15.1259 26.736 14.9116 26.4341 14.6908C24.5338 13.3752 23.1099 12.4477 20.7816 12.031C18.4686 12.4918 17.6311 13.2246 15.981 14.8454C14.3903 17.2531 14.6325 20.0165 14.95 22.7629C15.7037 24.6306 16.8179 25.6078 18.5585 26.7217C20.8932 27.0826 22.6896 27.0064 24.7446 25.8557C25.9482 24.729 25.9482 24.729 26.2911 22.7629C24.2497 22.7629 22.2083 22.7629 20.105 22.7629C20.105 21.1299 20.105 19.497 20.105 17.8145C24.3579 17.8145 28.6108 17.8145 32.9926 17.8145C33.2478 18.3044 33.2478 18.3044 33.5081 18.8042C33.8696 18.498 34.2311 18.1918 34.6036 17.8763C37.5994 15.7508 40.7017 15.4104 44.3337 15.8351C47.2903 16.6542 49.3413 17.7435 51.0353 20.2887C51.2054 18.9823 51.3755 17.6759 51.5508 16.33C53.5922 16.33 55.6335 16.33 57.7368 16.33C57.7368 16.6565 57.7368 16.9831 57.7368 17.3196C58.1727 17.0747 58.6087 16.8297 59.0578 16.5774C61.3715 15.6082 63.1062 15.3963 65.5298 16.1946C67.7826 17.169 69.0708 18.0467 70.1089 20.2887C70.3534 19.9213 70.598 19.5539 70.8499 19.1753C72.8866 17.0773 75.1665 16.0516 78.1314 15.6611C81.0156 15.5683 83.0103 16.0891 85.574 17.3196C85.9142 17.3196 86.2545 17.3196 86.605 17.3196C86.605 16.993 86.605 16.6664 86.605 16.33C88.9866 16.33 91.3683 16.33 93.8221 16.33C96.8506 22.0825 96.8506 22.0825 97.4306 23.7526C98.7915 21.3031 100.152 18.8537 101.555 16.33C103.936 16.33 106.318 16.33 108.772 16.33C108.772 16.8198 108.772 17.3097 108.772 17.8145C109.154 17.5797 109.537 17.345 109.932 17.1031C112.835 15.5195 116.382 15.2867 119.613 16.098C122.349 17.1576 124.247 18.4298 125.687 20.9073C126.563 23.5652 126.708 25.5666 125.751 28.2681C124.181 30.504 122.288 32.2938 119.597 33.1547C115.553 33.4556 111.555 33.7422 108.256 31.1753C106.706 29.4912 106.097 28.0337 105.626 25.877C105.494 25.2791 105.494 25.2791 105.359 24.6692C105.295 24.3667 105.23 24.0643 105.163 23.7526C104.956 24.131 104.956 24.131 104.745 24.517C104.123 25.6545 103.499 26.7912 102.876 27.9279C102.659 28.325 102.442 28.7221 102.218 29.1312C101.907 29.6981 101.907 29.6981 101.589 30.2765C101.397 30.6263 101.206 30.9761 101.008 31.3366C100.524 32.165 100.524 32.165 100.008 32.6598C99.2249 32.6954 98.4401 32.7014 97.6561 32.6908C97.2302 32.6863 96.8042 32.6818 96.3653 32.6772C96.0364 32.6715 95.7075 32.6658 95.3686 32.6598C94.6058 31.361 93.8433 30.062 93.081 28.7629C92.8641 28.3936 92.6471 28.0243 92.4236 27.6437C92.2159 27.2897 92.0082 26.9357 91.7943 26.5709C91.6026 26.2444 91.4109 25.9179 91.2135 25.5815C90.8658 24.9793 90.5343 24.3684 90.2135 23.7526C90.1647 24.166 90.1647 24.166 90.1149 24.5877C89.5692 27.8519 88.2293 30.035 85.574 32.165C82.5197 33.6906 79.1286 33.4591 75.7794 33.1547C73.7337 32.5343 72.1551 31.6549 70.6244 30.1856C70.4543 31.0021 70.2842 31.8186 70.1089 32.6598C68.0675 32.6598 66.0261 32.6598 63.9229 32.6598C63.8976 32.0041 63.8723 31.3483 63.8463 30.6727C63.8076 29.8093 63.7687 28.9459 63.7295 28.0825C63.7136 27.6507 63.6976 27.2188 63.6812 26.7739C63.6613 26.3561 63.6413 25.9383 63.6208 25.5078C63.6046 25.1243 63.5884 24.7407 63.5717 24.3456C63.3917 23.1545 62.9921 22.3195 62.3763 21.2784C61.1684 21.4049 59.9646 21.5717 58.7678 21.7732C58.1623 22.9358 58.149 23.7282 58.0892 25.0245C58.0676 25.4679 58.046 25.9112 58.0238 26.368C58.0035 26.8317 57.9832 27.2954 57.9623 27.7732C57.9289 28.4746 57.9289 28.4746 57.8949 29.1901C57.8401 30.3466 57.7882 31.5032 57.7368 32.6598C55.6954 32.6598 53.654 32.6598 51.5508 32.6598C51.2956 30.9452 51.2956 30.9452 51.0353 29.1959C50.7555 29.4402 50.4757 29.6845 50.1875 29.9363C49.8187 30.2533 49.4499 30.5703 49.0699 30.897C48.7051 31.2127 48.3403 31.5285 47.9644 31.8538C45.2617 33.9223 41.4135 33.4012 38.1477 33.1547C35.7303 32.5347 34.1527 31.5475 32.7349 29.5671C32.4797 29.118 32.2245 28.6689 31.9616 28.2062C31.7058 28.4391 31.4499 28.6719 31.1864 28.9118C27.1466 32.4658 24.3252 33.494 18.8203 33.3538C14.8909 32.9211 12.2898 31.3957 9.79496 28.4846C6.90705 24.7595 6.80981 20.8224 7.21744 16.33C8.06306 12.7379 9.8755 10.1744 12.888 7.91758C18.2617 4.82255 24.3712 5.31573 29.4163 8.75263ZM38.9854 22.0825C38.0451 23.2323 38.0451 23.2323 37.8577 24.7423C38.0265 26.2992 38.0265 26.2992 39.2431 27.433C40.6801 28.3347 40.6801 28.3347 42.3361 28.1753C44.1904 27.6108 44.1904 27.6108 45.3647 26.2269C45.6434 24.4304 45.6038 23.5932 44.527 22.0825C42.5222 20.7658 40.9902 20.7658 38.9854 22.0825ZM76.6171 22.0825C75.6769 23.2323 75.6769 23.2323 75.4895 24.7423C75.6583 26.2992 75.6583 26.2992 76.8749 27.433C78.3118 28.3347 78.3118 28.3347 79.9679 28.1753C81.8222 27.6108 81.8222 27.6108 82.9965 26.2269C83.2752 24.4304 83.2356 23.5932 82.1588 22.0825C80.1539 20.7658 78.622 20.7658 76.6171 22.0825ZM113.218 22.0825C112.278 23.2323 112.278 23.2323 112.09 24.7423C112.259 26.2992 112.259 26.2992 113.476 27.433C114.913 28.3347 114.913 28.3347 116.569 28.1753C118.423 27.6108 118.423 27.6108 119.597 26.2269C119.876 24.4304 119.836 23.5932 118.76 22.0825C116.755 20.7658 115.223 20.7658 113.218 22.0825ZM89.1825 21.7732C89.698 22.7629 89.698 22.7629 89.698 22.7629L89.1825 21.7732Z" fill="white"/>
<path d="M0 4.94844C1.87128 4.94844 3.74256 4.94844 5.67054 4.94844C5.67054 17.3592 5.67054 29.7699 5.67054 42.5567C18.4293 42.5567 31.188 42.5567 44.3333 42.5567C44.3333 44.3529 44.3333 46.1492 44.3333 48C29.7033 48 15.0733 48 0 48C0 33.793 0 19.586 0 4.94844Z" fill="white"/>
<path d="M89.1823 0C103.642 0 118.102 0 133 0C133 14.207 133 28.414 133 43.0515C131.299 43.0515 129.598 43.0515 127.845 43.0515C127.845 30.6408 127.845 18.2301 127.845 5.44329C115.086 5.44329 102.328 5.44329 89.1823 5.44329C89.1823 3.64701 89.1823 1.85072 89.1823 0Z" fill="white"/>
<path d="M0 4.94844C1.87128 4.94844 3.74256 4.94844 5.67054 4.94844C5.67054 8.86761 5.67054 12.7868 5.67054 16.8247C5.50042 16.8247 5.33031 16.8247 5.15504 16.8247C4.98492 13.2321 4.8148 9.63957 4.63953 5.93813C3.2786 5.77483 1.91767 5.61153 0.515504 5.44329C0.570834 10.7899 0.628878 16.1365 0.690434 21.4831C0.718928 23.9654 0.74647 26.4478 0.771871 28.9302C0.796398 31.3237 0.82338 33.7173 0.852097 36.1108C0.862641 37.0261 0.872285 37.9414 0.881034 38.8567C0.893395 40.1342 0.908893 41.4115 0.925163 42.6889C0.929613 43.2624 0.929613 43.2624 0.934154 43.8474C0.797377 45.5736 0.797377 45.5736 1.54651 47.0103C2.84837 47.0573 4.13608 47.0724 5.43809 47.0664C5.84543 47.0665 6.25277 47.0666 6.67246 47.0667C8.0253 47.0663 9.3781 47.0625 10.7309 47.0586C11.6664 47.0577 12.6018 47.057 13.5373 47.0565C16.0043 47.0546 18.4713 47.0497 20.9383 47.0442C23.4537 47.0392 25.9692 47.0369 28.4846 47.0344C33.4238 47.0291 38.3631 47.0207 43.3023 47.0103C43.3023 45.7039 43.3023 44.3975 43.3023 43.0515C30.5436 43.0515 17.7849 43.0515 4.63953 43.0515C4.80965 34.56 4.97977 26.0684 5.15504 17.3196C5.32515 17.3196 5.49527 17.3196 5.67054 17.3196C5.67054 25.6478 5.67054 33.976 5.67054 42.5567C18.4293 42.5567 31.188 42.5567 44.3333 42.5567C44.3333 44.3529 44.3333 46.1492 44.3333 48C29.7033 48 15.0733 48 0 48C0 33.793 0 19.586 0 4.94844Z" fill="white"/>
</svg>
