<svg width="215" height="32" viewBox="0 0 215 32" fill="none" xmlns="http://www.w3.org/2000/svg">
<g clip-path="url(#clip0_48_5557)">
<path d="M23.5096 10.2752C23.2277 9.38136 22.8486 8.58076 22.3722 7.87356C21.9055 7.15651 21.3466 6.54751 20.6952 6.04657C20.0439 5.5358 19.3002 5.1478 18.4642 4.88259C17.6379 4.61738 16.7289 4.48478 15.7373 4.48478C14.0555 4.48478 12.5389 4.92188 11.1877 5.79609C9.83639 6.6703 8.76705 7.95214 7.97959 9.64161C7.20188 11.3212 6.81302 13.3791 6.81302 15.8151C6.81302 18.2609 7.20674 20.3286 7.99418 22.0181C8.78162 23.7075 9.8607 24.9894 11.2314 25.8636C12.6021 26.7378 14.1624 27.1749 15.9123 27.1749C17.5358 27.1749 18.9502 26.8409 20.1557 26.173C21.3708 25.5051 22.309 24.5621 22.97 23.3441C23.6408 22.1163 23.9762 20.6724 23.9762 19.0124L25.1428 19.2333H16.5977V15.4762H28.3363V18.9092C28.3363 21.4435 27.8016 23.6437 26.7323 25.5099C25.6726 27.3664 24.2047 28.8005 22.3284 29.8123C20.4619 30.824 18.3232 31.3298 15.9123 31.3298C13.2097 31.3298 10.8377 30.7012 8.7962 29.4439C6.76441 28.1866 5.17982 26.4039 4.04241 24.0955C2.90501 21.7774 2.3363 19.0271 2.3363 15.8446C2.3363 13.4381 2.66683 11.2771 3.32789 9.36167C3.98894 7.44628 4.91734 5.82065 6.11308 4.48478C7.31853 3.13908 8.73299 2.11263 10.3565 1.40541C11.9897 0.688358 13.7736 0.329834 15.7081 0.329834C17.3219 0.329834 18.8239 0.570487 20.2141 1.0518C21.6139 1.5331 22.8582 2.21577 23.947 3.0998C25.0456 3.98383 25.9545 5.03484 26.6739 6.25284C27.3933 7.46101 27.8794 8.8018 28.1321 10.2752H23.5096Z" fill="black" stroke="black"/>
<path d="M70.1792 0.820511H47.4623C39.1728 0.820511 32.4528 7.6166 32.4528 16C32.4528 24.3834 39.1728 31.1795 47.4623 31.1795H70.1792C78.4687 31.1795 85.1887 24.3834 85.1887 16C85.1887 7.6166 78.4687 0.820511 70.1792 0.820511Z" fill="url(#paint0_linear_48_5557)"/>
<path d="M68.7629 6.05478H48.8786C43.4475 6.05478 39.0448 10.5074 39.0448 16C39.0448 21.4925 43.4475 25.9452 48.8786 25.9452H68.7629C74.194 25.9452 78.5967 21.4925 78.5967 16C78.5967 10.5074 74.194 6.05478 68.7629 6.05478Z" fill="white"/>
<path d="M112.495 0.745926V30.7459H108.372L93.2568 8.74398H92.981V30.7459H88.4948V0.745926H92.6475L107.776 22.7772H108.052V0.745926H112.495Z" fill="black" stroke="black"/>
<path d="M143.544 15.8298C143.544 19.0517 142.959 21.8216 141.788 24.1397C140.617 26.448 139.013 28.2259 136.973 29.4733C134.944 30.711 132.636 31.3298 130.051 31.3298C127.456 31.3298 125.139 30.711 123.1 29.4733C121.071 28.2259 119.471 26.4431 118.3 24.125C117.129 21.8069 116.544 19.0418 116.544 15.8298C116.544 12.608 117.129 9.84296 118.3 7.53469C119.471 5.21655 121.071 3.43868 123.1 2.20103C125.139 0.953569 127.456 0.329834 130.051 0.329834C132.636 0.329834 134.944 0.953569 136.973 2.20103C139.013 3.43868 140.617 5.21655 141.788 7.53469C142.959 9.84296 143.544 12.608 143.544 15.8298ZM139.066 15.8298C139.066 13.3742 138.671 11.3065 137.881 9.62689C137.1 7.93741 136.027 6.66047 134.661 5.79609C133.305 4.92188 131.768 4.48478 130.051 4.48478C128.325 4.48478 126.783 4.92188 125.427 5.79609C124.071 6.66047 122.997 7.93741 122.207 9.62689C121.427 11.3065 121.037 13.3742 121.037 15.8298C121.037 18.2855 121.427 20.358 122.207 22.0475C122.997 23.7271 124.071 25.0041 125.427 25.8783C126.783 26.7427 128.325 27.1749 130.051 27.1749C131.768 27.1749 133.305 26.7427 134.661 25.8783C136.027 25.0041 137.1 23.7271 137.881 22.0475C138.671 20.358 139.066 18.2855 139.066 15.8298Z" fill="black" stroke="black"/>
<path d="M150.621 0.745926L158.714 25.1795H159.04L167.135 0.745926H171.878L161.412 30.7459H156.343L145.878 0.745926H150.621Z" fill="black" stroke="black"/>
<path d="M201.582 15.8298C201.582 19.0517 200.997 21.8216 199.826 24.1397C198.655 26.448 197.05 28.2259 195.011 29.4733C192.982 30.711 190.674 31.3298 188.089 31.3298C185.494 31.3298 183.177 30.711 181.138 29.4733C179.109 28.2259 177.509 26.4431 176.338 24.125C175.167 21.8069 174.582 19.0418 174.582 15.8298C174.582 12.608 175.167 9.84296 176.338 7.53469C177.509 5.21655 179.109 3.43868 181.138 2.20103C183.177 0.953569 185.494 0.329834 188.089 0.329834C190.674 0.329834 192.982 0.953569 195.011 2.20103C197.05 3.43868 198.655 5.21655 199.826 7.53469C200.997 9.84296 201.582 12.608 201.582 15.8298ZM197.104 15.8298C197.104 13.3742 196.709 11.3065 195.918 9.62689C195.138 7.93741 194.065 6.66047 192.699 5.79609C191.343 4.92188 189.806 4.48478 188.089 4.48478C186.362 4.48478 184.821 4.92188 183.465 5.79609C182.109 6.66047 181.035 7.93741 180.245 9.62689C179.465 11.3065 179.075 13.3742 179.075 15.8298C179.075 18.2855 179.465 20.358 180.245 22.0475C181.035 23.7271 182.109 25.0041 183.465 25.8783C184.821 26.7427 186.362 27.1749 188.089 27.1749C189.806 27.1749 191.343 26.7427 192.699 25.8783C194.065 25.0041 195.138 23.7271 195.918 22.0475C196.709 20.358 197.104 18.2855 197.104 15.8298Z" fill="black" stroke="black"/>
</g>
<defs>
<linearGradient id="paint0_linear_48_5557" x1="32.4528" y1="16" x2="85.1887" y2="16" gradientUnits="userSpaceOnUse">
<stop stop-color="#C8C2E8"/>
<stop offset="0.486952" stop-color="#9E99F6"/>
<stop offset="1" stop-color="#5B5FFC"/>
</linearGradient>
<clipPath id="clip0_48_5557">
<rect width="215" height="32" fill="white"/>
</clipPath>
</defs>
</svg>
