<svg width="215" height="32" viewBox="0 0 215 32" fill="none" xmlns="http://www.w3.org/2000/svg">
<g clip-path="url(#clip0_155_1817)">
<path d="M23.5096 10.2754C23.2277 9.38161 22.8486 8.581 22.3722 7.8738C21.9055 7.15676 21.3466 6.54776 20.6952 6.04681C20.0439 5.53604 19.3002 5.14805 18.4642 4.88283C17.6379 4.61763 16.7289 4.48502 15.7373 4.48502C14.0555 4.48502 12.5389 4.92213 11.1877 5.79633C9.83639 6.67054 8.76705 7.95239 7.97959 9.64186C7.20188 11.3215 6.81302 13.3793 6.81302 15.8153C6.81302 18.2611 7.20674 20.3288 7.99418 22.0183C8.78162 23.7078 9.8607 24.9896 11.2314 25.8638C12.6021 26.7381 14.1624 27.1752 15.9123 27.1752C17.5358 27.1752 18.9502 26.8411 20.1557 26.1732C21.3708 25.5053 22.309 24.5623 22.97 23.3444C23.6408 22.1165 23.9762 20.6726 23.9762 19.0126L25.1428 19.2336H16.5977V15.4765H28.3363V18.9095C28.3363 21.4437 27.8016 23.6439 26.7323 25.5102C25.6726 27.3667 24.2047 28.8008 22.3284 29.8125C20.4619 30.8242 18.3232 31.3301 15.9123 31.3301C13.2097 31.3301 10.8377 30.7015 8.7962 29.4441C6.76441 28.1869 5.17982 26.4041 4.04241 24.0958C2.90501 21.7777 2.3363 19.0273 2.3363 15.8448C2.3363 13.4383 2.66683 11.2773 3.32789 9.36192C3.98894 7.44652 4.91734 5.82089 6.11308 4.48502C7.31853 3.13933 8.73299 2.11287 10.3565 1.40565C11.9897 0.688602 13.7736 0.330078 15.7081 0.330078C17.3219 0.330078 18.8239 0.570731 20.2141 1.05204C21.6139 1.53335 22.8582 2.21601 23.947 3.10004C25.0456 3.98408 25.9545 5.03509 26.6739 6.25308C27.3933 7.46126 27.8794 8.80204 28.1321 10.2754H23.5096Z" fill="white" stroke="white"/>
<path d="M70.1792 0.820312H47.4623C39.1728 0.820312 32.4528 7.6164 32.4528 15.9998C32.4528 24.3832 39.1728 31.1793 47.4623 31.1793H70.1792C78.4687 31.1793 85.1887 24.3832 85.1887 15.9998C85.1887 7.6164 78.4687 0.820312 70.1792 0.820312Z" fill="url(#paint0_linear_155_1817)"/>
<path d="M68.7629 6.05469H48.8786C43.4475 6.05469 39.0448 10.5073 39.0448 15.9999C39.0448 21.4925 43.4475 25.9451 48.8786 25.9451H68.7629C74.194 25.9451 78.5967 21.4925 78.5967 15.9999C78.5967 10.5073 74.194 6.05469 68.7629 6.05469Z" fill="white"/>
<path d="M112.495 0.746094V30.7461H108.372L93.2568 8.74415H92.981V30.7461H88.4948V0.746094H92.6475L107.776 22.7773H108.052V0.746094H112.495Z" fill="white" stroke="white"/>
<path d="M143.544 15.83C143.544 19.0519 142.959 21.8218 141.788 24.1399C140.617 26.4483 139.013 28.2262 136.973 29.4736C134.944 30.7112 132.636 31.3301 130.051 31.3301C127.456 31.3301 125.139 30.7112 123.1 29.4736C121.071 28.2262 119.471 26.4434 118.3 24.1252C117.129 21.8071 116.544 19.0421 116.544 15.83C116.544 12.6083 117.129 9.84321 118.3 7.53493C119.471 5.2168 121.071 3.43892 123.1 2.20128C125.139 0.953813 127.456 0.330078 130.051 0.330078C132.636 0.330078 134.944 0.953813 136.973 2.20128C139.013 3.43892 140.617 5.2168 141.788 7.53493C142.959 9.84321 143.544 12.6083 143.544 15.83ZM139.066 15.83C139.066 13.3745 138.671 11.3068 137.881 9.62713C137.1 7.93765 136.027 6.66072 134.661 5.79633C133.305 4.92213 131.768 4.48502 130.051 4.48502C128.325 4.48502 126.783 4.92213 125.427 5.79633C124.071 6.66072 122.997 7.93765 122.207 9.62713C121.427 11.3068 121.037 13.3745 121.037 15.83C121.037 18.2857 121.427 20.3583 122.207 22.0478C122.997 23.7274 124.071 25.0043 125.427 25.8786C126.783 26.7429 128.325 27.1752 130.051 27.1752C131.768 27.1752 133.305 26.7429 134.661 25.8786C136.027 25.0043 137.1 23.7274 137.881 22.0478C138.671 20.3583 139.066 18.2857 139.066 15.83Z" fill="white" stroke="white"/>
<path d="M150.621 0.746094L158.714 25.1797H159.04L167.135 0.746094H171.878L161.412 30.7461H156.343L145.878 0.746094H150.621Z" fill="white" stroke="white"/>
<path d="M201.582 15.83C201.582 19.0519 200.997 21.8218 199.826 24.1399C198.655 26.4483 197.05 28.2262 195.011 29.4736C192.982 30.7112 190.674 31.3301 188.089 31.3301C185.494 31.3301 183.177 30.7112 181.138 29.4736C179.109 28.2262 177.509 26.4434 176.338 24.1252C175.167 21.8071 174.582 19.0421 174.582 15.83C174.582 12.6083 175.167 9.84321 176.338 7.53493C177.509 5.2168 179.109 3.43892 181.138 2.20128C183.177 0.953813 185.494 0.330078 188.089 0.330078C190.674 0.330078 192.982 0.953813 195.011 2.20128C197.05 3.43892 198.655 5.2168 199.826 7.53493C200.997 9.84321 201.582 12.6083 201.582 15.83ZM197.104 15.83C197.104 13.3745 196.709 11.3068 195.918 9.62713C195.138 7.93765 194.065 6.66072 192.699 5.79633C191.343 4.92213 189.806 4.48502 188.089 4.48502C186.362 4.48502 184.821 4.92213 183.465 5.79633C182.109 6.66072 181.035 7.93765 180.245 9.62713C179.465 11.3068 179.075 13.3745 179.075 15.83C179.075 18.2857 179.465 20.3583 180.245 22.0478C181.035 23.7274 182.109 25.0043 183.465 25.8786C184.821 26.7429 186.362 27.1752 188.089 27.1752C189.806 27.1752 191.343 26.7429 192.699 25.8786C194.065 25.0043 195.138 23.7274 195.918 22.0478C196.709 20.3583 197.104 18.2857 197.104 15.83Z" fill="white" stroke="white"/>
</g>
<defs>
<linearGradient id="paint0_linear_155_1817" x1="32.4528" y1="15.9998" x2="85.1887" y2="15.9998" gradientUnits="userSpaceOnUse">
<stop stop-color="#C8C2E8"/>
<stop offset="0.486952" stop-color="#9E99F6"/>
<stop offset="1" stop-color="#5B5FFC"/>
</linearGradient>
<clipPath id="clip0_155_1817">
<rect width="215" height="32" fill="white"/>
</clipPath>
</defs>
</svg>
