<svg width="30" height="30" viewBox="0 0 30 30" fill="none" xmlns="http://www.w3.org/2000/svg">
<path d="M5.3125 2.41805e-06H24.6875C25.3853 -0.000672159 26.0764 0.139803 26.7213 0.413387C27.3661 0.686972 27.952 1.0883 28.4455 1.59439C28.9389 2.10048 29.3302 2.70141 29.5969 3.36279C29.8637 4.02416 30.0007 4.73299 30 5.44872V24.5513C30.0007 25.267 29.8637 25.9758 29.5969 26.6372C29.3302 27.2986 28.9389 27.8995 28.4455 28.4056C27.952 28.9117 27.3661 29.313 26.7213 29.5866C26.0764 29.8602 25.3853 30.0007 24.6875 30H5.3125C4.61467 30.0007 3.92356 29.8602 3.27872 29.5866C2.63388 29.313 2.04797 28.9117 1.55453 28.4056C1.06109 27.8995 0.669798 27.2986 0.403053 26.6372C0.136308 25.9758 -0.000655355 25.267 2.35759e-06 24.5513V5.44872C-0.000655355 4.73299 0.136308 4.02416 0.403053 3.36279C0.669798 2.70141 1.06109 2.10048 1.55453 1.59439C2.04797 1.0883 2.63388 0.686972 3.27872 0.413387C3.92356 0.139803 4.61467 -0.000672159 5.3125 2.41805e-06Z" fill="#F0F0F0"/>
<path d="M14.9335 26.25C14.6322 26.25 14.3329 26.171 14.0688 26.0189L11.3163 24.3893C10.9052 24.1594 11.1058 24.0781 11.2414 24.0312C11.7895 23.8393 11.9008 23.796 12.4859 23.4637C12.5474 23.4286 12.6279 23.441 12.6908 23.4781L14.8053 24.7329C14.8817 24.7742 14.9901 24.7742 15.0608 24.7329L23.3056 19.9739C23.382 19.9305 23.4315 19.8418 23.4315 19.751V10.237C23.4315 10.142 23.382 10.0574 23.304 10.0099L15.0625 5.25501C14.9861 5.20961 14.885 5.20961 14.8086 5.25501L6.56881 10.0099C6.48895 10.0553 6.43818 10.1441 6.43818 10.2349V19.7489C6.43818 19.8397 6.48771 19.9264 6.56613 19.9697L8.8239 21.274C10.0498 21.887 10.7989 21.1647 10.7989 20.4382V11.048C10.7989 10.9139 10.9042 10.8107 11.0383 10.8107H12.0826C12.2126 10.8107 12.3199 10.9139 12.3199 11.048V20.4423C12.3199 22.0768 11.4284 23.0159 9.87849 23.0159C9.40176 23.0159 9.02615 23.0159 7.97775 22.4999L5.81492 21.2534C5.2804 20.9438 4.9502 20.366 4.9502 19.7489V10.2349C4.9502 9.61576 5.2804 9.03791 5.81492 8.73247L14.068 3.97134C14.5901 3.67622 15.2835 3.67622 15.8015 3.97134L24.0442 8.73453C24.5767 9.04204 24.909 9.61783 24.909 10.237V19.751C24.909 20.368 24.5767 20.9438 24.0442 21.2534L15.8015 26.0145C15.5374 26.1672 15.2381 26.2457 14.9327 26.2457" fill="#689F63"/>
<path d="M17.4801 19.6942C13.8726 19.6942 13.1162 18.0383 13.1162 16.6493C13.1162 16.5173 13.2227 16.412 13.355 16.412H14.4199C14.5375 16.412 14.6366 16.4977 14.6552 16.6138C14.8161 17.699 15.2949 18.2463 17.4763 18.2463C19.214 18.2463 19.9529 17.8538 19.9529 16.9323C19.9529 16.4019 19.7424 16.0077 17.043 15.7436C14.7852 15.5207 13.3901 15.0233 13.3901 13.2175C13.3901 11.5541 14.7934 10.5635 17.1441 10.5635C19.7837 10.5635 21.0921 11.4798 21.2572 13.4486C21.2634 13.5167 21.2386 13.5828 21.1932 13.6323C21.1478 13.6798 21.0838 13.7087 21.0178 13.7087H19.9467C19.8352 13.7087 19.7382 13.6302 19.7155 13.5229C19.4576 12.3817 18.8343 12.0164 17.14 12.0164C15.2433 12.0164 15.0225 12.6768 15.0225 13.1721C15.0225 13.7726 15.2826 13.9481 17.8416 14.2865C20.376 14.6229 21.5791 15.0976 21.5791 16.8786C21.5791 18.6741 20.0808 19.7039 17.4681 19.7039L17.4801 19.6942Z" fill="#689F63"/>
</svg>
