<svg width="30" height="30" viewBox="0 0 30 30" fill="none" xmlns="http://www.w3.org/2000/svg">
<g clip-path="url(#clip0_274_3512)">
<path d="M5.3125 2.41805e-06H24.6875C25.3853 -0.000672159 26.0764 0.139803 26.7213 0.413387C27.3661 0.686972 27.952 1.0883 28.4455 1.59439C28.9389 2.10048 29.3302 2.70141 29.5969 3.36279C29.8637 4.02416 30.0007 4.73299 30 5.44872V24.5513C30.0007 25.267 29.8637 25.9758 29.5969 26.6372C29.3302 27.2986 28.9389 27.8995 28.4455 28.4056C27.952 28.9117 27.3661 29.313 26.7213 29.5866C26.0764 29.8602 25.3853 30.0007 24.6875 30H5.3125C4.61467 30.0007 3.92356 29.8602 3.27872 29.5866C2.63388 29.313 2.04797 28.9117 1.55453 28.4056C1.06109 27.8995 0.669798 27.2986 0.403053 26.6372C0.136308 25.9758 -0.000655355 25.267 2.35759e-06 24.5513V5.44872C-0.000655355 4.73299 0.136308 4.02416 0.403053 3.36279C0.669798 2.70141 1.06109 2.10048 1.55453 1.59439C2.04797 1.0883 2.63388 0.686972 3.27872 0.413387C3.92356 0.139803 4.61467 -0.000672159 5.3125 2.41805e-06Z" fill="#777BB3"/>
<path d="M7.07658 16.753C7.80602 16.753 8.35057 16.6185 8.69513 16.3533C9.036 16.0909 9.27143 15.6362 9.39482 15.0019C9.50988 14.409 9.46605 13.9951 9.2646 13.7717C9.05861 13.5435 8.61327 13.4278 7.94096 13.4278H6.77525L6.129 16.753H7.07658ZM3.26385 20.8491C3.20974 20.8491 3.15835 20.8249 3.12394 20.7831C3.08948 20.7413 3.07552 20.6863 3.08586 20.6332L4.79854 11.8212C4.81511 11.736 4.88977 11.6745 4.97659 11.6745H8.66786C9.82795 11.6745 10.6914 11.9894 11.2342 12.6108C11.7798 13.2354 11.9483 14.1085 11.735 15.2057C11.6481 15.6528 11.4988 16.068 11.2911 16.4397C11.0832 16.8118 10.8084 17.1561 10.4743 17.4632C10.0743 17.8376 9.62155 18.1091 9.12989 18.2688C8.64604 18.4264 8.02464 18.5063 7.28299 18.5063H5.78832L5.36148 20.7023C5.34491 20.7876 5.2703 20.8491 5.18348 20.8491H3.26385Z" fill="black"/>
<path d="M6.925 13.6089H7.9412C8.75262 13.6089 9.03448 13.787 9.13025 13.8931C9.28914 14.0693 9.31912 14.4407 9.21701 14.9673C9.10226 15.5567 8.88956 15.9747 8.58473 16.2094C8.27264 16.4496 7.76526 16.5714 7.07682 16.5714H6.34925L6.925 13.6089ZM8.6681 11.4928H4.97677C4.80313 11.4928 4.65386 11.6159 4.62073 11.7864L2.90804 20.5984C2.88736 20.7047 2.91529 20.8147 2.98416 20.8983C3.05308 20.9819 3.15574 21.0303 3.26408 21.0303H5.18366C5.35736 21.0303 5.50663 20.9072 5.53976 20.7367L5.93807 18.6875H7.28322C8.04392 18.6875 8.6843 18.6045 9.18642 18.441C9.7028 18.2732 10.1779 17.9888 10.5984 17.5955C10.9461 17.2756 11.2326 16.9165 11.4496 16.528C11.6667 16.1394 11.8227 15.7061 11.9132 15.2401C12.1378 14.0851 11.9554 13.1602 11.371 12.4913C10.7923 11.8288 9.88284 11.4928 8.6681 11.4928ZM5.90917 16.9342H7.07682C7.85075 16.9342 8.42723 16.7884 8.80601 16.4968C9.18484 16.2052 9.44034 15.7184 9.57311 15.0363C9.70014 14.3814 9.64228 13.9193 9.39953 13.65C9.15649 13.3808 8.67046 13.2462 7.9412 13.2462H6.62597L5.90917 16.9342ZM8.6681 11.8556C9.77855 11.8556 10.5886 12.147 11.0978 12.7299C11.607 13.3128 11.7603 14.1264 11.5571 15.1709C11.4735 15.6012 11.3321 15.9946 11.133 16.351C10.9337 16.7077 10.6734 17.0338 10.3518 17.3295C9.96845 17.6882 9.54264 17.9438 9.07408 18.0961C8.60552 18.2487 8.00873 18.3247 7.28322 18.3247H5.63898L5.18366 20.6675H3.26408L4.97677 11.8556H8.6681Z" fill="white"/>
<path d="M16.1365 18.5063C16.0823 18.5063 16.031 18.4822 15.9966 18.4403C15.9621 18.3985 15.9481 18.3436 15.9584 18.2904L16.716 14.3914C16.7881 14.0206 16.7703 13.7545 16.666 13.642C16.6022 13.5733 16.4104 13.458 15.8434 13.458H14.4708L13.5183 18.3596C13.5017 18.4448 13.4271 18.5063 13.3402 18.5063H11.4358C11.3816 18.5063 11.3303 18.4822 11.2958 18.4403C11.2614 18.3985 11.2474 18.3435 11.2577 18.2904L12.9704 9.47841C12.987 9.39322 13.0616 9.33168 13.1485 9.33168H15.0529C15.1071 9.33168 15.1584 9.35586 15.1929 9.39764C15.2274 9.43948 15.2413 9.49443 15.231 9.54764L14.8177 11.6745H16.2942C17.4191 11.6745 18.1818 11.8728 18.6261 12.2808C19.0789 12.697 19.2202 13.3624 19.0461 14.2589L18.2492 18.3596C18.2327 18.4448 18.1581 18.5063 18.0712 18.5063H16.1365Z" fill="black"/>
<path d="M15.0532 9.15007H13.1487C12.975 9.15007 12.8257 9.27317 12.7926 9.4436L11.0799 18.2556C11.0592 18.3619 11.0872 18.4719 11.1561 18.5555C11.225 18.6391 11.3277 18.6875 11.436 18.6875H13.3405C13.5141 18.6875 13.6635 18.5644 13.6966 18.394L14.6206 13.6392H15.8436C16.4097 13.6392 16.5285 13.7601 16.5333 13.7653C16.5676 13.8022 16.6128 13.9733 16.5382 14.3566L15.7806 18.2556C15.7599 18.3619 15.7879 18.4719 15.8568 18.5555C15.9257 18.6391 16.0284 18.6875 16.1367 18.6875H18.0714C18.245 18.6875 18.3944 18.5644 18.4275 18.394L19.2243 14.2933C19.4113 13.3308 19.2513 12.6087 18.749 12.147C18.2697 11.7068 17.4668 11.4929 16.2945 11.4929H15.0379L15.4093 9.58206C15.4299 9.47571 15.402 9.36567 15.3331 9.28212C15.2642 9.1985 15.1615 9.15007 15.0532 9.15007ZM15.0532 9.51283L14.5978 11.8556H16.2945C17.362 11.8556 18.0983 12.042 18.5036 12.4141C18.9088 12.7866 19.0302 13.39 18.8683 14.2242L18.0714 18.3247H16.1367L16.8943 14.4259C16.9805 13.9823 16.9489 13.6798 16.7992 13.5185C16.6494 13.3572 16.3308 13.2764 15.8436 13.2764H14.3215L13.3405 18.3247H11.436L13.1487 9.51283H15.0532Z" fill="white"/>
<path d="M22.0595 16.753C22.7889 16.753 23.3335 16.6185 23.678 16.3533C24.0189 16.0909 24.2543 15.6362 24.3778 15.0019C24.4928 14.409 24.449 13.9951 24.2475 13.7717C24.0415 13.5435 23.5962 13.4278 22.9239 13.4278H21.7582L21.1119 16.753H22.0595ZM18.2468 20.8491C18.1927 20.8491 18.1413 20.8249 18.1069 20.7831C18.0724 20.7413 18.0584 20.6863 18.0688 20.6332L19.7814 11.8212C19.7981 11.736 19.8727 11.6745 19.9596 11.6745H23.6508C24.8109 11.6745 25.6743 11.9894 26.2171 12.6108C26.7628 13.2353 26.9312 14.1084 26.7179 15.2057C26.631 15.6528 26.4817 16.068 26.274 16.4397C26.0661 16.8118 25.7913 17.1561 25.4572 17.4632C25.0572 17.8376 24.6044 18.1091 24.1128 18.2688C23.6289 18.4264 23.0075 18.5063 22.2659 18.5063H20.7712L20.3445 20.7023C20.3279 20.7876 20.2533 20.8491 20.1664 20.8491H18.2468Z" fill="black"/>
<path d="M21.9079 13.6089H22.9241C23.7355 13.6089 24.0173 13.787 24.1131 13.8931C24.272 14.0693 24.302 14.4407 24.1999 14.9672C24.0851 15.5567 23.8724 15.9747 23.5676 16.2094C23.2555 16.4496 22.7481 16.5714 22.0597 16.5714H21.3322L21.9079 13.6089ZM23.6509 11.4928H19.9597C19.786 11.4928 19.6368 11.6159 19.6036 11.7864L17.8909 20.5984C17.8703 20.7047 17.8982 20.8147 17.9671 20.8983C18.036 20.9819 18.1387 21.0303 18.247 21.0303H20.1666C20.3402 21.0303 20.4895 20.9072 20.5227 20.7367L20.9209 18.6875H22.2661C23.0268 18.6875 23.6672 18.6045 24.1693 18.441C24.6856 18.2732 25.1609 17.9887 25.5813 17.5954C25.9291 17.2755 26.2154 16.9165 26.4325 16.528C26.6496 16.1394 26.8056 15.7061 26.8961 15.2401C27.1207 14.085 26.9382 13.1601 26.3538 12.4912C25.7751 11.8288 24.8658 11.4928 23.6509 11.4928ZM20.8921 16.9342H22.0597C22.8336 16.9342 23.4101 16.7884 23.7889 16.4968C24.1678 16.2052 24.4232 15.7184 24.556 15.0363C24.683 14.3814 24.6252 13.9193 24.3824 13.65C24.1393 13.3808 23.6533 13.2462 22.9241 13.2462H21.6088L20.8921 16.9342ZM23.6509 11.8556C24.7614 11.8556 25.5715 12.147 26.0807 12.7299C26.5899 13.3128 26.7431 14.1264 26.54 15.1709C26.4564 15.6012 26.315 15.9946 26.1159 16.351C25.9165 16.7077 25.6563 17.0338 25.3346 17.3295C24.9513 17.6882 24.5255 17.9438 24.0569 18.0961C23.5884 18.2487 22.9916 18.3247 22.2661 18.3247H20.6218L20.1666 20.6675H18.247L19.9597 11.8556H23.6509Z" fill="white"/>
</g>
<defs>
<clipPath id="clip0_274_3512">
<rect width="30" height="30" fill="white"/>
</clipPath>
</defs>
</svg>
