<svg width="31" height="32" viewBox="0 0 31 32" fill="none" xmlns="http://www.w3.org/2000/svg">
<path d="M9.68766 6.31254C9.68766 4.52912 11.1334 3.08337 12.9168 3.08337C14.7003 3.08337 16.146 4.52912 16.146 6.31254V8.25004H17.4377C19.2432 8.25004 20.146 8.25004 20.8581 8.54501C21.8075 8.9383 22.5619 9.69266 22.9552 10.6421C23.2502 11.3543 23.2502 12.257 23.2502 14.0625H25.1877C26.9711 14.0625 28.4168 15.5083 28.4168 17.2917C28.4168 19.0751 26.9711 20.5209 25.1877 20.5209H23.2502V22.7167C23.2502 24.8869 23.2502 25.972 22.8278 26.8009C22.4563 27.5301 21.8635 28.1229 21.1344 28.4944C20.3055 28.9167 19.2204 28.9167 17.0502 28.9167H16.146V26.6563C16.146 25.0512 14.8448 23.75 13.2397 23.75C11.6347 23.75 10.3335 25.0512 10.3335 26.6563V28.9167H8.7835C6.61329 28.9167 5.52819 28.9167 4.69928 28.4944C3.97016 28.1229 3.37736 27.5301 3.00585 26.8009C2.5835 25.972 2.5835 24.8869 2.5835 22.7167V20.5209H4.521C6.30442 20.5209 7.75016 19.0751 7.75016 17.2917C7.75016 15.5083 6.30442 14.0625 4.521 14.0625H2.5835C2.5835 12.257 2.5835 11.3543 2.87846 10.6421C3.27175 9.69266 4.02611 8.9383 4.9756 8.54501C5.68771 8.25004 6.59047 8.25004 8.396 8.25004H9.68766V6.31254Z" stroke="#FF732C" stroke-width="2" stroke-linecap="round" stroke-linejoin="round"/>
</svg>
