<svg width="30" height="30" viewBox="0 0 30 30" fill="none" xmlns="http://www.w3.org/2000/svg">
<g clip-path="url(#clip0_274_3482)">
<path d="M5.3125 2.41805e-06H24.6875C25.3853 -0.000672159 26.0764 0.139803 26.7213 0.413387C27.3661 0.686972 27.952 1.0883 28.4455 1.59439C28.9389 2.10048 29.3302 2.70141 29.5969 3.36279C29.8637 4.02416 30.0007 4.73299 30 5.44872V24.5513C30.0007 25.267 29.8637 25.9758 29.5969 26.6372C29.3302 27.2986 28.9389 27.8995 28.4455 28.4056C27.952 28.9117 27.3661 29.313 26.7213 29.5866C26.0764 29.8602 25.3853 30.0007 24.6875 30H5.3125C4.61467 30.0007 3.92356 29.8602 3.27872 29.5866C2.63388 29.313 2.04797 28.9117 1.55453 28.4056C1.06109 27.8995 0.669798 27.2986 0.403053 26.6372C0.136308 25.9758 -0.000655355 25.267 2.35759e-06 24.5513V5.44872C-0.000655355 4.73299 0.136308 4.02416 0.403053 3.36279C0.669798 2.70141 1.06109 2.10048 1.55453 1.59439C2.04797 1.0883 2.63388 0.686972 3.27872 0.413387C3.92356 0.139803 4.61467 -0.000672159 5.3125 2.41805e-06Z" fill="#000B1D"/>
<g clip-path="url(#clip1_274_3482)">
<path d="M14.9997 16.9835C16.1516 16.9835 17.0854 16.0618 17.0854 14.9249C17.0854 13.7879 16.1516 12.8662 14.9997 12.8662C13.8478 12.8662 12.9141 13.7879 12.9141 14.9249C12.9141 16.0618 13.8478 16.9835 14.9997 16.9835Z" fill="#61DAFB"/>
<path fill-rule="evenodd" clip-rule="evenodd" d="M5.01443 13.6405C4.50839 14.0914 4.2958 14.5263 4.2958 14.925C4.2958 15.3238 4.50839 15.7587 5.01443 16.2096C5.52042 16.6604 6.27998 17.0885 7.26005 17.4579C9.21684 18.1954 11.953 18.6616 14.9996 18.6616C18.0462 18.6616 20.7824 18.1954 22.7392 17.4579C23.7192 17.0885 24.4788 16.6604 24.9848 16.2096C25.4908 15.7587 25.7034 15.3238 25.7034 14.925C25.7034 14.5263 25.4908 14.0914 24.9848 13.6405C24.4788 13.1896 23.7192 12.7615 22.7392 12.3922C20.7824 11.6547 18.0462 11.1885 14.9996 11.1885C11.953 11.1885 9.21684 11.6547 7.26005 12.3922C6.27998 12.7615 5.52042 13.1896 5.01443 13.6405ZM6.91227 11.4931C9.00593 10.704 11.8654 10.2261 14.9996 10.2261C18.1338 10.2261 20.9933 10.704 23.0869 11.4931C24.1321 11.887 25.0115 12.3677 25.6381 12.9261C26.2647 13.4844 26.6784 14.1591 26.6784 14.925C26.6784 15.691 26.2647 16.3656 25.6381 16.9239C25.0115 17.4823 24.1321 17.9631 23.0869 18.357C20.9933 19.146 18.1338 19.624 14.9996 19.624C11.8654 19.624 9.00593 19.146 6.91227 18.357C5.86711 17.9631 4.98774 17.4823 4.36111 16.9239C3.73453 16.3656 3.3208 15.691 3.3208 14.925C3.3208 14.1591 3.73453 13.4844 4.36111 12.9261C4.98774 12.3677 5.86711 11.887 6.91227 11.4931Z" fill="#61DAFB"/>
<path fill-rule="evenodd" clip-rule="evenodd" d="M11.1338 5.74723C10.4852 5.54011 9.99732 5.57583 9.64746 5.77521C9.2976 5.97459 9.02233 6.37376 8.87974 7.03179C8.73716 7.68975 8.74135 8.55307 8.90731 9.57554C9.23866 11.617 10.1977 14.1891 11.721 16.7933C13.2443 19.3976 15.0214 21.5034 16.6469 22.8074C17.461 23.4605 18.2163 23.8957 18.8649 24.1028C19.5135 24.31 20.0014 24.2743 20.3513 24.0749C20.7011 23.8755 20.9764 23.4763 21.119 22.8183C21.2616 22.1603 21.2574 21.297 21.0914 20.2745C20.7601 18.2331 19.801 15.661 18.2777 13.0568C16.7545 10.4525 14.9773 8.34665 13.3519 7.04268C12.5378 6.38958 11.7824 5.95433 11.1338 5.74723ZM13.9668 6.29585C15.7059 7.69102 17.555 9.89636 19.1221 12.5756C20.6892 15.2548 21.6996 17.9381 22.0541 20.1223C22.2311 21.2127 22.249 22.2048 22.0724 23.0196C21.8959 23.8343 21.5108 24.5253 20.8388 24.9083C20.1667 25.2913 19.3679 25.275 18.5648 25.0185C17.7616 24.762 16.9001 24.2507 16.0319 23.5542C14.2928 22.1591 12.4437 19.9537 10.8766 17.2745C9.3095 14.5953 8.29912 11.912 7.94459 9.72779C7.7676 8.63742 7.74973 7.64533 7.9263 6.8305C8.10286 6.01573 8.48794 5.32473 9.15996 4.94176C9.83199 4.55879 10.6308 4.57511 11.4339 4.83157C12.2371 5.08805 13.0986 5.59937 13.9668 6.29585Z" fill="#61DAFB"/>
<path fill-rule="evenodd" clip-rule="evenodd" d="M21.1194 7.03157C20.9768 6.37354 20.7015 5.97437 20.3517 5.77499C20.0018 5.57561 19.5139 5.53989 18.8653 5.74701C18.2167 5.95412 17.4614 6.38936 16.6473 7.04246C15.0218 8.34643 13.2447 10.4523 11.7214 13.0565C10.1981 15.6608 9.23906 18.2329 8.90771 20.2743C8.74174 21.2968 8.73756 22.1601 8.88013 22.8181C9.02273 23.4761 9.298 23.8753 9.64786 24.0747C9.99772 24.274 10.4856 24.3098 11.1342 24.1026C11.7828 23.8955 12.5382 23.4603 13.3523 22.8072C14.9777 21.5032 16.7549 19.3974 18.2781 16.7931C19.8014 14.1888 20.7605 11.6168 21.0918 9.57532C21.2578 8.55286 21.262 7.68953 21.1194 7.03157ZM22.0545 9.72757C21.7 11.9118 20.6896 14.5951 19.1225 17.2743C17.5554 19.9535 15.7063 22.1588 13.9672 23.554C13.099 24.2505 12.2375 24.7618 11.4343 25.0183C10.6312 25.2747 9.83238 25.2911 9.16036 24.9081C8.48834 24.5251 8.10326 23.8341 7.9267 23.0194C7.75013 22.2045 7.768 21.2124 7.94498 20.1221C8.29952 17.9378 9.30989 15.2546 10.877 12.5753C12.4441 9.89614 14.2932 7.6908 16.0323 6.29563C16.9005 5.59915 17.762 5.08783 18.5652 4.83135C19.3683 4.57489 20.1671 4.55857 20.8392 4.94154C21.5112 5.32451 21.8963 6.01551 22.0728 6.83028C22.2494 7.64511 22.2315 8.6372 22.0545 9.72757Z" fill="#61DAFB"/>
</g>
</g>
<defs>
<clipPath id="clip0_274_3482">
<rect width="30" height="30" fill="white"/>
</clipPath>
<clipPath id="clip1_274_3482">
<rect width="23.4" height="20.55" fill="white" transform="translate(3.2998 4.6499)"/>
</clipPath>
</defs>
</svg>
