<svg width="84" height="72" viewBox="0 0 84 72" fill="none" xmlns="http://www.w3.org/2000/svg">
<path d="M0 18C0 8.05888 8.05888 0 18 0H66C75.9411 0 84 8.05888 84 18V54C84 63.9411 75.9411 72 66 72H18C8.05888 72 0 63.9411 0 54V18Z" fill="#FF732C"/>
<path d="M43.6668 34.3333H51.6668C53.5337 34.3333 54.4671 34.3333 55.1801 34.6966C55.8073 35.0162 56.3173 35.5262 56.6369 36.1534C57.0002 36.8664 57.0002 37.7998 57.0002 39.6667V51M43.6668 51V26.3333C43.6668 24.4665 43.6668 23.5331 43.3035 22.82C42.9839 22.1928 42.474 21.6829 41.8468 21.3633C41.1338 21 40.2003 21 38.3335 21H32.3335C30.4667 21 29.5332 21 28.8202 21.3633C28.193 21.6829 27.6831 22.1928 27.3635 22.82C27.0002 23.5331 27.0002 24.4665 27.0002 26.3333V51M58.6668 51H25.3335M32.8335 27.6667H37.8335M32.8335 34.3333H37.8335M32.8335 41H37.8335" stroke="white" stroke-width="2" stroke-linecap="round" stroke-linejoin="round"/>
</svg>
