<?xml version="1.0" standalone="no"?>
<!DOCTYPE svg PUBLIC "-//W3C//DTD SVG 20010904//EN"
 "http://www.w3.org/TR/2001/REC-SVG-20010904/DTD/svg10.dtd">
<svg version="1.0" xmlns="http://www.w3.org/2000/svg"
 width="3108.000000pt" height="863.000000pt" viewBox="0 0 3108.000000 863.000000"
 preserveAspectRatio="xMidYMid meet">

<g transform="translate(0.000000,863.000000) scale(0.100000,-0.100000)"
fill="#000000" stroke="none">
<path d="M28260 7479 c-669 -75 -1232 -428 -1616 -1014 -233 -356 -398 -801
-478 -1292 -101 -616 -77 -1310 65 -1878 200 -797 620 -1399 1204 -1727 235
-132 508 -220 805 -259 121 -16 436 -16 560 -1 395 50 770 198 1060 419 618
472 994 1280 1070 2303 21 287 11 697 -26 983 -108 855 -448 1551 -966 1983
-319 267 -727 436 -1160 483 -112 13 -408 12 -518 0z m400 -50 c303 -37 577
-178 824 -423 531 -528 826 -1460 826 -2611 0 -926 -190 -1712 -547 -2260
-277 -426 -642 -691 -1047 -761 -135 -24 -359 -15 -488 20 -670 179 -1184 877
-1387 1886 -69 341 -91 570 -98 997 -6 376 3 590 38 863 99 785 351 1408 738
1822 324 346 741 517 1141 467z"/>
<path d="M2155 7424 c-321 -33 -594 -108 -840 -230 -438 -218 -713 -572 -791
-1019 -23 -135 -23 -388 0 -510 84 -440 347 -778 834 -1068 263 -157 557 -289
1155 -518 486 -186 635 -248 862 -359 428 -210 678 -422 798 -680 67 -143 81
-209 81 -380 0 -172 -20 -262 -89 -406 -193 -400 -660 -696 -1270 -805 -152
-27 -492 -37 -646 -19 -621 71 -1118 381 -1419 883 -144 241 -250 567 -295
911 -8 64 -15 137 -15 162 0 44 -10 53 -39 35 -9 -6 -52 -287 -147 -962 -73
-525 -136 -973 -139 -996 -6 -41 -5 -43 19 -43 23 0 26 4 26 39 0 112 60 353
120 477 42 86 107 158 156 170 50 13 123 -23 352 -174 251 -165 401 -254 531
-314 400 -185 743 -261 1181 -261 487 -1 888 88 1260 279 159 82 290 175 405
289 123 122 184 206 261 360 111 224 156 474 133 736 -49 575 -405 992 -1164
1363 -219 108 -400 184 -880 371 -496 194 -648 258 -865 366 -283 141 -470
268 -616 421 -187 195 -270 381 -281 633 -28 630 427 1065 1227 1177 137 19
544 16 683 -5 264 -40 481 -104 673 -196 324 -156 509 -353 558 -593 34 -164
18 -197 -149 -323 -178 -134 -230 -217 -242 -380 -15 -220 99 -379 299 -416
219 -40 426 115 495 371 23 86 23 333 0 437 -92 406 -365 719 -817 937 -158
76 -266 115 -446 161 -228 59 -376 77 -664 80 -140 2 -273 1 -295 -1z"/>
<path d="M7340 7365 c0 -2 63 -150 141 -327 79 -182 138 -332 136 -343 -3 -17
-1956 -4368 -2034 -4534 -69 -146 -237 -353 -387 -478 -146 -122 -276 -191
-378 -201 -45 -4 -48 -6 -48 -33 l0 -29 645 0 645 0 0 30 c0 30 -1 30 -52 30
-168 0 -334 107 -389 248 -47 122 -33 299 35 437 42 85 175 299 248 398 447
611 1012 1019 1639 1186 208 56 334 73 575 78 300 7 522 -21 744 -95 l83 -27
349 -790 c192 -434 362 -829 378 -876 55 -162 59 -294 10 -390 -26 -50 -107
-120 -166 -142 -27 -11 -88 -21 -136 -24 l-88 -6 0 -28 0 -29 945 0 945 0 0
30 c0 30 -1 30 -53 30 -181 0 -444 135 -590 303 -99 113 -151 207 -310 569
-86 194 -620 1401 -1186 2683 l-1029 2330 -336 3 c-185 1 -336 0 -336 -3z
m939 -2146 c337 -770 615 -1408 618 -1419 5 -17 0 -17 -79 5 -260 73 -567 100
-843 75 -340 -32 -636 -116 -951 -271 -416 -204 -793 -518 -1105 -920 -44 -55
-79 -97 -79 -93 0 4 397 887 882 1963 485 1076 892 1980 904 2009 13 28 27 52
31 52 5 0 284 -631 622 -1401z"/>
<path d="M11760 7341 c0 -30 1 -31 48 -31 78 0 182 -27 267 -69 136 -67 232
-178 283 -326 l27 -80 3 -2413 c2 -2676 7 -2486 -64 -2631 -45 -92 -142 -192
-231 -239 -76 -40 -197 -72 -275 -72 -58 0 -58 0 -58 -30 l0 -30 950 0 950 0
0 30 c0 30 0 30 -58 30 -78 0 -161 22 -258 70 -142 70 -247 205 -291 376 -17
64 -18 147 -18 1154 l0 1085 250 3 c404 5 626 -18 837 -84 311 -98 566 -307
744 -610 123 -209 199 -406 344 -889 126 -421 174 -555 257 -716 136 -266 295
-407 530 -471 115 -31 337 -32 446 0 216 62 415 205 550 393 50 71 55 84 33
92 -8 3 -28 -14 -49 -42 -50 -65 -151 -161 -217 -204 -82 -55 -161 -80 -250
-81 -102 -1 -161 26 -239 110 -113 120 -167 242 -340 771 -133 406 -209 603
-306 796 -260 517 -623 821 -1107 926 -53 11 -129 24 -168 27 -83 8 -75 16 31
33 42 7 135 27 205 45 543 141 951 441 1169 858 117 224 160 420 152 691 -4
151 -8 186 -35 287 -49 181 -100 296 -200 446 -163 243 -392 434 -692 578
-251 120 -494 185 -840 227 -64 8 -471 13 -1237 16 l-1143 4 0 -30z m2400 -55
c183 -36 364 -111 510 -209 102 -69 255 -219 330 -325 291 -408 371 -1004 203
-1527 -80 -248 -193 -436 -367 -611 -196 -196 -392 -303 -674 -365 -91 -21
-129 -22 -614 -26 l-518 -5 0 1547 0 1546 523 -4 c439 -3 536 -7 607 -21z"/>
<path d="M19831 7188 c44 -101 110 -251 145 -333 l66 -150 -1030 -2293 c-1166
-2594 -1070 -2401 -1297 -2628 -182 -184 -342 -285 -475 -301 -47 -5 -50 -8
-50 -34 l0 -29 640 0 640 0 0 29 c0 28 -1 28 -74 34 -171 13 -315 115 -366
261 -25 69 -27 212 -4 300 27 106 132 293 284 506 460 643 1075 1074 1750
1224 214 47 341 59 600 53 261 -6 390 -25 592 -87 l106 -33 357 -809 c197
-445 369 -844 383 -886 21 -64 26 -96 26 -192 1 -106 -1 -119 -26 -166 -56
-105 -157 -164 -299 -172 l-89 -5 0 -28 0 -29 945 0 945 0 0 29 0 28 -82 6
c-272 21 -540 209 -701 492 -24 44 -573 1276 -1218 2738 l-1172 2657 -338 0
-337 0 79 -182z m865 -1973 c338 -769 617 -1408 620 -1418 5 -17 3 -19 -12
-13 -49 20 -255 67 -361 83 -178 26 -522 24 -708 -5 -488 -76 -938 -279 -1350
-608 -142 -114 -397 -370 -505 -508 -135 -173 -135 -173 -92 -76 233 531 1779
3949 1785 3947 5 -1 285 -632 623 -1402z"/>
<path d="M24747 1824 c-37 -63 -67 -120 -67 -125 0 -5 30 -61 66 -124 l67
-115 136 0 136 0 68 119 68 120 -68 120 -68 120 -135 1 -135 0 -68 -116z"/>
</g>
</svg>
