<svg width="43" height="52" viewBox="0 0 43 52" fill="none" xmlns="http://www.w3.org/2000/svg">
<circle cx="15" cy="36.5" r="14" stroke="black" stroke-width="2"/>
<circle cx="15.9573" cy="35.5426" r="14.0426" fill="white"/>
<path d="M11.5908 39.9088L18.4089 33.0906M18.4089 33.0906V39.9088M18.4089 33.0906H11.5908" stroke="#2C2C2C" stroke-width="2.3" stroke-linecap="round" stroke-linejoin="round"/>
<path d="M13.2443 7.56818V3.63636H14.1364V7.56818H13.2443ZM11.7244 6.0483V5.15625H15.6562V6.0483H11.7244ZM20.907 8.57955C20.5282 8.57955 20.1892 8.50852 19.8899 8.36648C19.5907 8.22254 19.353 8.02557 19.1768 7.77557C19.0026 7.52557 18.9098 7.23958 18.8984 6.91761H19.9212C19.9401 7.15625 20.0433 7.35133 20.2308 7.50284C20.4183 7.65246 20.6437 7.72727 20.907 7.72727C21.1134 7.72727 21.2971 7.67992 21.4581 7.58523C21.6191 7.49053 21.746 7.3589 21.8388 7.19034C21.9316 7.02178 21.977 6.82955 21.9751 6.61364C21.977 6.39394 21.9306 6.19886 21.8359 6.02841C21.7412 5.85795 21.6115 5.72443 21.4467 5.62784C21.282 5.52936 21.0926 5.48011 20.8786 5.48011C20.7043 5.47822 20.5329 5.51042 20.3643 5.5767C20.1958 5.64299 20.0623 5.73011 19.9638 5.83807L19.0121 5.68182L19.3161 2.68182H22.6911V3.5625H20.1882L20.0206 5.10511H20.0547C20.1626 4.97822 20.3151 4.87311 20.5121 4.78977C20.709 4.70455 20.925 4.66193 21.1598 4.66193C21.5121 4.66193 21.8265 4.74527 22.103 4.91193C22.3795 5.0767 22.5973 5.30398 22.7564 5.59375C22.9155 5.88352 22.995 6.21496 22.995 6.58807C22.995 6.97254 22.906 7.31534 22.728 7.61648C22.5518 7.91572 22.3066 8.15152 21.9922 8.32386C21.6797 8.49432 21.3179 8.57955 20.907 8.57955ZM26.0973 8.6108C25.6295 8.6108 25.228 8.49242 24.8928 8.25568C24.5594 8.01705 24.3028 7.6733 24.1229 7.22443C23.9448 6.77367 23.8558 6.23106 23.8558 5.59659C23.8577 4.96212 23.9477 4.42235 24.1257 3.97727C24.3056 3.5303 24.5623 3.18939 24.8956 2.95455C25.2308 2.7197 25.6314 2.60227 26.0973 2.60227C26.5632 2.60227 26.9638 2.7197 27.299 2.95455C27.6342 3.18939 27.8909 3.5303 28.0689 3.97727C28.2488 4.42424 28.3388 4.96402 28.3388 5.59659C28.3388 6.23295 28.2488 6.77652 28.0689 7.22727C27.8909 7.67614 27.6342 8.01894 27.299 8.25568C26.9657 8.49242 26.5651 8.6108 26.0973 8.6108ZM26.0973 7.72159C26.4609 7.72159 26.7479 7.54261 26.9581 7.18466C27.1702 6.82481 27.2763 6.29545 27.2763 5.59659C27.2763 5.13447 27.228 4.74621 27.1314 4.43182C27.0348 4.11742 26.8984 3.88068 26.7223 3.72159C26.5462 3.56061 26.3378 3.48011 26.0973 3.48011C25.7356 3.48011 25.4496 3.66004 25.2393 4.01989C25.0291 4.37784 24.9231 4.90341 24.9212 5.59659C24.9193 6.06061 24.9657 6.45076 25.0604 6.76705C25.157 7.08333 25.2933 7.32197 25.4695 7.48295C25.6456 7.64205 25.8549 7.72159 26.0973 7.72159ZM11.5739 18.5V12.6818H13.7557C14.2027 12.6818 14.5777 12.7652 14.8807 12.9318C15.1856 13.0985 15.4157 13.3277 15.571 13.6193C15.7282 13.9091 15.8068 14.2386 15.8068 14.608C15.8068 14.9811 15.7282 15.3125 15.571 15.6023C15.4138 15.892 15.1818 16.1203 14.875 16.2869C14.5682 16.4517 14.1903 16.5341 13.7415 16.5341H12.2955V15.6676H13.5994C13.8608 15.6676 14.0748 15.6222 14.2415 15.5312C14.4081 15.4403 14.5313 15.3153 14.6108 15.1562C14.6922 14.9972 14.733 14.8144 14.733 14.608C14.733 14.4015 14.6922 14.2197 14.6108 14.0625C14.5313 13.9053 14.4072 13.7831 14.2386 13.696C14.072 13.607 13.857 13.5625 13.5938 13.5625H12.6278V18.5H11.5739ZM16.6768 18.5V14.1364H17.674V14.8636H17.7195C17.799 14.6117 17.9354 14.4176 18.1286 14.2812C18.3236 14.143 18.5462 14.0739 18.7962 14.0739C18.853 14.0739 18.9164 14.0767 18.9865 14.0824C19.0585 14.0862 19.1181 14.0928 19.1655 14.1023V15.0483C19.1219 15.0331 19.0528 15.0199 18.9581 15.0085C18.8653 14.9953 18.7753 14.9886 18.6882 14.9886C18.5007 14.9886 18.3321 15.0294 18.1825 15.1108C18.0348 15.1903 17.9183 15.3011 17.8331 15.4432C17.7479 15.5852 17.7053 15.7491 17.7053 15.9347V18.5H16.6768ZM21.5724 18.5852C21.1463 18.5852 20.777 18.4915 20.4645 18.304C20.152 18.1165 19.9096 17.8542 19.7372 17.517C19.5668 17.1799 19.4815 16.786 19.4815 16.3352C19.4815 15.8845 19.5668 15.4896 19.7372 15.1506C19.9096 14.8116 20.152 14.5483 20.4645 14.3608C20.777 14.1733 21.1463 14.0795 21.5724 14.0795C21.9986 14.0795 22.3679 14.1733 22.6804 14.3608C22.9929 14.5483 23.2344 14.8116 23.4048 15.1506C23.5772 15.4896 23.6634 15.8845 23.6634 16.3352C23.6634 16.786 23.5772 17.1799 23.4048 17.517C23.2344 17.8542 22.9929 18.1165 22.6804 18.304C22.3679 18.4915 21.9986 18.5852 21.5724 18.5852ZM21.5781 17.7614C21.8092 17.7614 22.0024 17.6979 22.1577 17.571C22.313 17.4422 22.4285 17.2699 22.5043 17.054C22.5819 16.8381 22.6207 16.5975 22.6207 16.3324C22.6207 16.0653 22.5819 15.8239 22.5043 15.608C22.4285 15.3902 22.313 15.2169 22.1577 15.0881C22.0024 14.9593 21.8092 14.8949 21.5781 14.8949C21.3414 14.8949 21.1444 14.9593 20.9872 15.0881C20.8319 15.2169 20.7154 15.3902 20.6378 15.608C20.562 15.8239 20.5241 16.0653 20.5241 16.3324C20.5241 16.5975 20.562 16.8381 20.6378 17.054C20.7154 17.2699 20.8319 17.4422 20.9872 17.571C21.1444 17.6979 21.3414 17.7614 21.5781 17.7614ZM24.5362 14.1364H25.5646V18.75C25.5646 19.0644 25.505 19.3239 25.3857 19.5284C25.2663 19.733 25.094 19.8854 24.8686 19.9858C24.6432 20.0862 24.3696 20.1364 24.0476 20.1364C24.0097 20.1364 23.9747 20.1354 23.9425 20.1335C23.9103 20.1335 23.8752 20.1326 23.8374 20.1307V19.2926C23.8658 19.2945 23.8913 19.2955 23.9141 19.2955C23.9368 19.2973 23.9605 19.2983 23.9851 19.2983C24.1821 19.2983 24.3232 19.25 24.4084 19.1534C24.4936 19.0587 24.5362 18.9195 24.5362 18.7358V14.1364ZM25.0476 13.517C24.8828 13.517 24.7417 13.4631 24.6243 13.3551C24.5088 13.2453 24.451 13.1136 24.451 12.9602C24.451 12.8049 24.5088 12.6733 24.6243 12.5653C24.7417 12.4555 24.8828 12.4006 25.0476 12.4006C25.2105 12.4006 25.3497 12.4555 25.4652 12.5653C25.5826 12.6733 25.6413 12.8049 25.6413 12.9602C25.6413 13.1136 25.5826 13.2453 25.4652 13.3551C25.3497 13.4631 25.2105 13.517 25.0476 13.517ZM28.554 18.5852C28.1165 18.5852 27.7386 18.4943 27.4205 18.3125C27.1042 18.1288 26.8608 17.8693 26.6903 17.5341C26.5199 17.197 26.4347 16.8002 26.4347 16.3438C26.4347 15.8949 26.5199 15.5009 26.6903 15.1619C26.8627 14.821 27.1032 14.5559 27.4119 14.3665C27.7206 14.1752 28.0833 14.0795 28.5 14.0795C28.7689 14.0795 29.0227 14.1231 29.2614 14.2102C29.5019 14.2955 29.714 14.428 29.8977 14.608C30.0833 14.7879 30.2292 15.017 30.3352 15.2955C30.4413 15.572 30.4943 15.9015 30.4943 16.2841V16.5994H26.9176V15.9062H29.5085C29.5066 15.7093 29.464 15.5341 29.3807 15.3807C29.2973 15.2254 29.1809 15.1032 29.0312 15.0142C28.8835 14.9252 28.7112 14.8807 28.5142 14.8807C28.304 14.8807 28.1193 14.9318 27.9602 15.0341C27.8011 15.1345 27.6771 15.267 27.5881 15.4318C27.5009 15.5947 27.4564 15.7737 27.4545 15.9688V16.5739C27.4545 16.8277 27.5009 17.0455 27.5938 17.2273C27.6866 17.4072 27.8163 17.5455 27.983 17.642C28.1496 17.7367 28.3447 17.7841 28.5682 17.7841C28.7178 17.7841 28.8532 17.7633 28.9744 17.7216C29.0956 17.678 29.2008 17.6146 29.2898 17.5312C29.3788 17.4479 29.446 17.3447 29.4915 17.2216L30.4517 17.3295C30.3911 17.5833 30.2756 17.8049 30.1051 17.9943C29.9366 18.1818 29.7206 18.3277 29.4574 18.4318C29.1941 18.5341 28.893 18.5852 28.554 18.5852ZM33.2678 18.5852C32.8321 18.5852 32.4581 18.4896 32.1456 18.2983C31.835 18.107 31.5954 17.8428 31.4268 17.5057C31.2602 17.1667 31.1768 16.7765 31.1768 16.3352C31.1768 15.892 31.2621 15.5009 31.4325 15.1619C31.603 14.821 31.8435 14.5559 32.1541 14.3665C32.4666 14.1752 32.8359 14.0795 33.2621 14.0795C33.6162 14.0795 33.9297 14.1449 34.2024 14.2756C34.477 14.4044 34.6958 14.5871 34.8587 14.8239C35.0215 15.0587 35.1143 15.3333 35.1371 15.6477H34.1541C34.1143 15.4375 34.0196 15.2623 33.87 15.1222C33.7223 14.9801 33.5244 14.9091 33.2763 14.9091C33.0661 14.9091 32.8814 14.9659 32.7223 15.0795C32.5632 15.1913 32.4392 15.3523 32.3501 15.5625C32.263 15.7727 32.2195 16.0246 32.2195 16.3182C32.2195 16.6155 32.263 16.8712 32.3501 17.0852C32.4373 17.2973 32.5594 17.4612 32.7166 17.5767C32.8757 17.6903 33.0623 17.7472 33.2763 17.7472C33.4278 17.7472 33.5632 17.7187 33.6825 17.6619C33.8037 17.6032 33.9051 17.5189 33.9865 17.4091C34.0679 17.2992 34.1238 17.1657 34.1541 17.0085H35.1371C35.1125 17.3172 35.0215 17.5909 34.8643 17.8295C34.7071 18.0663 34.4931 18.2519 34.2223 18.3864C33.9515 18.5189 33.6333 18.5852 33.2678 18.5852ZM38.1605 14.1364V14.9318H35.652V14.1364H38.1605ZM36.2713 13.0909H37.2997V17.1875C37.2997 17.3258 37.3205 17.4318 37.3622 17.5057C37.4058 17.5777 37.4626 17.6269 37.5327 17.6534C37.6027 17.6799 37.6804 17.6932 37.7656 17.6932C37.83 17.6932 37.8887 17.6884 37.9418 17.679C37.9967 17.6695 38.0384 17.661 38.0668 17.6534L38.2401 18.4574C38.1851 18.4763 38.1065 18.4972 38.0043 18.5199C37.9039 18.5426 37.7808 18.5559 37.6349 18.5597C37.3774 18.5672 37.1454 18.5284 36.9389 18.4432C36.7325 18.3561 36.5687 18.2216 36.4474 18.0398C36.3281 17.858 36.2694 17.6307 36.2713 17.358V13.0909ZM42.407 15.2898L41.4695 15.392C41.4429 15.2973 41.3965 15.2083 41.3303 15.125C41.2659 15.0417 41.1787 14.9744 41.0689 14.9233C40.959 14.8722 40.8246 14.8466 40.6655 14.8466C40.4515 14.8466 40.2715 14.893 40.1257 14.9858C39.9818 15.0786 39.9107 15.1989 39.9126 15.3466C39.9107 15.4735 39.9571 15.5767 40.0518 15.6562C40.1484 15.7358 40.3075 15.8011 40.5291 15.8523L41.2734 16.0114C41.6863 16.1004 41.9931 16.2415 42.1939 16.4347C42.3965 16.6278 42.4988 16.8807 42.5007 17.1932C42.4988 17.4678 42.4183 17.7102 42.2592 17.9205C42.102 18.1288 41.8833 18.2917 41.603 18.4091C41.3227 18.5265 41.0007 18.5852 40.6371 18.5852C40.103 18.5852 39.6731 18.4735 39.3473 18.25C39.0215 18.0246 38.8274 17.7112 38.7649 17.3097L39.7678 17.2131C39.8132 17.41 39.9098 17.5587 40.0575 17.6591C40.2053 17.7595 40.3975 17.8097 40.6342 17.8097C40.8786 17.8097 41.0746 17.7595 41.2223 17.6591C41.3719 17.5587 41.4467 17.4347 41.4467 17.2869C41.4467 17.1619 41.3984 17.0587 41.3018 16.9773C41.2071 16.8958 41.0594 16.8333 40.8587 16.7898L40.1143 16.6335C39.6958 16.5464 39.3861 16.3996 39.1854 16.1932C38.9846 15.9848 38.8852 15.7216 38.8871 15.4034C38.8852 15.1345 38.9581 14.9015 39.1058 14.7045C39.2554 14.5057 39.4628 14.3523 39.728 14.2443C39.995 14.1345 40.3028 14.0795 40.6513 14.0795C41.1626 14.0795 41.5651 14.1884 41.8587 14.4062C42.1541 14.6241 42.3369 14.9186 42.407 15.2898Z" fill="black"/>
</svg>
