<svg width="135" height="103" viewBox="0 0 135 103" fill="none" xmlns="http://www.w3.org/2000/svg">
<circle cx="44.5" cy="59" r="43" stroke="black" stroke-width="2"/>
<circle cx="47.3087" cy="56.1915" r="41.1915" fill="white"/>
<path d="M34.5 69L54.5 49M54.5 49V69M54.5 49H34.5" stroke="#2C2C2C" stroke-width="2.3" stroke-linecap="round" stroke-linejoin="round"/>
<path d="M67.5497 15.9034V7.05682H69.5568V15.9034H67.5497ZM64.13 12.4837V10.4766H72.9766V12.4837H64.13ZM84.7907 18.179C83.9384 18.179 83.1756 18.0192 82.5023 17.6996C81.829 17.3757 81.2942 16.9325 80.8979 16.37C80.5059 15.8075 80.2971 15.1641 80.2715 14.4396H82.5726C82.6152 14.9766 82.8475 15.4155 83.2694 15.7564C83.6912 16.093 84.1983 16.2614 84.7907 16.2614C85.2551 16.2614 85.6685 16.1548 86.0307 15.9418C86.3929 15.7287 86.6784 15.4325 86.8873 15.0533C87.0961 14.674 87.1983 14.2415 87.1941 13.7557C87.1983 13.2614 87.0939 12.8224 86.8809 12.4389C86.6678 12.0554 86.3759 11.755 86.0051 11.5376C85.6344 11.3161 85.2083 11.2053 84.7267 11.2053C84.3347 11.201 83.949 11.2734 83.5698 11.4226C83.1905 11.5717 82.8901 11.7678 82.6685 12.0107L80.5272 11.6591L81.2111 4.90909H88.8049V6.89062H83.1735L82.7963 10.3615H82.873C83.1159 10.076 83.459 9.83949 83.9022 9.65199C84.3453 9.46023 84.8311 9.36435 85.3596 9.36435C86.1522 9.36435 86.8596 9.55185 87.4817 9.92685C88.1039 10.2976 88.5939 10.8089 88.9519 11.4609C89.3098 12.1129 89.4888 12.8587 89.4888 13.6982C89.4888 14.5632 89.2885 15.3345 88.888 16.0121C88.4917 16.6854 87.9398 17.2159 87.2324 17.6037C86.5293 17.9872 85.7154 18.179 84.7907 18.179ZM96.4689 18.2493C95.4164 18.2493 94.513 17.983 93.7587 17.4503C93.0087 16.9134 92.4313 16.1399 92.0265 15.13C91.6259 14.1158 91.4256 12.8949 91.4256 11.4673C91.4299 10.0398 91.6323 8.82528 92.0328 7.82386C92.4377 6.81818 93.0151 6.05114 93.7651 5.52273C94.5194 4.99432 95.4206 4.73011 96.4689 4.73011C97.5172 4.73011 98.4185 4.99432 99.1728 5.52273C99.927 6.05114 100.504 6.81818 100.905 7.82386C101.31 8.82955 101.512 10.044 101.512 11.4673C101.512 12.8991 101.31 14.1222 100.905 15.1364C100.504 16.1463 99.927 16.9176 99.1728 17.4503C98.4228 17.983 97.5215 18.2493 96.4689 18.2493ZM96.4689 16.2486C97.2871 16.2486 97.9327 15.8459 98.4057 15.0405C98.883 14.2308 99.1216 13.0398 99.1216 11.4673C99.1216 10.4276 99.013 9.55398 98.7956 8.84659C98.5783 8.1392 98.2715 7.60653 97.8752 7.24858C97.4789 6.88636 97.0101 6.70526 96.4689 6.70526C95.655 6.70526 95.0115 7.11008 94.5385 7.91974C94.0655 8.72514 93.8269 9.90767 93.8226 11.4673C93.8184 12.5114 93.9228 13.3892 94.1358 14.1009C94.3532 14.8125 94.66 15.3494 95.0563 15.7116C95.4526 16.0696 95.9235 16.2486 96.4689 16.2486ZM63.7912 40V26.9091H68.7003C69.706 26.9091 70.5497 27.0966 71.2315 27.4716C71.9176 27.8466 72.4354 28.3622 72.7848 29.0185C73.1385 29.6705 73.3153 30.4119 73.3153 31.2429C73.3153 32.0824 73.1385 32.8281 72.7848 33.4801C72.4311 34.1321 71.9091 34.6456 71.2188 35.0206C70.5284 35.3913 69.6783 35.5767 68.6683 35.5767H65.4148V33.6271H68.3487C68.9368 33.6271 69.4183 33.5249 69.7933 33.3203C70.1683 33.1158 70.4453 32.8345 70.6243 32.4766C70.8075 32.1186 70.8991 31.7074 70.8991 31.2429C70.8991 30.7784 70.8075 30.3693 70.6243 30.0156C70.4453 29.6619 70.1662 29.3871 69.7869 29.1911C69.4119 28.9908 68.9283 28.8906 68.3359 28.8906H66.1626V40H63.7912ZM75.2729 40V30.1818H77.5165V31.8182H77.6188C77.7978 31.2514 78.1046 30.8146 78.5392 30.5078C78.9782 30.1967 79.4789 30.0412 80.0414 30.0412C80.1692 30.0412 80.312 30.0476 80.4696 30.0604C80.6316 30.0689 80.7658 30.0838 80.8723 30.1051V32.2337C80.7743 32.1996 80.6188 32.1697 80.4057 32.1442C80.1969 32.1143 79.9945 32.0994 79.7985 32.0994C79.3766 32.0994 78.9973 32.1911 78.6607 32.3743C78.3283 32.5533 78.0662 32.8026 77.8745 33.1222C77.6827 33.4418 77.5868 33.8104 77.5868 34.228V40H75.2729ZM86.288 40.1918C85.3292 40.1918 84.4982 39.9808 83.7951 39.5589C83.092 39.1371 82.5465 38.5469 82.1587 37.7884C81.7752 37.0298 81.5835 36.1435 81.5835 35.1293C81.5835 34.1151 81.7752 33.2266 82.1587 32.4638C82.5465 31.701 83.092 31.1087 83.7951 30.6868C84.4982 30.2649 85.3292 30.054 86.288 30.054C87.2468 30.054 88.0778 30.2649 88.7809 30.6868C89.484 31.1087 90.0273 31.701 90.4109 32.4638C90.7987 33.2266 90.9925 34.1151 90.9925 35.1293C90.9925 36.1435 90.7987 37.0298 90.4109 37.7884C90.0273 38.5469 89.484 39.1371 88.7809 39.5589C88.0778 39.9808 87.2468 40.1918 86.288 40.1918ZM86.3008 38.3381C86.8207 38.3381 87.2553 38.1953 87.6048 37.9098C87.9542 37.62 88.2141 37.2322 88.3846 36.7464C88.5593 36.2607 88.6467 35.7195 88.6467 35.1229C88.6467 34.522 88.5593 33.9787 88.3846 33.4929C88.2141 33.0028 87.9542 32.6129 87.6048 32.3232C87.2553 32.0334 86.8207 31.8885 86.3008 31.8885C85.7681 31.8885 85.3249 32.0334 84.9712 32.3232C84.6218 32.6129 84.3597 33.0028 84.185 33.4929C84.0146 33.9787 83.9293 34.522 83.9293 35.1229C83.9293 35.7195 84.0146 36.2607 84.185 36.7464C84.3597 37.2322 84.6218 37.62 84.9712 37.9098C85.3249 38.1953 85.7681 38.3381 86.3008 38.3381ZM92.9565 30.1818H95.2704V40.5625C95.2704 41.2699 95.1362 41.8537 94.8677 42.3139C94.5993 42.7741 94.2115 43.1172 93.7044 43.343C93.1973 43.5689 92.5815 43.6818 91.8571 43.6818C91.7718 43.6818 91.693 43.6797 91.6206 43.6754C91.5481 43.6754 91.4693 43.6733 91.3841 43.669V41.7834C91.448 41.7876 91.5055 41.7898 91.5566 41.7898C91.6078 41.794 91.661 41.7962 91.7164 41.7962C92.1596 41.7962 92.4771 41.6875 92.6689 41.4702C92.8606 41.2571 92.9565 40.9439 92.9565 40.5305V30.1818ZM94.1071 28.7884C93.7363 28.7884 93.4189 28.6669 93.1547 28.424C92.8947 28.1768 92.7647 27.8807 92.7647 27.5355C92.7647 27.1861 92.8947 26.8899 93.1547 26.647C93.4189 26.3999 93.7363 26.2763 94.1071 26.2763C94.4735 26.2763 94.7868 26.3999 95.0467 26.647C95.3109 26.8899 95.443 27.1861 95.443 27.5355C95.443 27.8807 95.3109 28.1768 95.0467 28.424C94.7868 28.6669 94.4735 28.7884 94.1071 28.7884ZM101.996 40.1918C101.012 40.1918 100.162 39.9872 99.446 39.5781C98.7344 39.1648 98.1868 38.581 97.8033 37.8267C97.4197 37.0682 97.228 36.1754 97.228 35.1484C97.228 34.1385 97.4197 33.2521 97.8033 32.4893C98.1911 31.7223 98.7322 31.1257 99.4268 30.6996C100.121 30.2692 100.938 30.054 101.875 30.054C102.48 30.054 103.051 30.152 103.588 30.348C104.129 30.5398 104.607 30.8381 105.02 31.2429C105.438 31.6477 105.766 32.1634 106.004 32.7898C106.243 33.4119 106.362 34.1534 106.362 35.0142V35.7237H98.3146V34.1641H104.144C104.14 33.7209 104.044 33.3267 103.857 32.9815C103.669 32.6321 103.407 32.3572 103.07 32.157C102.738 31.9567 102.35 31.8565 101.907 31.8565C101.434 31.8565 101.018 31.9716 100.661 32.2017C100.303 32.4276 100.023 32.7259 99.8232 33.0966C99.6271 33.4631 99.527 33.8658 99.5227 34.3047V35.6662C99.5227 36.2372 99.6271 36.7273 99.8359 37.1364C100.045 37.5412 100.337 37.8523 100.712 38.0696C101.087 38.2827 101.526 38.3892 102.028 38.3892C102.365 38.3892 102.67 38.3423 102.942 38.2486C103.215 38.1506 103.452 38.0078 103.652 37.8203C103.852 37.6328 104.004 37.4006 104.106 37.1236L106.266 37.3665C106.13 37.9375 105.87 38.4361 105.487 38.8622C105.107 39.2841 104.621 39.6122 104.029 39.8466C103.437 40.0767 102.759 40.1918 101.996 40.1918ZM112.602 40.1918C111.622 40.1918 110.781 39.9766 110.078 39.5462C109.379 39.1158 108.84 38.5213 108.46 37.7628C108.085 37 107.898 36.1222 107.898 35.1293C107.898 34.1321 108.09 33.2521 108.473 32.4893C108.857 31.7223 109.398 31.1257 110.097 30.6996C110.8 30.2692 111.631 30.054 112.59 30.054C113.387 30.054 114.092 30.201 114.705 30.495C115.323 30.7848 115.816 31.196 116.182 31.7287C116.548 32.2571 116.757 32.875 116.808 33.5824H114.597C114.507 33.1094 114.294 32.7152 113.958 32.3999C113.625 32.0803 113.18 31.9205 112.622 31.9205C112.149 31.9205 111.733 32.0483 111.375 32.304C111.017 32.5554 110.738 32.9176 110.538 33.3906C110.342 33.8636 110.244 34.4304 110.244 35.0909C110.244 35.7599 110.342 36.3352 110.538 36.8168C110.734 37.294 111.009 37.6626 111.362 37.9226C111.72 38.1783 112.14 38.3061 112.622 38.3061C112.963 38.3061 113.267 38.2422 113.536 38.1143C113.808 37.9822 114.036 37.7926 114.22 37.5455C114.403 37.2983 114.529 36.9979 114.597 36.6442H116.808C116.753 37.3388 116.548 37.9545 116.195 38.4915C115.841 39.0241 115.36 39.4418 114.75 39.7443C114.141 40.0426 113.425 40.1918 112.602 40.1918ZM123.611 30.1818V31.9716H117.967V30.1818H123.611ZM119.36 27.8295H121.674V37.0469C121.674 37.358 121.721 37.5966 121.815 37.7628C121.913 37.9247 122.041 38.0355 122.199 38.0952C122.356 38.1548 122.531 38.1847 122.723 38.1847C122.868 38.1847 123 38.174 123.119 38.1527C123.243 38.1314 123.336 38.1122 123.4 38.0952L123.79 39.9041C123.667 39.9467 123.49 39.9936 123.26 40.0447C123.034 40.0959 122.757 40.1257 122.429 40.1342C121.849 40.1513 121.327 40.0639 120.863 39.8722C120.398 39.6761 120.029 39.3736 119.757 38.9645C119.488 38.5554 119.356 38.044 119.36 37.4304V27.8295ZM133.166 32.777L131.056 33.0071C130.997 32.794 130.892 32.5938 130.743 32.4062C130.598 32.2188 130.402 32.0675 130.155 31.9524C129.908 31.8374 129.605 31.7798 129.247 31.7798C128.766 31.7798 128.361 31.8842 128.033 32.093C127.709 32.3018 127.549 32.5724 127.553 32.9048C127.549 33.1903 127.654 33.4226 127.867 33.6016C128.084 33.7805 128.442 33.9276 128.941 34.0426L130.615 34.4006C131.544 34.6009 132.235 34.9183 132.686 35.353C133.142 35.7876 133.372 36.3565 133.377 37.0597C133.372 37.6776 133.191 38.223 132.833 38.696C132.48 39.1648 131.987 39.5312 131.357 39.7955C130.726 40.0597 130.002 40.1918 129.183 40.1918C127.982 40.1918 127.014 39.9403 126.281 39.4375C125.548 38.9304 125.112 38.2251 124.971 37.3217L127.227 37.1044C127.33 37.5476 127.547 37.8821 127.879 38.108C128.212 38.3338 128.644 38.4467 129.177 38.4467C129.727 38.4467 130.168 38.3338 130.5 38.108C130.837 37.8821 131.005 37.603 131.005 37.2706C131.005 36.9893 130.896 36.7571 130.679 36.5739C130.466 36.3906 130.134 36.25 129.682 36.152L128.007 35.8004C127.066 35.6044 126.369 35.2741 125.917 34.8097C125.465 34.3409 125.242 33.7486 125.246 33.0327C125.242 32.4276 125.406 31.9034 125.738 31.4602C126.075 31.0128 126.541 30.6676 127.138 30.4247C127.739 30.1776 128.431 30.054 129.215 30.054C130.366 30.054 131.271 30.299 131.932 30.7891C132.597 31.2791 133.008 31.9418 133.166 32.777Z" fill="black"/>
</svg>
