<svg width="25" height="25" viewBox="0 0 25 25" fill="none" xmlns="http://www.w3.org/2000/svg">
<path d="M11.7896 3.86637C12.0193 3.42427 12.1342 3.20323 12.2881 3.13139C12.4221 3.06883 12.577 3.06883 12.711 3.13139C12.8649 3.20323 12.9798 3.42427 13.2095 3.86637L14.7225 6.77865C14.8216 6.96934 14.8711 7.06468 14.9454 7.12803C15.011 7.18394 15.0899 7.22195 15.1745 7.23837C15.2704 7.25697 15.3758 7.23625 15.5867 7.19481L18.8069 6.56197C19.2958 6.4659 19.5402 6.41786 19.6923 6.49342C19.8248 6.55921 19.9214 6.68027 19.956 6.82406C19.9958 6.9892 19.8946 7.21681 19.6922 7.67203L18.3586 10.6707C18.2713 10.8671 18.2276 10.9653 18.2244 11.0628C18.2216 11.149 18.2411 11.2344 18.281 11.3108C18.3262 11.3973 18.4082 11.4668 18.572 11.6058L21.0746 13.729C21.4545 14.0513 21.6445 14.2124 21.6803 14.3785C21.7114 14.5231 21.677 14.674 21.5862 14.7908C21.4819 14.9249 21.2408 14.9876 20.7587 15.1132L17.5827 15.9402C17.3748 15.9944 17.2708 16.0215 17.1925 16.0798C17.1234 16.1313 17.0688 16.1998 17.034 16.2786C16.9945 16.368 16.9912 16.4754 16.9847 16.6901L16.8851 19.9705C16.87 20.4685 16.8624 20.7175 16.7549 20.849C16.6613 20.9635 16.5218 21.0307 16.3739 21.0325C16.204 21.0345 16.0047 20.8852 15.6059 20.5865L12.9791 18.6191C12.8071 18.4903 12.7211 18.4259 12.6267 18.4011C12.5434 18.3791 12.4558 18.3791 12.3724 18.4011C12.278 18.4259 12.192 18.4903 12.02 18.6191L9.3932 20.5865C8.99444 20.8852 8.79506 21.0345 8.62521 21.0325C8.47731 21.0307 8.3378 20.9635 8.24418 20.849C8.13667 20.7175 8.12911 20.4685 8.11399 19.9705L8.01439 16.6901C8.00787 16.4754 8.00461 16.368 7.96514 16.2786C7.93031 16.1998 7.87569 16.1313 7.80658 16.0798C7.72829 16.0215 7.62432 15.9944 7.41636 15.9402L4.24042 15.1132C3.7583 14.9876 3.51724 14.9249 3.41295 14.7908C3.32214 14.674 3.28768 14.5231 3.31884 14.3785C3.35463 14.2124 3.54458 14.0513 3.92448 13.729L6.42706 11.6058C6.59093 11.4668 6.67286 11.3973 6.71808 11.3108C6.758 11.2344 6.77749 11.149 6.77467 11.0628C6.77148 10.9653 6.72782 10.8671 6.6405 10.6707L5.30694 7.67203C5.1045 7.21681 5.00328 6.9892 5.04309 6.82406C5.07775 6.68027 5.1743 6.55921 5.30677 6.49342C5.45891 6.41786 5.70333 6.4659 6.19219 6.56197L9.41245 7.19481C9.6233 7.23625 9.72873 7.25697 9.82458 7.23837C9.9092 7.22195 9.98812 7.18394 10.0537 7.12803C10.128 7.06468 10.1776 6.96934 10.2766 6.77865L11.7896 3.86637Z" stroke="#FF732C" stroke-width="2" stroke-linecap="round" stroke-linejoin="round"/>
</svg>
