<svg width="84" height="72" viewBox="0 0 84 72" fill="none" xmlns="http://www.w3.org/2000/svg">
<path d="M0 18C0 8.05888 8.05888 0 18 0H66C75.9411 0 84 8.05888 84 18V54C84 63.9411 75.9411 72 66 72H18C8.05888 72 0 63.9411 0 54V18Z" fill="#FF732C"/>
<path d="M51.5745 20.688C53.1825 19.0272 55.8392 19.0057 57.4737 20.6403C59.0635 22.2301 59.0931 24.7984 57.5404 26.4244L52.9093 31.274C52.5463 31.6541 52.3648 31.8441 52.253 32.0667C52.154 32.2638 52.095 32.4785 52.0796 32.6985C52.0622 32.947 52.1213 33.2031 52.2395 33.7153L55.1193 46.1945C55.2406 46.7202 55.3013 46.983 55.2817 47.2373C55.2644 47.4623 55.2015 47.6815 55.0969 47.8815C54.9788 48.1075 54.7881 48.2983 54.4066 48.6798L53.7886 49.2977C52.7784 50.3079 52.2732 50.8131 51.7563 50.9045C51.3048 50.9844 50.8404 50.8747 50.4724 50.6014C50.0509 50.2884 49.825 49.6107 49.3732 48.2554L46.0236 38.2066L40.448 43.7821C40.1152 44.1149 39.9488 44.2813 39.8375 44.4773C39.7389 44.6509 39.6723 44.8408 39.6408 45.038C39.6053 45.2605 39.6313 45.4944 39.6833 45.9622L39.9895 48.7178C40.0415 49.1856 40.0674 49.4195 40.0319 49.6421C40.0005 49.8393 39.9339 50.0292 39.8353 50.2028C39.724 50.3987 39.5576 50.5651 39.2247 50.8979L38.8956 51.2271C38.1071 52.0156 37.7129 52.4098 37.2748 52.5239C36.8906 52.6241 36.4832 52.5837 36.1261 52.4102C35.7189 52.2123 35.4096 51.7484 34.7911 50.8207L32.1773 46.8999C32.0668 46.7341 32.0115 46.6513 31.9474 46.5761C31.8904 46.5093 31.8282 46.4472 31.7615 46.3902C31.6863 46.3261 31.6034 46.2708 31.4377 46.1603L27.5169 43.5464C26.5891 42.9279 26.1253 42.6187 25.9274 42.2115C25.7538 41.8544 25.7135 41.447 25.8136 41.0627C25.9278 40.6247 26.322 40.2304 27.1105 39.442L27.4396 39.1128C27.7724 38.78 27.9388 38.6136 28.1348 38.5023C28.3084 38.4037 28.4983 38.3371 28.6955 38.3056C28.9181 38.2701 29.1519 38.2961 29.6197 38.3481L32.3754 38.6543C32.8432 38.7063 33.0771 38.7322 33.2996 38.6967C33.4968 38.6653 33.6867 38.5987 33.8603 38.5001C34.0563 38.3888 34.2227 38.2224 34.5555 37.8895L40.131 32.314L30.0822 28.9644C28.7268 28.5126 28.0491 28.2867 27.7362 27.8652C27.4629 27.4971 27.3532 27.0327 27.4331 26.5813C27.5245 26.0643 28.0296 25.5592 29.0399 24.549L29.6578 23.931C30.0393 23.5495 30.2301 23.3588 30.456 23.2406C30.6561 23.1361 30.8752 23.0732 31.1003 23.0559C31.3545 23.0363 31.6174 23.0969 32.1431 23.2183L44.575 26.0872C45.0916 26.2064 45.3498 26.266 45.5992 26.2482C45.84 26.2311 46.0742 26.1619 46.2856 26.0454C46.5045 25.9247 46.6889 25.7342 47.0577 25.3533L51.5745 20.688Z" stroke="white" stroke-width="2" stroke-linecap="round" stroke-linejoin="round"/>
</svg>
