<svg width="44" height="44" viewBox="0 0 44 44" fill="none" xmlns="http://www.w3.org/2000/svg">
<circle cx="22" cy="22" r="22" fill="white" fill-opacity="0.3"/>
<path d="M17.5502 31.75C26.6045 31.75 31.5583 24.2468 31.5583 17.7419C31.5583 17.531 31.5536 17.3154 31.5442 17.1044C32.5079 16.4075 33.3395 15.5443 34 14.5554C33.1025 14.9547 32.1496 15.2154 31.1739 15.3288C32.2013 14.713 32.9705 13.7455 33.3391 12.6058C32.3726 13.1786 31.3156 13.5827 30.2134 13.8007C29.4708 13.0116 28.489 12.4892 27.4197 12.3141C26.3504 12.139 25.2532 12.3211 24.2977 12.8322C23.3423 13.3432 22.5818 14.1548 22.1338 15.1414C21.6859 16.128 21.5754 17.2347 21.8195 18.2904C19.8625 18.1922 17.9479 17.6838 16.2 16.7982C14.452 15.9126 12.9097 14.6695 11.673 13.1496C11.0444 14.2333 10.8521 15.5157 11.135 16.7362C11.418 17.9566 12.1551 19.0235 13.1964 19.72C12.4146 19.6952 11.65 19.4847 10.9656 19.106V19.1669C10.9649 20.3042 11.3581 21.4066 12.0783 22.2868C12.7985 23.167 13.8013 23.7706 14.9162 23.995C14.1921 24.1932 13.432 24.2221 12.6948 24.0794C13.0095 25.0575 13.6216 25.913 14.4458 26.5264C15.27 27.1398 16.2651 27.4807 17.2923 27.5013C15.5484 28.8712 13.3942 29.6142 11.1766 29.6107C10.7833 29.6101 10.3904 29.586 10 29.5385C12.2529 30.9838 14.8735 31.7514 17.5502 31.75Z" fill="white"/>
</svg>
